<svg xmlns="http://www.w3.org/2000/svg" width="22" height="23" viewBox="0 0 22 23"><path d="m8.2,23c-2.19,0-4.24-.83-5.79-2.35-1.55-1.52-2.4-3.53-2.4-5.68s.85-4.16,2.4-5.68L10.27,1.61c1.06-1.04,2.48-1.61,3.98-1.61s2.91.57,3.98,1.61c1.05,1.03,1.65,2.45,1.65,3.9s-.6,2.88-1.65,3.9l-7.86,7.69c-1.16,1.13-3.17,1.13-4.33,0-.58-.57-.9-1.33-.9-2.13s.32-1.56.9-2.13l7.86-7.68c.2-.19.52-.19.71,0,.19.2.19.51,0,.71l-7.86,7.68c-.39.38-.6.88-.6,1.42s.21,1.04.6,1.42c.77.75,2.16.75,2.93,0l7.86-7.69c.87-.85,1.35-1.99,1.35-3.19s-.48-2.34-1.35-3.19c-.88-.86-2.04-1.33-3.28-1.33s-2.4.47-3.28,1.33l-7.86,7.68c-1.36,1.33-2.1,3.09-2.1,4.96s.75,3.64,2.1,4.96c1.36,1.33,3.17,2.06,5.09,2.06s3.73-.73,5.09-2.06l7.86-7.69c.2-.19.51-.19.71,0,.19.2.19.51,0,.71l-7.86,7.69c-1.55,1.51-3.6,2.35-5.79,2.35Z"/></svg>