<svg xmlns="http://www.w3.org/2000/svg" width="264" height="176" xmlns:xlink="http://www.w3.org/1999/xlink" viewBox="0 0 264 176"><defs><clipPath id="b"><rect x="90" y="34" width="83" height="113" fill="none"/></clipPath></defs><g clip-path="url(#b)"><path d="m133.18,37.41h9.38v26.49h3.36v-26.49h5.46v32.82l-18.2,12.89v-45.71Z" fill="#efef4d"/><path d="m111.35,70.23v-32.82h5.73v26.49h3.36v-26.49h9.38v45.73l-18.47-12.92Z" fill="#efef4d"/><path d="m131.37,91.67c-14.64,0-26.5,12.05-26.5,26.93s11.86,26.92,26.5,26.92,26.5-12.05,26.5-26.92-11.86-26.93-26.5-26.93Zm4.88,33.88l-4.75-2.25-4.74,2.25.92-4.66-4.19-4.71,5.44-.68,2.57-5.03,2.57,5.03,5.44.68-4.19,4.71.92,4.66h0Z" fill="#fcffd2"/><path d="m131.37,98.83c-10.74,0-19.45,8.85-19.45,19.76s8.71,19.76,19.45,19.76,19.45-8.85,19.45-19.76-8.71-19.76-19.45-19.76Zm4.88,26.72l-4.75-2.25-4.74,2.25.92-4.66-4.19-4.71,5.44-.68,2.57-5.03,2.57,5.03,5.44.68-4.19,4.71.92,4.66h0Z" fill="#efef4d"/><path d="m146.32,113.59l-10.1-1.27-4.72-9.25-4.74,9.28-10.1,1.27,7.36,8.3-1.9,9.6,9.36-4.43,9.36,4.43-1.9-9.6,7.39-8.32Zm-14.82,9.71l-4.74,2.25.92-4.66-4.19-4.71,5.44-.68,2.57-5.03,2.57,5.03,5.44.68-4.19,4.71.92,4.66-4.74-2.25h0Z" fill="#ffcf0f"/><path d="m151.53,132.97l2.75,1.96c.96-1.39,1.79-2.86,2.51-4.41l-3.04-1.43c-.63,1.36-1.37,2.66-2.22,3.89h0Z" fill="#ffcf0f"/><path d="m158.38,111.16c-1.28-4.78-3.76-9.16-7.23-12.67-2.91-2.96-6.31-5.14-9.96-6.5v-10.37l13.54-9.6v-38.02h-46.74v38l13.54,9.48v10.46c-3.65,1.39-7.05,3.55-9.98,6.53-5.28,5.37-8.19,12.51-8.19,20.1s2.91,14.74,8.19,20.1c5.28,5.37,12.31,8.32,19.79,8.32s14.51-2.96,19.79-8.32l-2.37-2.41c-9.6,9.76-25.23,9.76-34.83,0-4.63-4.71-7.21-11-7.21-17.69s2.55-12.99,7.21-17.69c9.6-9.76,25.23-9.76,34.83,0,6.13,6.23,8.55,15.08,6.49,23.67l3.27.82c1.14-4.66,1.1-9.57-.13-14.21h0Zm-25.2-73.75h9.38v26.49h3.36v-26.49h5.46v32.82l-18.2,12.89v-45.71Zm-21.83,32.82v-32.82h5.71v26.49h3.36v-26.49h9.38v45.73l-18.44-12.92Zm13.57,20.72v-7.07l6.58,4.59,6.33-4.5v6.96c-4.23-1-8.66-1-12.92.02Z" fill="#ffcf0f"/><path d="m173,67.72h-3.36v15.31h3.36v-15.31Z" fill="#ffcf0f"/><path d="m173,86.44h-3.36v3.41h3.36v-3.41Z" fill="#ffcf0f"/><path d="m93.36,100.88h-3.36v15.31h3.36v-15.31Z" fill="#ffcf0f"/><path d="m93.36,119.6h-3.36v3.41h3.36v-3.41Z" fill="#ffcf0f"/><path d="m145.92,67.32h-3.36v3.41h3.36v-3.41Z" fill="#fff"/><path d="m120.44,67.32h-3.36v3.41h3.36v-3.41Z" fill="#fff"/><path d="m110.57,122.3c.22,1.25.54,2.5.98,3.71l3.16-1.18c-.36-1-.65-2.05-.83-3.12l-3.31.59h0Z" fill="#ffcf0f"/><path d="m131.37,140.04c11.64,0,21.13-9.62,21.13-21.47s-9.47-21.47-21.13-21.47-21.13,9.62-21.13,21.47h3.36c0-9.96,7.97-18.06,17.77-18.06s17.77,8.1,17.77,18.06-7.97,18.06-17.77,18.06c-6.24,0-11.93-3.25-15.2-8.71l-2.86,1.78c3.87,6.5,10.63,10.35,18.06,10.35Z" fill="#ffcf0f"/></g></svg>