<svg xmlns="http://www.w3.org/2000/svg" width="264" height="176" viewBox="0 0 264 176"><path d="m129.51,44.99c-1.27,2.46-1.5,6.55-1.27,23.25.29,21.49-.08,23.86-5.43,35.4-1.58,3.41-2.31,4.05-4.11,3.61-5.43-1.33-6.47-6.09-1.94-8.92,1.51-.95,2.9-1.81,3.07-1.93.18-.12-.41-6.2-1.3-13.53-2.14-17.5-5.31-24.33-14.44-31.04l-4.08-3v77.17h17.53l1.77,5c1.1,3.09,3.83,7.19,7.16,10.75l5.39,5.75,4.66-4.5c4.57-4.41,9.49-12.43,9.49-15.47,0-1.26,1.58-1.53,9-1.53h9V48.86l-2.85,2.03c-4.59,3.27-10.15,9.94-12.13,14.54-1.01,2.35-2.59,10.25-3.53,17.55-1.75,13.74-1.57,14.95,2.23,15,1.66.02,2.8,4.95,1.59,6.87-.54.85-2.14,1.86-3.56,2.24-2.39.64-2.78.26-5.13-4.97-5.16-11.49-5.79-15.98-5.06-35.68.59-15.71.46-18.47-.98-21.25-2.05-3.97-3.12-4.01-5.09-.21Zm-19.44,23.66c.6,1.57,1.66,7.51,2.36,13.21,1.26,10.32,1.26,10.37-1.08,12.7-1.29,1.29-2.35,2.82-2.35,3.39s-.68,1.04-1.5,1.04c-1.28,0-1.5-2.75-1.5-18.72,0-16.85.15-18.51,1.49-16.6.82,1.17,1.98,3.4,2.58,4.97Zm47.93,11.85c0,15.78-.22,18.5-1.5,18.5-.82,0-1.5-.47-1.5-1.05s-1.07-2.04-2.37-3.25l-2.37-2.2,1.32-10.84c.81-6.65,2.15-12.55,3.46-15.25,1.17-2.42,2.32-4.41,2.54-4.41s.41,8.32.41,18.5Zm-23.39,23.25c1.04,2.61,2.01,5.01,2.16,5.33.15.32-.86,1.1-2.25,1.73-1.9.87-3.15.87-5.05,0-1.39-.63-2.4-1.41-2.25-1.73.15-.32,1.12-2.72,2.16-5.33s2.21-4.75,2.61-4.75,1.58,2.14,2.61,4.75Zm-23.73,5.25c2.09,2.2,4.6,4,5.58,4,1.35,0,1.63.54,1.17,2.25-.33,1.24-.61,2.81-.62,3.5-.01.85-1.79,1.25-5.51,1.25h-5.5v-7.5c0-4.12.24-7.5.54-7.5s2.25,1.8,4.35,4Zm47.11,3.5v7.5h-5.5c-3.73,0-5.5-.4-5.51-1.25,0-.69-.27-2.2-.58-3.37-.45-1.67-.02-2.26,1.98-2.76,1.4-.35,3.8-2.21,5.33-4.13,1.53-1.92,3.12-3.49,3.53-3.49s.75,3.38.75,7.5Zm-30.83,4.15c2.61,2.36,2.27,3.35-1.17,3.35-3.05,0-3.47-.6-2.39-3.42.76-1.99,1.29-1.98,3.56.07Zm13.65,1.17c.27,1.83-.17,2.17-2.75,2.17-3.5,0-3.76-.58-1.39-3.2,2.06-2.27,3.72-1.86,4.14,1.02Zm-11.82,13.17c0,2.75-.22,5-.48,5-.65,0-4.52-7.66-4.52-8.96,0-.57,1.12-1.04,2.5-1.04,2.33,0,2.5.33,2.5,5Zm11-3.96c0,1.3-3.87,8.96-4.52,8.96-.26,0-.48-2.25-.48-5,0-4.67.17-5,2.5-5,1.38,0,2.5.47,2.5,1.04Z" fill="#ffcf0f" fill-rule="evenodd"/></svg>