<svg xmlns="http://www.w3.org/2000/svg" width="264" height="176" xmlns:xlink="http://www.w3.org/1999/xlink" viewBox="0 0 264 176"><defs><clipPath id="b"><rect x="68.5" y="59" width="127" height="86" fill="none"/></clipPath></defs><g clip-path="url(#b)"><path d="m111.12,118.85c-1.81,0-3.27,1.48-3.27,3.32s1.46,3.32,3.27,3.32,3.27-1.48,3.27-3.32-1.46-3.32-3.27-3.32Z" fill="#ffcf0f"/><path d="m85.98,118.85c-1.81,0-3.27,1.48-3.27,3.32s1.46,3.32,3.27,3.32,3.27-1.48,3.27-3.32-1.48-3.32-3.27-3.32Z" fill="#ffcf0f"/><path d="m101.82,116.36h-6.57c-1.94-3.17-5.37-5.27-9.3-5.27s-7.36,2.1-9.3,5.27h-4.32v-38.53h36.87v33.44c-3.12.55-5.78,2.44-7.39,5.09h0Z" fill="#fcffd2"/><path d="m113.04,111.24v-33.42h30v38.53h-22.61c-1.61-2.65-4.27-4.54-7.39-5.12h0Z" fill="#fcffd2"/><path d="m181.91,116.36c-1.94-3.17-5.37-5.27-9.3-5.27s-7.36,2.1-9.3,5.27h-16.43v-13.97h6.16v-3.9h-6.16v-13.92h17.66v17.81h27.14v3.9h-7.13v3.89h7.13v6.18h-9.76Z" fill="#efef4d"/><path d="m172.6,118.85c-1.81,0-3.27,1.48-3.27,3.32s1.46,3.32,3.27,3.32,3.27-1.48,3.27-3.32c.03-1.82-1.46-3.32-3.27-3.32Z" fill="#ffcf0f"/><path d="m195.5,98.47h-10.73l-17.53-17.81h-20.37v-9.97h-3.83v3.22h-30v-3.22h-3.83v3.22h-36.87v-3.22h-3.83v57.33h8.15c1.94,3.17,5.37,5.27,9.3,5.27s7.36-2.1,9.3-5.27h6.57c1.94,3.17,5.37,5.27,9.3,5.27,6.03,0,10.94-4.99,10.94-11.11,0-.67-.05-1.32-.18-1.95h39.97c-.1.62-.18,1.27-.18,1.95s.05,1.32.18,1.95h-28.19v3.89h29.64c1.94,3.17,5.37,5.27,9.3,5.27,6.03,0,10.94-4.99,10.94-11.11,0-.68-.05-1.32-.18-1.95h12.11v-21.76h.03,0Zm-120.3,25.68h-2.86v-3.9h2.86c-.1.62-.18,1.27-.18,1.95s.08,1.3.18,1.95Zm10.78,5.27c-3.91,0-7.1-3.24-7.1-7.22s3.19-7.22,7.1-7.22,7.1,3.25,7.1,7.22-3.19,7.22-7.1,7.22Zm14.38-5.27h-3.63c.1-.62.18-1.27.18-1.95s-.05-1.32-.18-1.95h3.63c-.1.62-.18,1.27-.18,1.95s.05,1.3.18,1.95Zm1.46-7.79h-6.57c-1.94-3.17-5.37-5.27-9.3-5.27s-7.36,2.1-9.3,5.27h-4.32v-38.53h36.87v33.44c-3.12.55-5.78,2.44-7.39,5.09h0Zm9.3,13.06c-3.91,0-7.1-3.24-7.1-7.22s3.19-7.22,7.1-7.22,7.1,3.25,7.1,7.22-3.17,7.22-7.1,7.22Zm31.92-13.06h-22.61c-1.61-2.62-4.27-4.54-7.39-5.09v-33.44h30v38.53h0Zm25.32-29.03l10.99,11.17h-10.99v-11.17Zm4.24,42.09c-3.91,0-7.1-3.24-7.1-7.22s3.19-7.22,7.1-7.22,7.1,3.25,7.1,7.22-3.17,7.22-7.1,7.22Zm19.06-23.16h-7.13v3.89h7.13v6.18h-9.76c-1.94-3.17-5.37-5.27-9.3-5.27s-7.36,2.1-9.3,5.27h-16.43v-13.97h6.16v-3.89h-6.16v-13.92h17.66v17.81h27.14v3.9h0Z" fill="#ffcf0f"/><path d="m112.61,141.1h-17.2v3.9h17.2v-3.9Z" fill="#ffcf0f"/><path d="m91.58,141.1h-3.83v3.9h3.83v-3.9Z" fill="#ffcf0f"/><path d="m152.78,59h-17.2v3.9h17.2v-3.9Z" fill="#ffcf0f"/><path d="m131.74,59h-3.83v3.9h3.83v-3.9Z" fill="#ffcf0f"/><path d="m160.7,98.47h-3.83v3.89h3.83v-3.89Z" fill="#fff"/><path d="m180.71,106.26h-3.83v3.89h3.83v-3.89Z" fill="#fff"/><path d="m129.83,124.15h-3.83v3.9h3.83v-3.9Z" fill="#ffcf0f"/></g></svg>