<svg xmlns="http://www.w3.org/2000/svg" width="264" height="176" xmlns:xlink="http://www.w3.org/1999/xlink" viewBox="0 0 264 176"><defs><clipPath id="b"><rect x="83.5" y="32.5" width="97" height="111" fill="none"/></clipPath></defs><g clip-path="url(#b)"><path d="m161.85,109.86v10.21h-1.7v20.03h-56.32V61.51h56.32v48.36h1.7Z" fill="#fcffd2"/><path d="m180.5,71.24h-3.39v15.26h3.39v-15.26Z" fill="#ffcf0f"/><path d="m180.5,64.43h-3.39v3.4h3.39v-3.4Z" fill="#ffcf0f"/><path d="m86.89,109.03h-3.39v15.26h3.39v-15.26Z" fill="#ffcf0f"/><path d="m86.89,102.22h-3.39v3.4h3.39v-3.4Z" fill="#ffcf0f"/><path d="m144.64,100.07c6.98-7.01,6.98-18.36,0-25.37-6.98-7.01-18.3-7.01-25.28,0-6.98,7.01-6.98,18.36,0,25.37,6.98,7.01,18.3,7.01,25.28,0Z" fill="#efef4d"/><path d="m132,66.04c-11.73,0-21.27,9.57-21.27,21.34s9.54,21.34,21.27,21.34,21.27-9.57,21.27-21.34-9.54-21.34-21.27-21.34Zm0,39.28c-9.85,0-17.88-8.05-17.88-17.94s8.02-17.94,17.88-17.94,17.88,8.05,17.88,17.94-8.02,17.94-17.88,17.94Z" fill="#ffcf0f"/><path d="m137.87,75.46h-11.73v3.4h11.73v-3.4Z" fill="#fff"/><path d="m142.94,82.28h-21.9v3.4h21.9v-3.4Z" fill="#fff"/><path d="m142.94,89.09h-21.9v3.4h21.9v-3.4Z" fill="#fff"/><path d="m137.87,95.91h-11.73v3.4h11.73v-3.4Z" fill="#fff"/><path d="m149.88,116.67h-35.75v15.51h35.75v-15.51Z" fill="#efef4d"/><path d="m110.73,113.27v22.32h42.53v-22.32h-42.53Zm39.14,18.92h-35.75v-15.51h35.75v15.51Z" fill="#ffcf0f"/><path d="m163.55,113.27h-3.39v3.4h3.39v-3.4Z" fill="#ffcf0f"/><path d="m100.45,73.82h-3.39v11.75h3.39v-11.75Z" fill="#efef4d"/><path d="m114.12,53.12h-3.39v4.99h3.39v-4.99Z" fill="#efef4d"/><path d="m137.49,53.12h-3.39v4.99h3.39v-4.99Z" fill="#efef4d"/><path d="m152.88,53.12h-3.39v4.99h3.39v-4.99Z" fill="#efef4d"/><path d="m163.55,109.86v-51.76h-7.28v-8.39h-3.39v-10.43h-3.39v10.43h-3.39v8.39h-5.22v-8.39h-3.39v-10.43h-3.39v10.43h-3.39v8.39h-13.2v-8.39h-10.17v8.39h-6.89v12.32h-6.78v18.55h6.78v54.52h63.1v-23.43h-3.39v20.05h-56.32V61.51h56.32v48.33h3.39v.02h0Zm-63.1-24.29h-3.39v-11.75h3.39v11.75Zm13.67-27.47h-3.39v-4.99h3.39v4.99Zm23.37,0h-3.39v-4.99h3.39v4.99Zm15.39,0h-3.39v-4.99h3.39v4.99Z" fill="#ffcf0f"/><path d="m139.59,122.72h-15.21v3.4h15.21v-3.4Z" fill="#fff"/><path d="m146.4,122.72h-3.39v3.4h3.39v-3.4Z" fill="#fff"/><path d="m120.99,122.72h-3.39v3.4h3.39v-3.4Z" fill="#fff"/><path d="m152.88,32.5h-3.39v3.4h3.39v-3.4Z" fill="#ffcf0f"/><path d="m137.49,32.5h-3.39v3.4h3.39v-3.4Z" fill="#ffcf0f"/></g></svg>