<svg xmlns="http://www.w3.org/2000/svg" width="88" height="88" fill="none"><path fill="#FFD600" fill-rule="evenodd" d="M41.48 3.81a4.99 4.99 0 0 0-4.86 3.89l-1.4 6.16a31.22 31.22 0 0 0-6.33 2.63l-5.34-3.37a4.99 4.99 0 0 0-6.19.69l-3.56 3.56a4.99 4.99 0 0 0-.69 6.18l3.37 5.35a31.22 31.22 0 0 0-2.62 6.33l-6.16 1.4a4.99 4.99 0 0 0-3.89 4.86v5.03a4.99 4.99 0 0 0 3.89 4.86l6.16 1.4a31.23 31.23 0 0 0 2.62 6.33l-3.37 5.35a4.99 4.99 0 0 0 .7 6.18l3.55 3.56a4.99 4.99 0 0 0 6.19.69l5.34-3.37c2 1.1 4.11 1.98 6.33 2.62l1.4 6.16a4.99 4.99 0 0 0 4.86 3.89h5.03a4.99 4.99 0 0 0 4.86-3.89l1.4-6.16a31.23 31.23 0 0 0 6.34-2.62l5.34 3.37a4.99 4.99 0 0 0 6.19-.7l3.55-3.55a4.99 4.99 0 0 0 .7-6.18l-3.37-5.35a31.2 31.2 0 0 0 2.62-6.33l6.16-1.4a4.99 4.99 0 0 0 3.89-4.86v-5.03a4.99 4.99 0 0 0-3.89-4.87l-6.16-1.4a31.2 31.2 0 0 0-2.62-6.33l3.37-5.34a4.99 4.99 0 0 0-.7-6.19l-3.55-3.55a4.99 4.99 0 0 0-6.19-.7l-5.34 3.37a31.23 31.23 0 0 0-6.34-2.62l-1.4-6.16a4.99 4.99 0 0 0-4.86-3.89h-5.03ZM28.87 22.37A26.26 26.26 0 0 1 39.4 18l2.08-9.2h5.03L48.6 18c3.86.68 7.44 2.2 10.53 4.37l7.98-5.04 3.56 3.56-5.03 7.98A26.25 26.25 0 0 1 70 39.4l9.2 2.09v5.03L70 48.6a26.26 26.26 0 0 1-4.36 10.53l5.03 7.99-3.56 3.55-7.98-5.03A26.26 26.26 0 0 1 48.6 70l-2.09 9.2h-5.03L39.4 70a26.26 26.26 0 0 1-10.53-4.36l-7.98 5.03-3.56-3.56 5.03-7.98A26.26 26.26 0 0 1 18 48.6l-9.2-2.08v-5.03L18 39.4c.68-3.86 2.2-7.44 4.36-10.53l-5.03-7.98 3.56-3.55 7.98 5.03ZM52.95 44a8.95 8.95 0 1 1-17.9 0 8.95 8.95 0 0 1 17.9 0Zm5.28 0a14.23 14.23 0 1 1-28.46 0 14.23 14.23 0 0 1 28.46 0Z" clip-rule="evenodd"/></svg>