<svg xmlns="http://www.w3.org/2000/svg" width="80" height="80" viewBox="0 0 80 80"><path d="m37.71,3.5c-2.12,0-3.95,1.46-4.42,3.53l-1.27,5.6c-2.02.59-3.95,1.39-5.75,2.39l-4.85-3.06c-1.79-1.13-4.12-.87-5.62.63l-3.23,3.23c-1.5,1.5-1.76,3.83-.63,5.62l3.06,4.86c-.99,1.81-1.8,3.73-2.38,5.75l-5.6,1.27c-2.06.47-3.53,2.3-3.53,4.42v4.57c0,2.12,1.46,3.95,3.53,4.42l5.6,1.27c.59,2.02,1.39,3.95,2.38,5.75l-3.06,4.86c-1.13,1.79-.87,4.12.63,5.62l3.23,3.23c1.5,1.5,3.83,1.76,5.62.63l4.86-3.06c1.81.99,3.73,1.8,5.75,2.38l1.27,5.6c.47,2.06,2.3,3.53,4.42,3.53h4.57c2.12,0,3.95-1.46,4.42-3.53l1.27-5.59c2.02-.59,3.95-1.39,5.75-2.38l4.86,3.06c1.79,1.13,4.12.87,5.62-.63l3.23-3.23c1.5-1.5,1.76-3.83.63-5.62l-3.06-4.85c.99-1.81,1.8-3.73,2.39-5.75l5.59-1.27c2.06-.47,3.53-2.3,3.53-4.42v-4.57c0-2.12-1.46-3.95-3.53-4.42l-5.59-1.27c-.59-2.02-1.39-3.95-2.38-5.75l3.06-4.85c1.13-1.79.87-4.12-.63-5.62l-3.23-3.23c-1.5-1.5-3.83-1.76-5.62-.63l-4.85,3.06c-1.81-.99-3.74-1.8-5.76-2.39l-1.27-5.59c-.47-2.06-2.3-3.53-4.42-3.53h-4.57Zm-11.46,16.85c2.81-1.97,6.05-3.35,9.56-3.97l1.89-8.36h4.57l1.89,8.35c3.51.62,6.76,2,9.57,3.96l7.25-4.57,3.23,3.23-4.57,7.25c1.97,2.81,3.35,6.05,3.96,9.57l8.35,1.89v4.57l-8.36,1.89c-.62,3.51-2,6.76-3.97,9.57l4.57,7.25-3.23,3.23-7.25-4.57c-2.81,1.97-6.05,3.35-9.57,3.96l-1.89,8.35h-4.57l-1.89-8.36c-3.51-.62-6.75-2-9.56-3.96l-7.25,4.57-3.23-3.23,4.57-7.25c-1.97-2.81-3.35-6.05-3.96-9.56l-8.36-1.89v-4.57l8.36-1.89c.62-3.51,2-6.76,3.96-9.56l-4.57-7.25,3.23-3.23,7.25,4.57Zm21.87,19.65c0,4.49-3.64,8.13-8.13,8.13s-8.13-3.64-8.13-8.13,3.64-8.13,8.13-8.13,8.13,3.64,8.13,8.13Zm4.8,0c0,7.14-5.78,12.92-12.92,12.92s-12.92-5.78-12.92-12.92,5.78-12.92,12.92-12.92,12.92,5.79,12.92,12.92Z" fill="#ffd600" fill-rule="evenodd"/></svg>