<svg xmlns="http://www.w3.org/2000/svg" viewBox="0 0 85 32"><path fill="#fff" d="M47.5 13.61v4.78c.07.52 0 1.04-.22 1.52-.21.48-.55.89-.98 1.18a9.01 9.01 0 0 1-4.23.71h-4.9V10h4.89c1.44-.1 2.87.15 4.19.74a3.05 3.05 0 0 1 1.25 2.87Zm-2.77 4.78v-4.84c.02-.24-.04-.48-.15-.7-.12-.21-.3-.38-.52-.49A4.85 4.85 0 0 0 42 12h-2.1v7.75h2c.74.04 1.48-.05 2.19-.25.45-.12.64-.5.64-1.11Zm13.35-2.19v2.59c.02.5-.07.99-.26 1.45-.15.36-.37.68-.65.94-.3.24-.64.41-1 .52a6.6 6.6 0 0 1-1.16.22h-2.53a8.97 8.97 0 0 1-1.15-.22c-.36-.11-.7-.28-1-.52a2.45 2.45 0 0 1-.65-.94 3.59 3.59 0 0 1-.26-1.45V16.2c-.01-.53.08-1.06.27-1.56.14-.38.38-.73.68-1 .29-.25.63-.43 1-.53.37-.12.76-.2 1.15-.24.82-.07 1.63-.07 2.45 0 .39.04.78.12 1.15.24.37.1.71.28 1 .53.3.27.54.62.68 1 .2.49.3 1.03.28 1.56Zm-2.58 2.89v-3.31c.02-.18 0-.36-.07-.54a1.36 1.36 0 0 0-.28-.46 2.35 2.35 0 0 0-1.42-.3c-.5-.05-1 .05-1.43.3a1.24 1.24 0 0 0-.36 1v3.31a1.24 1.24 0 0 0 .35 1c.44.23.93.32 1.42.27.49.05.98-.04 1.42-.27.14-.12.25-.28.32-.45s.08-.36.05-.55Zm13.07-2.89v2.59c.02.5-.07.99-.26 1.45-.15.36-.37.68-.65.94-.3.24-.64.41-1 .52a6.6 6.6 0 0 1-1.16.22h-2.53a8.97 8.97 0 0 1-1.15-.22c-.37-.1-.71-.28-1-.52a2.59 2.59 0 0 1-.66-.94 3.59 3.59 0 0 1-.26-1.45V16.2c-.01-.53.08-1.06.27-1.56.14-.38.38-.73.68-1 .29-.25.63-.43 1-.53.37-.11.76-.19 1.15-.22a12.44 12.44 0 0 1 2.45 0c.39.04.78.12 1.15.24.37.1.71.28 1 .53.3.27.54.62.68 1 .19.49.29 1.01.29 1.54ZM66 19.09v-3.31c.02-.18 0-.37-.07-.54a1.24 1.24 0 0 0-.29-.46 3.48 3.48 0 0 0-2.84 0c-.13.13-.23.29-.29.46-.06.17-.08.36-.06.54v3.31a1.24 1.24 0 0 0 .35 1c.91.36 1.93.36 2.84 0 .14-.12.24-.28.3-.46.06-.17.08-.36.06-.54ZM76.2 15h-.88a3.16 3.16 0 0 0-1.6.33c-.19.12-.34.3-.43.5-.1.2-.14.43-.12.65v5.27h-2.58V13H73v1.55a1.55 1.55 0 0 1 .74-1.19c.42-.34.95-.52 1.49-.53h.93L76.2 15Zm8.8 3.38v1.11a2.29 2.29 0 0 1-.84 1.86 5.34 5.34 0 0 1-2.12.59h-1.27c-1.13-.01-2.26-.1-3.38-.27V20c1.13.2 2.27.33 3.42.38.4 0 .81-.06 1.19-.19a.56.56 0 0 0 .31-.23.62.62 0 0 0 .11-.37V19a.67.67 0 0 0-.05-.34.75.75 0 0 0-.18-.28c-.3-.18-.65-.25-1-.21h-1.07a3.45 3.45 0 0 1-2.12-.52 1.88 1.88 0 0 1-.73-1.65v-1a1.63 1.63 0 0 1 1.12-1.65 8.58 8.58 0 0 1 3.14-.46c.57 0 1.58.05 3 .16v1.69a81.73 81.73 0 0 0-3.12-.22c-.46-.04-.92.01-1.36.15a.61.61 0 0 0-.23.25c-.05.11-.07.22-.05.34v.47c0 .08.02.15.06.22.04.07.09.13.16.17.2.14.44.21.68.19h1.14C84 16.27 85 17 85 18.38Zm-43.58 8.33V29c0 .24-.06.48-.18.68-.12.19-.3.33-.51.41a3.58 3.58 0 0 1-1.31.23c-1.32 0-2-.43-2-1.32v-2.29c0-.93.67-1.4 2-1.4s2 .48 2 1.4ZM40.73 29v-2.31c0-.6-.43-.9-1.31-.9a4 4 0 0 0-.49 0 1.5 1.5 0 0 0-.41.13.76.76 0 0 0-.32.27.87.87 0 0 0-.1.45V29c0 .55.43.84 1.32.84s1.31-.27 1.31-.84Zm5.64 1.24h-.66v-.44c-.08.34-.46.52-1.16.52-.35.05-.71-.05-1-.26a1.11 1.11 0 0 1-.27-.78v-2.65H44v2.83c.02.07.04.13.08.19.06.07.14.12.23.14.14.02.27.02.41 0 .26.01.51-.02.76-.09a.44.44 0 0 0 .17-.16.37.37 0 0 0 .05-.23v-2.68h.66v3.61Zm4.19.03a4.5 4.5 0 0 1-.73.06c-.33.04-.66-.05-.93-.23-.1-.12-.18-.27-.22-.42-.05-.15-.06-.31-.05-.47v-2.12h-.78v-.44h.78v-1.13h.67v1.13h1.26v.44h-1.25v2.16c-.02.18.03.37.14.52a1 1 0 0 0 .59.13l.53-.06v.43ZM54.75 29v.31a.8.8 0 0 1-.4.8 2.5 2.5 0 0 1-1.14.22c-.41 0-.81-.04-1.21-.1v-.52c.41.08.82.12 1.23.14.22.02.45-.01.66-.09a.3.3 0 0 0 .17-.14.31.31 0 0 0 .05-.21V29c0-.07 0-.13-.03-.19a.44.44 0 0 0-.12-.15.92.92 0 0 0-.49-.1h-.46c-.3.02-.6-.06-.84-.23a.8.8 0 0 1-.29-.64v-.29c0-.57.53-.85 1.58-.85l1.07.06v.48a5.78 5.78 0 0 0-1.1-.11c-.24-.02-.49.01-.71.11a.32.32 0 0 0-.14.14.46.46 0 0 0-.05.2v.31c0 .25.22.37.65.37h.41c.8.01 1.17.3 1.17.89Zm4.87-1.15v1.26c0 .19-.03.39-.09.57a.98.98 0 0 1-.2.36c-.1.08-.22.15-.35.19-.14.05-.29.08-.44.09h-1.23a2.13 2.13 0 0 1-.49-.15.67.67 0 0 1-.35-.37 1.77 1.77 0 0 1-.11-.68v-1.27c0-.2.03-.41.09-.6.04-.14.11-.27.2-.38.1-.1.23-.17.36-.21.14-.05.29-.08.44-.09h1.1c.15.01.3.04.44.09.14.03.26.1.35.21.09.11.16.24.2.38.06.19.09.4.08.6Zm-.68 1.36v-1.47c0-.33-.07-.54-.19-.61-.24-.1-.49-.15-.75-.13-.26-.02-.52.02-.76.13-.13.08-.19.28-.19.61v1.47c0 .13.01.26.05.38.01.05.04.09.07.13.03.04.07.06.12.08.09.05.19.07.29.08h.87l.29-.08a.36.36 0 0 0 .19-.21v-.38Zm5.59 1.03h-.65v-.44c-.07.34-.46.52-1.16.52-.35.05-.71-.05-1-.26a1.3 1.3 0 0 1-.21-.36 1.18 1.18 0 0 1-.05-.42v-2.65h.66v2.61a.81.81 0 0 0 0 .22c.01.07.05.14.1.19.06.07.14.12.23.14.14.02.27.02.41 0 .25.01.51-.02.75-.09.07-.04.13-.09.17-.16s.06-.15.05-.23v-2.68h.65v3.61h.05Zm3.89-3.1h-.36c-.23-.02-.45.02-.66.12-.08.04-.14.11-.18.19s-.05.17-.04.25v2.56h-.66v-3.62h.62v.6c0-.1.04-.2.1-.28a.57.57 0 0 1 .22-.19c.19-.13.42-.2.65-.2h.32v.57h-.01Zm3.99 3.08a5.5 5.5 0 0 1-1.14.11h-.5a5.85 5.85 0 0 1-.41-.07.67.67 0 0 1-.35-.19.8.8 0 0 1-.21-.34 1.58 1.58 0 0 1-.08-.57v-1.34c0-.18.02-.35.06-.52a1.7 1.7 0 0 1 .46-.52.8.8 0 0 1 .34-.11l.37-.05h.45c.34 0 .67.04 1 .11v.49c-.37-.12-.75-.2-1.13-.22-.25-.03-.49.02-.71.14a.72.72 0 0 0-.15.27c-.03.1-.04.2-.02.3v1.49c-.01.1 0 .2.03.29.03.09.09.17.17.24.24.11.5.15.76.13.36 0 .72-.05 1.07-.13v.49ZM74.73 26h-.65v-.71h.65V26Zm0 4.21h-.65v-3.58h.65v3.58Zm5.03.03h-.65v-2.83a.5.5 0 0 0-.1-.19.43.43 0 0 0-.23-.14 1.4 1.4 0 0 0-.41 0c-.26-.03-.53.02-.77.12a.57.57 0 0 0-.19.47v2.61h-.65v-3.66h.65v.44c.07-.34.46-.51 1.16-.51.35-.05.71.04 1 .25a1.1 1.1 0 0 1 .27.78v2.66h-.08Zm5-3.61v4a1.15 1.15 0 0 1-.42 1c-.39.2-.82.29-1.26.27-.41.01-.82-.02-1.22-.08v-.48c.42.06.85.1 1.28.11.25 0 .5-.05.73-.16a.67.67 0 0 0 .19-.25c.04-.1.06-.2.04-.3v-.86c0 .17-.12.28-.34.36-.24.08-.49.11-.74.11a1.8 1.8 0 0 1-1.11-.25.98.98 0 0 1-.24-.39 1.2 1.2 0 0 1-.06-.46v-1.48c-.02-.17 0-.34.06-.5.06-.16.15-.3.27-.42.33-.21.72-.31 1.11-.27.62 0 1 .13 1.09.43v-.35h.62v-.03Zm-.66 2.64v-1.64a.54.54 0 0 0-.18-.48 1.47 1.47 0 0 0-.77-.14c-.24-.02-.49.02-.71.12a.64.64 0 0 0-.14.22c-.03.08-.04.17-.03.26v1.64c-.01.09 0 .18.03.27.03.09.08.17.15.23.23.09.47.13.72.11.25.02.5-.03.72-.13.11-.06.21-.22.21-.46ZM0 0v32l14.13-2.8V2.8L0 0Zm8.56 21.92H6.44V10h2.12v11.92ZM17.25 2.8v26.4L31.37 32V0L17.25 2.8Zm11 9.05h-3.32v10.06h-2.11V11.85h-3.31V10h8.77l-.03 1.85Z"/></svg>