<svg xmlns="http://www.w3.org/2000/svg" width="106" height="48"><path fill="none" d="m17.1 23.04.03-.02-.03.02Zm4.27-2.01s-.02-.03 0 0Zm-3.79 1.82s.04 0 0 0Zm22.88-8.25c.03-.06 0-.02 0 0Z"/><path fill="#fff" d="M96.36 23.15a66.01 66.01 0 0 0-9.64-.21c-6.42.31-12.85.27-19.27.14-7.01-.24-15.51-.27-22.52-.09-1-2.05-2.71-5.57-3.62-7.38L40.52 14c-.22-.4-.79-.47-1.07-.09-.21.36-.1.24-.14.29-1.11 4.18-2.6 9.52-3.81 13.78a1239.5 1239.5 0 0 1-3.96-17.34c-.04-.22-.08-.5-.34-.61-.18-.08-.4-.03-.55.15-.15.26-.11.26-.11.26l-.04.15-.16.63-4 15.97-2.99-6.21-.28-.58c-.15-.26-.11-.37-.41-.66-.8-.64-1.46.31-2.24.81l-3.06 2.28c-2.57-.09-5.13.51-7.69.59-3.21.1-6.42.11-9.64-.16v-.02H0v1.31c5.65-.58 11.25 0 16.87.45l.61-.02h.11c-.08 0 .22.01.43-.1.33-.19.33-.24.55-.4l3.25-2.62 2.39 4.55 1.64 3.11c.37.78 1.4.51 1.48-.31l3.72-17.1c1.17 4.73 2.92 12.14 3.91 16.41l.14.63.03.1c.19.44.72.27.78-.16 1.22-3.96 2.79-9.09 4.12-13.18l1.14 2.66 2.02 4.73.43 1.02c.13.35.62.58.84.55h.11c7.08.2 15.74.15 22.89-.08 6.42-.13 12.85-.16 19.27.14 3.21.11 6.42.15 9.64-.21 3.21-.31 6.42-.54 9.64-.8-3.21-.26-6.42-.49-9.64-.8Zm-79.23-.13-.03.02c.02 0-.05.03.03-.02Zm.45-.16s.04 0 0 0Zm3.79-1.83s0-.02 0 0Zm19.09-6.43s.03-.06 0 0Z"/></svg>