<svg xmlns="http://www.w3.org/2000/svg" width="88.08" height="88"><defs><clipPath id="a"><path fill="none" d="M0 0h88v88H0z"/></clipPath></defs><g clip-path="url(#a)"><path fill="#f9f9f9" d="M88.08 44.02a43.98 43.98 0 1 1-87.95-.01 43.98 43.98 0 0 1 87.95.01Z"/><path d="m45.6 36.6 8.31-.18c-.2 0-8.8-3.2-8.8-3.2l.49 3.38Zm13.93-8.95c-.13-.07-4.85-5.51-4.85-5.51l-.93 2.51 5.78 3Zm-.11 19.31-1.69 5.03 1.8 1.85-.11-6.88Zm-5.41-.54-3.75 3.09.85 2.54 2.9-5.63Zm10.8-3.81-1.36 6.42 2.77-.82-1.41-5.6Zm13.25-14.14c1.85 1.61 1.56 3.71.94 5.39l3.13-.69a39.5 39.5 0 0 0-3.62-8.62l-2.38 3.17c.65.1 1.42.29 1.93.74Z"/><path d="m63.71 18.48 3.87 8.78-5.51-4.55 1.64-4.23ZM11.25 57.73c.37 0 .67.18 1.01.26l3.94-2.41c.11-3.56 1.58-6.59 3.78-8.3-.14-1.08-.33-2.14-.33-3.26 0-.87.17-1.7.26-2.54l8.84-4.11s-1.52-1.52-4.39-.3c0 0-2.63-.56-2.94 1.53 0 0-.67.16-1.28.57.26-1.28.68-2.49 1.13-3.69l4.98-2.33 10.34-4.71c-3.53-2.59-7.05 1.01-7.05 1.01-2.45-1.74-5.54 1.01-5.54 1.01-.06-.04-.15-.02-.22-.05 4.41-6.62 11.93-11 20.47-11s15.43 4.07 19.9 10.26l3.29 1.38c1.43-.78 4.17-2.29 4.97-2.77a5.1 5.1 0 0 1 3.16-.63l1.55-5.34a39.43 39.43 0 0 0-4.89-6.03l-.45 8.09-3.41-11.55a39.18 39.18 0 0 0-24.12-8.27A39.52 39.52 0 0 0 4.79 44.02c0 5.36 1.09 10.48 3.03 15.15a4.9 4.9 0 0 1 1.29-.95 5.07 5.07 0 0 1 2.14-.49Zm66.91-22-.18.34c-.23.46-.53.86-.84 1.21l6.45 4.22a38.93 38.93 0 0 0-.95-6.25l-3.77-1.05c-.24.59-.51 1.12-.72 1.53Zm-1.05 10.31-5.16-2.16 2.38 5.35h-3.49l.22-5.72-2.36-.99c.03.51.15.99.15 1.51 0 2.31-.42 4.51-1.02 6.63-1.95.73-4.54 2.19-4.77 4.17 0 0-5.72.68-6.17 4.85 0 0-7.01.35-7.57 6.43l13.38-5.98a24.43 24.43 0 0 1-18.44 8.49c-4.3 0-8.3-1.17-11.8-3.14.41-1.62 1.22-5.71-.2-8.93 0 0-1.06 9.82-7.43 9.59-2.82 2.74-7.11 4.46-11.81 1.9a39.39 39.39 0 0 0 31.25 15.45 39.47 39.47 0 0 0 36.98-25.81l-2.06-8.39 3.21 4.74c.53-2.03.94-4.12 1.15-6.26-.25.04-.46.14-.73.14-2.29 0-5-1.46-5.69-1.86Z"/><path d="M46.96 41.57c.61.37 2.71 1.05 4.19 1.51l2-.89-5.17-1.53s-2 .34-1.02.92Zm8.18-2.89-1.04.62-.79 2.82 3.45-1.54-1.62-1.89Z"/><path d="m73.88 31.07-2.89 2.5-1.12-.62 4.01-1.89ZM18.56 58.26l.08.34-.08-.34Zm-3.69 6.77c-.76-.51-1.25-1.55-1.54-2.98l5.94-1.64a7.13 7.13 0 0 0 2.17 2.69 7.87 7.87 0 0 1-3.89 2.23c-1.11.25-2.01.15-2.68-.3Zm2.85-7.3.27.72-4.52 1.79 4.25-2.51Zm3.3-6.39s.69-1.42 1.27.4c0 0-2.69 5.87.39 8.86 0 0-4.07-.92-1.66-9.25Zm-9.98 9.69c-.76-.08-1.82.96-1.82.96-.09-1.18 1.3-1.4 1.3-1.4.75.02.52.44.52.44Zm43.5-28.25-10.42-5.76 11.75 5.16-1.32.6Zm28.68 10.91-9.03-5.89-3.79.92 3.05-1.4s1.9-.58 2.68-2.13c.78-1.55 2.13-3.82.56-5.19-.23-.2-2.09-.64-3.2.03-1.12.67-5.93 3.3-5.93 3.3l-21.1-8.87s-2.52-1.71-4.98-.03c0 0-3.1 1.37.06 2.9 3.16 1.53 19.51 10.22 19.51 10.22l-4.14 2.97 6.3-2.82-11.22 5.65H52l-4.2 1.81a.44.44 0 0 1-.38 0c-.07-.03-.19-.11-.23-.23l-.39-1.95-.13-.3c-.41-.56-.98-.8-1.51-.65-.54.16-.88.66-.91 1.41l.37 15.72-3.12-25.38c-.09-1.29-.95-1.92-1.76-1.93-.76.03-1.52.68-1.52 2.09l.43 19.32-1.66-7.11a1.3 1.3 0 0 0-1.26-1c-.59-.04-1.14.36-1.34 1.11l-.1 2.07v.71c.02 1.37-.33 2.03-2.94 3.11l-1.79.65a7.34 7.34 0 0 0-3.06-4.22c.02-2.52 0-5.23-.1-6.74-.05-.76-1.07-.56-1.18.07a86.48 86.48 0 0 0-.56 6.12c-.16-.02-.29-.12-.45-.12-3.27 0-5.92 3.63-5.92 8.1l.02.22-5.96 3.95a2.49 2.49 0 0 0-2.32-.02c-1.16.56-1.74 1.73-1.3 2.63.45.9 1.75 1.17 2.91.62.15-.07.26-.17.38-.26.3 1.56 1.09 3.05 2.04 3.59 4.33 2.46 8.29-.23 10.69-2.69 3.01-.38 5.37-3.81 5.37-8.03l-.02-.25a16.6 16.6 0 0 1-3.74 1.7c-2.13.45-2.2-1.83-1.14-2.37 0 0-.58 1.76.93 1.66.16-.01.38-.06.62-.13l2.49-.93.82-.35v-.02l2.22-1.01c3.6-1.49 3.57-3.78 3.55-5.3v-.81l1.69 7.99c.21 1.19.96 1.69 1.61 1.64.6-.04 1.27-.53 1.34-1.87l-.51-20.46c0-.25.04-.41.05-.49.06.08.12.23.14.49l3.46 26.33.14.35c.55.75 1.05.96 1.45.96.13 0 .24-.02.34-.05.98-.31.98-1.68.98-2.15l-.66-15.41c.2.3.48.55.82.7.54.25 1.13-.09 1.66-.33l4.12-1.93c.04.06.12.12.31.15.72.13.83-.22.83-.22l4.51 1.49s.93-.08.86-.57c-.07-.49-2.97-1.57-2.97-1.57l5.44-.82 6.3-2.49 10.3 4.32s4.05 2.41 5.88 1.39c0 0 2.44-.35-.71-1.94Z"/><path fill="#f9f9f9" d="M11.81 37.37c.04-.27.14-.47.31-.59.16-.13.36-.17.61-.13.24.04.42.15.53.32.11.17.15.4.1.66l-.29 1.74-1.54-.26.29-1.73Zm3.72.44c.12-.73.1-1.37-.05-1.92a2.6 2.6 0 0 0-.82-1.35 2.89 2.89 0 0 0-1.48-.67 2.9 2.9 0 0 0-1.61.15c-.48.2-.88.54-1.21 1.01a4.51 4.51 0 0 0-.67 1.8l-.77 4.67 8.01 1.34.46-2.76-2.18-.36.32-1.91Zm1.5-8.39-1.64-2.05 2.6.32-.96 1.73Zm-4.39-1.45L18 35.04l1.46-2.6-.92-1.15 1.85-3.3 1.46.18 1.45-2.6-8.83-.85-1.82 3.26Zm13.52-4.66-3.51-4.43 2.69-2.13 3.52 4.43 2.19-1.74L26 13.07l-7.07 5.6 5.05 6.37 2.19-1.74Zm9.2-5.4-3.09-7.52-2.58 1.06 3.08 7.52 2.59-1.06Zm6.14-6a.95.95 0 0 1-.61.29l-1.74.22-.2-1.55 1.74-.23c.27-.04.49 0 .66.12.17.11.27.29.31.55a.76.76 0 0 1-.15.6Zm1.01-3.33a4.44 4.44 0 0 0-1.92-.11l-4.69.62 1.05 8.06 2.78-.36-.29-2.2 1.92-.25c.73-.1 1.34-.29 1.83-.6s.84-.7 1.05-1.18c.21-.47.28-1.01.2-1.61a2.72 2.72 0 0 0-1.93-2.37Zm8.9 2.54.45 2.59-1.94-.42 1.48-2.17Zm-2.84 4.15 3.7.8.26 1.46 2.91.63-1.76-8.7-3.65-.79-5.2 7.19 2.91.63.83-1.22ZM25.97 70.5c.1.05.21.13.3.15.19.05.36.05.5 0a.66.66 0 0 0 .34-.25.65.65 0 0 0 .12-.49c-.02-.19-.1-.37-.24-.56-.13-.2-.32-.38-.57-.56a2.45 2.45 0 0 0-.8-.39 1.16 1.16 0 0 0-1.2.33l.65.46a.52.52 0 0 1 .42-.15c.17.01.35.09.54.23.12.09.22.17.29.26.06.08.11.17.12.25.01.08 0 .15-.06.23a.3.3 0 0 1-.17.12.5.5 0 0 1-.26-.03c-.1-.04-.21-.1-.34-.19l-.47-.35-.32.44.49.35c.22.15.35.28.41.4s.05.22-.02.32c-.08.12-.2.17-.35.15a1.32 1.32 0 0 1-.54-.26 1.3 1.3 0 0 1-.43-.47.5.5 0 0 1 .02-.46l-.66-.47c-.12.19-.18.4-.17.62.01.22.1.45.25.67.15.23.36.44.63.63.28.21.54.34.79.41.25.07.46.09.65.04a.73.73 0 0 0 .45-.32c.1-.14.15-.29.13-.44a.9.9 0 0 0-.23-.47c-.06-.07-.17-.15-.26-.22Zm4.41.8-.59 1.08-1.53-.83.59-1.08-.71-.39-1.54 2.82.71.39.61-1.11 1.53.84-.61 1.12.71.38 1.54-2.82-.71-.39Zm1.7 2.88.99-1 .07 1.4-1.06-.41Zm.73-1.76-2.54 2.46.8.31.5-.5 1.61.61.04.71.8.31-.23-3.53-.98-.38Zm3.52 1.92a1.48 1.48 0 0 1 1.06.21.82.82 0 0 1 .37.71l.77.19a1.4 1.4 0 0 0-.12-.76 1.6 1.6 0 0 0-.51-.6 2.26 2.26 0 0 0-1.83-.41c-.31.07-.56.21-.78.41-.21.21-.35.47-.43.8-.08.32-.07.63.02.9.09.28.26.52.5.73.24.2.54.34.9.43.32.08.63.1.91.05s.53-.16.74-.31c.21-.16.36-.36.46-.62l-.78-.19a.79.79 0 0 1-.26.31.84.84 0 0 1-.39.15c-.16.02-.32 0-.51-.04a1.2 1.2 0 0 1-.53-.26.94.94 0 0 1-.28-.41c-.03-.08 0-.19 0-.28l1.5.37.13-.52-1.51-.37c.04-.08.07-.18.13-.24.12-.13.26-.2.44-.25Zm5.1 2.59-.85-2.51-1.24-.1-.26 3.2.77.07.2-2.48.91 2.57.82.07 1.32-2.39-.2 2.48.77.06.26-3.2-1.24-.1-1.25 2.33Zm6.12-.34a.82.82 0 0 1-.34.35c-.15.09-.34.14-.56.16-.22.02-.41 0-.58-.07a.88.88 0 0 1-.56-.8.91.91 0 0 1 .09-.52.79.79 0 0 1 .35-.35 1.5 1.5 0 0 1 1.14-.09c.17.07.3.16.39.3.1.14.16.3.17.5.02.2-.02.36-.09.52Zm-.11-1.97a2.34 2.34 0 0 0-1.98.15 1.55 1.55 0 0 0-.77 1.53 1.54 1.54 0 0 0 1.01 1.39c.29.11.63.16 1.01.13.37-.03.7-.13.97-.28.27-.16.48-.38.62-.64.14-.27.19-.57.16-.9a1.54 1.54 0 0 0-1.01-1.38Zm5.42 1.41a.5.5 0 0 1-.29.17l-1.23.3-.07-.79 1.04-.26c.16-.04.3-.04.4.02.1.04.17.13.2.25s.02.22-.04.31Zm-.64-1.77c.08.05.13.12.16.21.02.11.01.21-.05.29a.44.44 0 0 1-.26.17l-.94.23-.29-.66 1.07-.27c.12-.03.22-.03.3.02Zm.86.75a.99.99 0 0 0-.34.02c.06-.04.14-.06.18-.1a.78.78 0 0 0 .22-.38.9.9 0 0 0 0-.4.7.7 0 0 0-.38-.49 1.07 1.07 0 0 0-.72-.04l-2.16.54.62 1.46.16 1.66 2.24-.56c.23-.05.41-.14.55-.25a.84.84 0 0 0 .27-.39c.04-.16.04-.32 0-.49a.77.77 0 0 0-.22-.38.82.82 0 0 0-.42-.19Zm3.9-.68a.82.82 0 0 1-.23.34c-.11.1-.26.19-.43.25-.2.08-.39.11-.56.09a.81.81 0 0 1-.46-.19.96.96 0 0 1-.3-.44c-.07-.19-.1-.36-.07-.53.03-.16.1-.31.21-.44.12-.13.28-.23.47-.31.17-.07.34-.1.49-.1s.29.04.4.1a.8.8 0 0 1 .29.29l.76-.29a1.49 1.49 0 0 0-1.3-.81 2.1 2.1 0 0 0-.9.16c-.35.13-.63.32-.83.55-.21.23-.34.49-.4.77-.05.29-.02.59.1.9.12.31.3.56.53.73.23.19.51.29.82.32.31.03.64-.02.98-.16.31-.12.57-.28.77-.49.2-.2.34-.43.42-.68.07-.25.07-.51 0-.78l-.76.29c.03.15.02.29-.03.42Zm2.34-.78-.21-.61 1.61-.86-.29-.53-1.61.85-.39-.52 1.8-.96-.32-.58-2.57 1.37.97 1.3.54 1.53 2.59-1.38-.31-.59-1.82.97Zm2.15-4.18 1.94 2.56.64-.49-1.51-1.99 1.37-1.04 1.52 1.98.64-.49-1.94-2.56-2.66 2.03Zm5.4-2.57-.66.65-.6-.61.66-.65c.11-.1.23-.16.34-.17.11 0 .22.03.32.13.09.1.13.2.13.32-.01.12-.07.22-.19.33Zm.13-1.52a1.06 1.06 0 0 0-.58.04c-.2.07-.4.19-.58.37l-1.27 1.25 2.24 2.29.58-.56-.73-.75.7-.68c.19-.18.32-.37.39-.57a.97.97 0 0 0-.24-1.09 1.03 1.03 0 0 0-.51-.3Zm3.18-.58c-.14.17-.28.3-.44.37a.93.93 0 0 1-.49.09 1.01 1.01 0 0 1-.48-.21 1 1 0 0 1-.32-.43.82.82 0 0 1-.02-.49c.04-.17.13-.34.27-.52.14-.17.28-.3.44-.38.16-.08.32-.1.49-.08a1.05 1.05 0 0 1 .8.63c.06.16.07.32.02.49a1.3 1.3 0 0 1-.27.52Zm.44-2.08c-.26-.2-.54-.33-.84-.35-.3-.03-.59.02-.87.15-.29.13-.55.35-.78.64-.23.29-.38.6-.45.91a1.54 1.54 0 0 0 .59 1.61 1.57 1.57 0 0 0 1.7.21c.29-.14.55-.35.78-.65.23-.29.39-.59.45-.9.07-.31.05-.6-.04-.88-.1-.28-.28-.53-.54-.74Zm1.04-3.59a.5.5 0 0 1 .28-.26.46.46 0 0 1 .34.04c.12.06.19.16.21.27.02.11 0 .24-.08.37l-.45.81-.75-.42.45-.81Zm1.34.7c.13-.23.2-.45.22-.65.01-.21-.03-.4-.12-.57a.98.98 0 0 0-.42-.41 1.02 1.02 0 0 0-.57-.15.93.93 0 0 0-.55.2c-.17.12-.32.29-.45.52l-.87 1.55 2.8 1.56.4-.7-.91-.51.47-.84Zm1.61-2.37-.56-.35.71-1.68-.55-.23-.71 1.68-.63-.15.79-1.89-.61-.26-1.13 2.69 1.58.39 1.38.85 1.14-2.7-.61-.26-.8 1.9Zm.87-4.67a.5.5 0 0 1 .2-.3c.1-.05.2-.07.32-.04.12.03.21.1.25.21.05.1.05.22.01.35l-.31 1.06-.74-.34.27-.94Zm1.22-.83a1.1 1.1 0 0 0-1-.29.92.92 0 0 0-.44.28 1.3 1.3 0 0 0-.3.59l-.3 1.04-.62-.08.58-2.02-.6-.17-.82 2.85 1.55.19 1.54.7.57-1.97c.07-.23.08-.45.05-.64a.96.96 0 0 0-.22-.48Zm-65.04-5.54a1.15 1.15 0 1 0 0 2.3 1.15 1.15 0 0 0 0-2.3Zm48.11-29.64a1.15 1.15 0 1 0 0-2.3 1.15 1.15 0 0 0 0 2.3Z"/></g></svg>