<svg xmlns="http://www.w3.org/2000/svg" xmlns:xlink="http://www.w3.org/1999/xlink" style="display:none"><symbol id="arrow-left"><path d="M22 3.46H1.85L4.38.93a.55.55 0 000-.77.55.55 0 00-.77 0L.16 3.62a.55.55 0 000 .77l3.46 3.46c.21.21.56.21.77 0a.55.55 0 000-.77L1.86 4.55h20.15V3.46z"/></symbol><symbol id="arrow-right"><path d="M0 4.54h20.15l-2.53 2.53a.55.55 0 000 .77c.21.21.56.21.77 0l3.46-3.46a.55.55 0 000-.77L18.38.16a.55.55 0 00-.77 0 .55.55 0 000 .77l2.53 2.53H0v1.09z"/></symbol><symbol id="facebook"><path d="M14.33 6.16a6.915 6.915 0 014.85-1.99H23c.28 0 .5.22.5.5v5.04c0 .28-.22.5-.5.5h-3.82c-.21 0-.4.08-.55.22-.14.14-.22.34-.22.53v2.02H23c.15 0 .3.07.39.19.09.12.13.28.09.43l-1.27 5.04a.51.51 0 01-.48.38h-3.32v8.31c0 .28-.22.5-.5.5h-5.09c-.28 0-.5-.22-.5-.5v-8.31H9c-.28 0-.5-.22-.5-.5v-5.04c0-.28.22-.5.5-.5h3.32v-2.02c0-1.8.72-3.53 2.01-4.81zm4.85-.99c-1.56 0-3.05.61-4.15 1.7a5.767 5.767 0 00-1.72 4.1v2.52c0 .28-.22.5-.5.5H9.49v4.04h3.32c.28 0 .5.22.5.5v8.31h4.09v-8.31c0-.28.22-.5.5-.5h3.43l1.02-4.04H17.9c-.28 0-.5-.22-.5-.5v-2.52a1.762 1.762 0 011.77-1.76h3.32V5.17h-3.32z" fill-rule="evenodd"/></symbol><symbol id="menu-right" viewBox="0 0 24 24"><path d="M20.69 11.28L13.95 4.8c-.41-.4-1.08-.4-1.5 0a.997.997 0 000 1.44l4.93 4.74H3v2.04h14.39l-4.93 4.74a.997.997 0 000 1.44c.41.4 1.08.4 1.5 0l6.74-6.48c.41-.4.41-1.04 0-1.44z"/></symbol><symbol id="menu"><path d="M0 0h24v2H0zM0 8h24v2H0zM0 16h24v2H0z"/></symbol><symbol id="telegram"><path d="M27.31 5.85c.15.14.22.35.17.54l-4.87 19.47c-.05.19-.19.34-.39.39-.19.05-.39 0-.53-.14l-5.64-5.64-3.27 4.36c-.12.16-.32.24-.53.21a.528.528 0 01-.43-.37l-2.36-7.09-4.66-2.33c-.19-.1-.31-.3-.3-.52.01-.22.15-.41.35-.48l21.9-8.5c.19-.07.41-.04.56.1zM16.39 19.27l-.01-.01-.82-.82 4.48-4.48a.55.55 0 000-.77.55.55 0 00-.77 0l-4.87 4.87a.552.552 0 000 .78l.88.88-2.74 3.65-2.1-6.31a.57.57 0 00-.27-.32l-3.76-1.88 19.77-7.69-4.38 17.51-5.39-5.39z" fill-rule="evenodd"/></symbol><symbol id="viber"><path d="M18.5 2.87h-5c-5.24 0-9.5 4.26-9.5 9.5v4.51c0 3.9 2.4 7.4 6 8.83v2.92c0 .2.12.38.3.46.07.03.13.04.2.04.12 0 .24-.04.34-.13l2.9-2.63h4.77c5.24 0 9.5-4.26 9.5-9.5v-4.51c0-5.24-4.26-9.5-9.5-9.5zm8.5 14c0 4.69-3.81 8.5-8.5 8.5h-4.96c-.12 0-.24.05-.34.13l-2.21 2v-2.14c0-.21-.13-.4-.33-.47a8.517 8.517 0 01-5.67-8.01v-4.51c0-4.69 3.81-8.5 8.5-8.5h5c4.69 0 8.5 3.81 8.5 8.5v4.51z"/><path d="M22.61 18.12l-3.07-2a1.505 1.505 0 00-2.08.44l-.14.22c-1.33-.44-2.8-1-3.67-3.54l.36-.32c.62-.54.69-1.49.15-2.12l-2.4-2.77a.505.505 0 00-.71-.05L9.54 9.29c-1.32 1.15-.71 2.85-.5 3.41 0 .02.02.05.03.07.05.09 1.31 2.33 3.33 4.39 2.03 2.07 5.7 3.98 5.81 4.04.42.27.89.4 1.36.4.82 0 1.62-.4 2.1-1.14l1.09-1.68a.5.5 0 00-.15-.69zm-1.78 1.82c-.45.69-1.38.89-2.12.42-.04-.02-3.68-1.92-5.6-3.88-1.8-1.83-2.99-3.86-3.15-4.15-.4-1.11-.33-1.79.23-2.28l1.13-.98 2.08 2.39c.18.21.16.52-.05.71l-.61.53c-.15.13-.21.34-.15.52 1.05 3.4 3.08 4.07 4.57 4.55l.22.07c.22.07.45-.01.58-.2l.35-.55c.07-.11.18-.19.32-.22.13-.03.26 0 .38.07l2.65 1.72-.82 1.26zM17.14 10.99a.501.501 0 00-.28.96c.74.21 1.34.81 1.55 1.55.06.22.26.36.48.36.05 0 .09 0 .14-.02.27-.07.42-.35.35-.62a3.24 3.24 0 00-2.24-2.24z"/><path d="M20.95 13.98s.09 0 .14-.02c.27-.08.42-.35.35-.62a6.33 6.33 0 00-4.34-4.35.501.501 0 00-.28.96c1.76.5 3.16 1.9 3.66 3.66.06.22.26.36.48.36z"/><path d="M16.87 6.66a.501.501 0 00-.28.96c2.98.85 5.35 3.23 6.19 6.21.06.22.26.36.48.36.05 0 .09 0 .14-.02.27-.08.42-.35.35-.62-.93-3.31-3.57-5.96-6.88-6.9z"/></symbol><symbol id="whatsapp"><path d="M23.47 7.25c-2.13-1.82-4.85-2.8-7.65-2.75-2.8.05-5.49 1.11-7.56 3a11.47 11.47 0 00-3.68 7.25c-.3 2.78.42 5.58 2.03 7.87.1.14.12.33.05.49l-1.83 4.21 5.82-1.04c.1-.02.21 0 .31.04a11.519 11.519 0 0014.68-4.02c1.54-2.34 2.17-5.16 1.77-7.94a11.5 11.5 0 00-3.92-7.12zM15.8 3.5a12.5 12.5 0 0112.58 10.73A12.499 12.499 0 0110.66 27.3l-6.57 1.17a.511.511 0 01-.48-.18.518.518 0 01-.07-.51l2.09-4.81A12.493 12.493 0 017.59 6.76 12.5 12.5 0 0115.8 3.5z" fill-rule="evenodd"/><path d="M11.84 11.15c.22-.22.52-.34.83-.34s.61.12.82.34c.22.22.34.52.34.82v1.33c0 .31-.12.61-.34.82-.22.22-.52.34-.82.34h-.06c.23 1.2.82 2.32 1.7 3.2s1.99 1.46 3.2 1.7v-.06c0-.31.12-.61.34-.82.22-.22.52-.34.83-.34h1.33c.31 0 .61.12.83.34s.34.52.34.82-.12.61-.34.82-.52.34-.83.34h-1.33c-1.9 0-3.72-.76-5.07-2.1s-2.1-3.17-2.1-5.07v-1.33c0-.31.12-.61.34-.82zm6.83 8.32H20s.09-.02.12-.05.05-.07.05-.12-.02-.09-.05-.12a.166.166 0 00-.12-.05h-1.33s-.09.02-.12.05c-.03.03-.05.07-.05.12s.02.09.05.12c.03.03.07.05.12.05zM12.5 13.3s.02.09.05.12c.03.03.07.05.12.05s.09-.02.12-.05c.03-.03.05-.07.05-.12v-1.33s-.02-.09-.05-.12c-.03-.03-.07-.05-.12-.05s-.09.02-.12.05c-.03.03-.05.07-.05.12v1.33z" fill-rule="evenodd"/></symbol><symbol id="youtube"><path d="M27.84 5.67c-.29-.11-.8-.19-1.4-.25-.65-.07-1.48-.14-2.43-.19-1.91-.11-4.33-.18-6.85-.2-5.02-.04-10.5.13-13 .65h-.03c-.72.19-1.38.57-1.9 1.1-.53.53-.91 1.18-1.1 1.9v.02c-.4 1.77-.62 4.53-.62 7.27 0 2.74.2 5.52.64 7.34s0 .01 0 .01c.19.72.57 1.38 1.1 1.9s1.18.91 1.9 1.1h.02c.91.21 2.62.37 4.68.47 2.08.11 4.57.17 7.06.18 2.49 0 4.99-.04 7.1-.14 2.09-.1 3.85-.27 4.81-.51.72-.19 1.38-.57 1.9-1.1s.91-1.18 1.1-1.9v-.02c.43-1.92.65-4.64.66-7.33 0-2.69-.21-5.4-.68-7.3-.19-.72-.57-1.38-1.1-1.9-.52-.52-1.17-.9-1.88-1.09zm-23.46.98A3.266 3.266 0 002.1 8.94c-.38 1.67-.59 4.34-.59 7.04 0 2.71.2 5.4.61 7.09.15.55.44 1.05.84 1.45.4.4.9.69 1.45.84.81.19 2.43.34 4.5.45 2.06.11 4.53.17 7.01.17 2.48 0 4.96-.04 7.05-.14 2.1-.1 3.76-.26 4.62-.48.55-.15 1.05-.44 1.45-.84.4-.4.69-.9.84-1.45.41-1.82.63-4.46.63-7.1 0-2.65-.21-5.27-.65-7.05-.15-.55-.44-1.05-.84-1.45-.4-.4-.91-.69-1.46-.84-.02 0-.03-.01-.05-.02-.15-.06-.53-.13-1.18-.2-.62-.07-1.43-.13-2.37-.19-1.89-.11-4.29-.18-6.8-.2-5.03-.04-10.39.14-12.77.63z" fill-rule="evenodd"/><path d="M12.84 11.07c.15-.09.34-.09.5 0l7.84 4.49c.16.09.25.25.25.43s-.1.34-.25.43l-7.84 4.49c-.15.09-.34.09-.5 0a.504.504 0 01-.25-.43v-8.99c0-.18.1-.34.25-.43zm.75 1.3v7.26L19.92 16l-6.33-3.63z" fill-rule="evenodd"/></symbol></svg>