<svg xmlns="http://www.w3.org/2000/svg" width="32" height="32" viewBox="0 0 32 32"><path d="m14.33,6.16c1.29-1.27,3.03-1.99,4.85-1.99h3.82c.28,0,.5.22.5.5v5.04c0,.28-.22.5-.5.5h-3.82c-.21,0-.4.08-.55.22-.14.14-.22.34-.22.53v2.02h4.59c.15,0,.3.07.39.19.09.12.13.28.09.43l-1.27,5.04c-.06.22-.26.38-.48.38h-3.32v8.31c0,.28-.22.5-.5.5h-5.09c-.28,0-.5-.22-.5-.5v-8.31h-3.32c-.28,0-.5-.22-.5-.5v-5.04c0-.28.22-.5.5-.5h3.32v-2.02c0-1.8.72-3.53,2.01-4.81Zm4.85-.99c-1.56,0-3.05.61-4.15,1.7-1.1,1.09-1.72,2.56-1.72,4.1v2.52c0,.28-.22.5-.5.5h-3.32v4.04h3.32c.28,0,.5.22.5.5v8.31h4.09v-8.31c0-.28.22-.5.5-.5h3.43l1.02-4.04h-4.45c-.28,0-.5-.22-.5-.5v-2.52c0-.47.19-.92.52-1.25.33-.33.78-.51,1.25-.51h3.32v-4.04h-3.32Z" fill-rule="evenodd"/></svg>