<svg xmlns="http://www.w3.org/2000/svg" width="32" height="32" viewBox="0 0 32 32"><path d="m10.48,5.42c-1.34,0-2.63.53-3.58,1.48s-1.48,2.24-1.48,3.58v11.04c0,1.34.53,2.63,1.48,3.58.95.95,2.24,1.48,3.58,1.48h11.04c1.34,0,2.63-.53,3.58-1.48.95-.95,1.48-2.24,1.48-3.58v-11.04c0-1.34-.53-2.63-1.48-3.58-.95-.95-2.24-1.48-3.58-1.48h-11.04Zm-4.23.83c1.12-1.12,2.64-1.75,4.23-1.75h11.04c1.59,0,3.11.63,4.23,1.75,1.12,1.12,1.75,2.64,1.75,4.23v11.04c0,1.59-.63,3.11-1.75,4.23-1.12,1.12-2.64,1.75-4.23,1.75h-11.04c-1.59,0-3.11-.63-4.23-1.75-1.12-1.12-1.75-2.64-1.75-4.23v-11.04c0-1.59.63-3.11,1.75-4.23Z" fill-rule="evenodd"/><path d="m12.75,12.75c.86-.86,2.03-1.35,3.25-1.35s2.39.48,3.25,1.35c.86.86,1.35,2.03,1.35,3.25s-.48,2.39-1.35,3.25c-.86.86-2.03,1.35-3.25,1.35s-2.39-.48-3.25-1.35c-.86-.86-1.35-2.03-1.35-3.25s.48-2.39,1.35-3.25Zm3.25-.43c-.98,0-1.91.39-2.6,1.08s-1.08,1.63-1.08,2.6.39,1.91,1.08,2.6c.69.69,1.63,1.08,2.6,1.08s1.91-.39,2.6-1.08,1.08-1.63,1.08-2.6-.39-1.91-1.08-2.6c-.69-.69-1.63-1.08-2.6-1.08Z" fill-rule="evenodd"/><path d="m22.21,8.87c.51,0,.92.41.92.92h0c0,.52-.41.93-.92.93s-.92-.41-.92-.92h0c0-.52.41-.93.92-.93Z" fill-rule="evenodd"/></svg>