<svg xmlns="http://www.w3.org/2000/svg" width="32" height="32" viewBox="0 0 32 32"><path d="m27.31,5.85c.15.14.22.35.17.54l-4.87,19.47c-.05.19-.19.34-.39.39-.19.05-.39,0-.53-.14l-5.64-5.64-3.27,4.36c-.12.16-.32.24-.53.21-.2-.03-.37-.17-.43-.37l-2.36-7.09-4.66-2.33c-.19-.1-.31-.3-.3-.52.01-.22.15-.41.35-.48L26.75,5.75c.19-.07.41-.04.56.1Zm-10.92,13.42s0,0-.01-.01l-.82-.82,4.48-4.48c.21-.21.21-.56,0-.77-.21-.21-.56-.21-.77,0l-4.87,4.87c-.1.1-.16.24-.16.39s.06.28.16.39l.88.88-2.74,3.65-2.1-6.31c-.05-.14-.14-.25-.27-.32l-3.76-1.88,19.77-7.69-4.38,17.51-5.39-5.39Z" fill-rule="evenodd"/></svg>