<svg xmlns="http://www.w3.org/2000/svg" width="32" height="32" viewBox="0 0 32 32"><path d="m18.5,2.87h-5c-5.24,0-9.5,4.26-9.5,9.5v4.51c0,3.9,2.4,7.4,6,8.83v2.92c0,.2.12.38.3.46.07.03.13.04.2.04.12,0,.24-.04.34-.13l2.9-2.63h4.77c5.24,0,9.5-4.26,9.5-9.5v-4.51c0-5.24-4.26-9.5-9.5-9.5Zm8.5,14c0,4.69-3.81,8.5-8.5,8.5h-4.96c-.12,0-.24.05-.34.13l-2.21,2v-2.14c0-.21-.13-.4-.33-.47-3.39-1.2-5.67-4.42-5.67-8.01v-4.51c0-4.69,3.81-8.5,8.5-8.5h5c4.69,0,8.5,3.81,8.5,8.5v4.51Z"/><path d="m22.61,18.12l-3.07-2c-.34-.22-.74-.29-1.13-.21-.39.08-.73.31-.95.65l-.14.22c-1.33-.44-2.8-1-3.67-3.54l.36-.32c.62-.54.69-1.49.15-2.12l-2.4-2.77c-.18-.21-.5-.23-.71-.05l-1.51,1.31c-1.32,1.15-.71,2.85-.5,3.41,0,.02.02.05.03.07.05.09,1.31,2.33,3.33,4.39,2.03,2.07,5.7,3.98,5.81,4.04.42.27.89.4,1.36.4.82,0,1.62-.4,2.1-1.14l1.09-1.68c.15-.23.08-.54-.15-.69Zm-1.78,1.82c-.45.69-1.38.89-2.12.42-.04-.02-3.68-1.92-5.6-3.88-1.8-1.83-2.99-3.86-3.15-4.15-.4-1.11-.33-1.79.23-2.28l1.13-.98,2.08,2.39c.18.21.16.52-.05.71l-.61.53c-.15.13-.21.34-.15.52,1.05,3.4,3.08,4.07,4.57,4.55l.22.07c.22.07.45-.01.58-.2l.35-.55c.07-.11.18-.19.32-.22.13-.03.26,0,.38.07l2.65,1.72-.82,1.26Z"/><path d="m17.14,10.99c-.27-.08-.54.08-.62.34-.08.27.08.54.34.62.74.21,1.34.81,1.55,1.55.06.22.26.36.48.36.05,0,.09,0,.14-.02.27-.07.42-.35.35-.62-.3-1.08-1.16-1.94-2.24-2.24Z"/><path d="m20.95,13.98s.09,0,.14-.02c.27-.08.42-.35.35-.62-.59-2.09-2.25-3.76-4.34-4.35-.27-.08-.54.08-.62.34-.08.27.08.54.34.62,1.76.5,3.16,1.9,3.66,3.66.06.22.26.36.48.36Z"/><path d="m16.87,6.66c-.27-.08-.54.08-.62.34-.08.27.08.54.34.62,2.98.85,5.35,3.23,6.19,6.21.06.22.26.36.48.36.05,0,.09,0,.14-.02.27-.08.42-.35.35-.62-.93-3.31-3.57-5.96-6.88-6.9Z"/></svg>