<svg xmlns="http://www.w3.org/2000/svg" width="32" height="32" viewBox="0 0 32 32"><path d="m23.47,7.25c-2.13-1.82-4.85-2.8-7.65-2.75-2.8.05-5.49,1.11-7.56,3-2.07,1.89-3.38,4.46-3.68,7.25-.3,2.78.42,5.58,2.03,7.87.1.14.12.33.05.49l-1.83,4.21,5.82-1.04c.1-.02.21,0,.31.04,2.52,1.23,5.39,1.5,8.1.76,2.7-.74,5.04-2.44,6.58-4.78,1.54-2.34,2.17-5.16,1.77-7.94-.4-2.77-1.79-5.31-3.92-7.12Zm-7.67-3.75c3.04-.05,6,1.01,8.32,2.99,2.32,1.98,3.83,4.73,4.26,7.74.43,3.01-.25,6.08-1.92,8.63-1.67,2.55-4.21,4.39-7.15,5.2-2.88.79-5.95.52-8.65-.76l-6.57,1.17c-.18.03-.37-.04-.48-.18-.11-.14-.14-.34-.07-.51l2.09-4.81c-1.64-2.44-2.37-5.39-2.05-8.33.33-3.03,1.76-5.83,4.01-7.88,2.25-2.05,5.17-3.21,8.21-3.26Z" fill-rule="evenodd"/><path d="m11.84,11.15c.22-.22.52-.34.83-.34s.61.12.82.34c.22.22.34.52.34.82v1.33c0,.31-.12.61-.34.82-.22.22-.52.34-.82.34-.02,0-.04,0-.06,0,.23,1.2.82,2.32,1.7,3.2s1.99,1.46,3.2,1.7c0-.02,0-.04,0-.06,0-.31.12-.61.34-.82.22-.22.52-.34.83-.34h1.33c.31,0,.61.12.83.34s.34.52.34.82-.12.61-.34.82-.52.34-.83.34h-1.33c-1.9,0-3.72-.76-5.07-2.1s-2.1-3.17-2.1-5.07v-1.33c0-.31.12-.61.34-.82Zm6.83,8.32h1.33s.09-.02.12-.05.05-.07.05-.12-.02-.09-.05-.12c-.03-.03-.07-.05-.12-.05h-1.33s-.09.02-.12.05c-.03.03-.05.07-.05.12s.02.09.05.12c.03.03.07.05.12.05Zm-6.17-6.17s.02.09.05.12c.03.03.07.05.12.05s.09-.02.12-.05c.03-.03.05-.07.05-.12v-1.33s-.02-.09-.05-.12c-.03-.03-.07-.05-.12-.05s-.09.02-.12.05c-.03.03-.05.07-.05.12v1.33Z" fill-rule="evenodd"/></svg>