<svg xmlns="http://www.w3.org/2000/svg" width="32" height="32" viewBox="0 0 32 32"><path d="m27.84,5.67c-.29-.11-.8-.19-1.4-.25-.65-.07-1.48-.14-2.43-.19-1.91-.11-4.33-.18-6.85-.2-5.02-.04-10.5.13-13,.65,0,0-.02,0-.03,0-.72.19-1.38.57-1.9,1.1-.53.53-.91,1.18-1.1,1.9,0,0,0,.01,0,.02-.4,1.77-.62,4.53-.62,7.27,0,2.74.2,5.52.64,7.34h0s0,.01,0,.01c.19.72.57,1.38,1.1,1.9s1.18.91,1.9,1.1c0,0,.01,0,.02,0,.91.21,2.62.37,4.68.47,2.08.11,4.57.17,7.06.18,2.49,0,4.99-.04,7.1-.14,2.09-.1,3.85-.27,4.81-.51h0s0,0,0,0c.72-.19,1.38-.57,1.9-1.1s.91-1.18,1.1-1.9c0,0,0-.01,0-.02.43-1.92.65-4.64.66-7.33,0-2.69-.21-5.4-.68-7.3h0s0,0,0,0c-.19-.72-.57-1.38-1.1-1.9-.52-.52-1.17-.9-1.88-1.09Zm-23.46.98c-.55.15-1.04.44-1.44.84-.4.4-.69.9-.84,1.45-.38,1.67-.59,4.34-.59,7.04,0,2.71.2,5.4.61,7.09.15.55.44,1.05.84,1.45.4.4.9.69,1.45.84.81.19,2.43.34,4.5.45,2.06.11,4.53.17,7.01.17,2.48,0,4.96-.04,7.05-.14,2.1-.1,3.76-.26,4.62-.48.55-.15,1.05-.44,1.45-.84.4-.4.69-.9.84-1.45.41-1.82.63-4.46.63-7.1,0-2.65-.21-5.27-.65-7.05-.15-.55-.44-1.05-.84-1.45-.4-.4-.91-.69-1.46-.84-.02,0-.03-.01-.05-.02-.15-.06-.53-.13-1.18-.2-.62-.07-1.43-.13-2.37-.19-1.89-.11-4.29-.18-6.8-.2-5.03-.04-10.39.14-12.77.63Z" fill-rule="evenodd"/><path d="m12.84,11.07c.15-.09.34-.09.5,0l7.84,4.49c.16.09.25.25.25.43s-.1.34-.25.43l-7.84,4.49c-.15.09-.34.09-.5,0-.15-.09-.25-.25-.25-.43v-8.99c0-.18.1-.34.25-.43Zm.75,1.3v7.26l6.33-3.63-6.33-3.63Z" fill-rule="evenodd"/></svg>