<svg xmlns="http://www.w3.org/2000/svg" width="384" height="60"><path fill="none" d="M16.18 36.92h-.63c2.33 1.93 5.45 3.96 7.99 3.68 1.46-.16 2.61-1.07 3.53-2.78.65-1.2 1.26-2.54 1.87-4.05H18.26v.95c0 1.22-.94 2.21-2.09 2.21Z"/><path fill="none" d="m31.6 27.75-.03.1a91.02 91.02 0 0 1-2.01 5.75l-.01.03-.05.13a41.62 41.62 0 0 1-1.97 4.29c-1.01 1.87-2.29 2.87-3.92 3.04-2.88.3-6.38-2.09-8.82-4.18l-.07-.06a39.81 39.81 0 0 1-2.43-2.28c-.28-.28-.53-.56-.77-.81H9.66l-.17.16c.36.43 1.37 1.59 2.78 2.94l.03.03.54.51.1.1c2.88 2.64 7.1 5.72 10.83 5.31 2.14-.23 3.86-1.54 5.12-3.88a46.47 46.47 0 0 0 2.45-5.48l.55-1.5.63-1.85.77-2.37.05-.16.62-1.98c2.08-6.67 4.04-12.96 7.61-14.21 3.37-1.18 6.4-.44 8.38.41.35-.19.72-.36 1.09-.51l.14-.05c.25-.1.5-.18.75-.26l.11-.04c-1.97-1.13-6.12-2.88-10.96-1.19-4.33 1.51-6.31 7.89-8.62 15.29l-.79 2.51-.07.23Z"/><path fill="none" d="M29.15 33.26a33.95 33.95 0 0 0 .43-1.13l.45-1.25.21-.6.28-.81.27-.82.2-.62H18.28v5.24h10.88Zm-17.7-2.62 1.06 3.12.17.5c.37.38.75.76 1.14 1.12l.04.03 1.11 1h1.21c.88 0 1.59-.77 1.59-1.71v-8.14c0-.94-.71-1.71-1.59-1.71h-2.77l-.91 2.66-1.06 3.12Zm-2.62 0-1.21-1.77-2.72-4H2.08c-.88 0-1.59.77-1.59 1.71v8.14c0 .94.71 1.71 1.59 1.71H4.9l2.9-4.27 1.02-1.51ZM49.4 12.08a10.89 10.89 0 0 0-7.68-.26c-3.33 1.16-5.26 7.34-7.29 13.88l-.57 1.82h6.25a44.86 44.86 0 0 1 3.03-8.01c1.76-3.48 3.87-5.97 6.27-7.43ZM67 33.76l1.04 1.41h3.95a28.3 28.3 0 0 0 .53-4.56 24.82 24.82 0 0 0-.27-4.44h-4.23l-3.32 4.5 2.3 3.09Zm-43.19 9.53a5.8 5.8 0 0 1-.72.04c-3.12 0-6.45-2.07-9.08-4.24 1.99 2.71 4.87 5.16 8.62 7.31a37.25 37.25 0 0 0 8.71 3.49 5.52 5.52 0 0 0 4.06-2.06c.37-.41.76-1.11 1.14-2.03.43-1.07.72-2.23.85-3.46a108.02 108.02 0 0 1 1.27-8.56h-6.93a46.23 46.23 0 0 1-2.41 5.38c-1.34 2.5-3.2 3.9-5.51 4.15Z"/><path fill="none" d="M63.57 28.18c-.06.8-.15 1.61-.26 2.42v.05c-.12.81-.26 1.62-.43 2.43l-.03.18h3.18l-1.93-2.59 1.95-2.64H63.6l-.02.16Zm-3.89 14.05c.14.88.45 1.56.91 2.03.82.83 2.24 1.04 4.22.61 4.38-.96 6.27-5.46 7.09-9.2h-4.1l-1.42-1.91h-3.66a34.19 34.19 0 0 1-3.04 8.46Zm-20.93-8.97c.37-1.9.77-3.62 1.21-5.24H33.7l-.04.14-.55 1.71-.23.69-.19.56-.3.86-.21.58-.25.7h6.83Zm-27.02 0h.08l-.89-2.62.89-2.61H7.66l1.78 2.61-1.42 2.1-.36.52h4.07zm63.1-7.37c.08.61.15 1.24.2 1.87.07.98.09 1.97.07 2.93a31.73 31.73 0 0 1-.52 4.78c-.06.31-.12.63-.2.95l296.78-5.77-296.48-5.76.16 1.01Z"/><path fill="none" d="M59.19 42.08a33.28 33.28 0 0 0 3.08-8.6v-.02c.43-1.9.7-3.82.83-5.7v-.02c.26-3.92-.12-7.59-1.13-10.91-.46-1.52-1.16-3-2.01-4.28A37.16 37.16 0 0 1 54.75.52l-1.57.3a40.18 40.18 0 0 0 3.02 9.76.4.4 0 0 1-.04.42.4.4 0 0 1-.38.16 8.87 8.87 0 0 0-5.69 1.1c-2.49 1.37-4.68 3.88-6.5 7.48a45.1 45.1 0 0 0-3.05 8.11 73.04 73.04 0 0 0-1.33 5.72c-.26 1.36-.52 2.84-.78 4.52-.19 1.33-.37 2.74-.54 4.29a13.3 13.3 0 0 1-.89 3.59 7.73 7.73 0 0 1-1.22 2.17 5.98 5.98 0 0 1-4.43 2.23h-.04l-.09-.01c-3.02-.78-6.08-2-8.83-3.54-4.51-2.59-7.82-5.61-9.82-9l-.99-.94-.22-.22-.31-.31-.33-.34-.18-.18-.45-.48-.14-.16-.26-.28-.14-.16-.17-.2a1.27 1.27 0 0 1-.11-.13l.15.82c.99 4.56 3.9 8.15 6.17 10.35 3.1 3 6.88 5.39 11.23 7.11 4.87 1.88 14.26 4.34 22.62-.18l.15-.09a24.28 24.28 0 0 0 8.19-7.96c.5-.77.97-1.58 1.41-2.41Zm-10.56 6.74a18.72 18.72 0 0 1-9.91 2.55c-.59 0-1.19-.02-1.8-.06-.16 0-.3-.12-.35-.27a.42.42 0 0 1 .11-.45 9.82 9.82 0 0 0 2.15-2.89 14.77 14.77 0 0 0 1.45-4.89c.46-3.5.98-6.57 1.58-9.36l.02-.09v-.02a74.88 74.88 0 0 1 1.47-5.68l.04-.14c1.04-3.4 2.27-6.2 3.76-8.55 2.85-4.5 6.6-6.37 10.56-5.26.1.03.19.1.24.19.18.3.35.61.51.92.62 1.26 1.1 2.73 1.41 4.36.47 2.65.57 5.46.3 8.35l-.03.27a36.34 36.34 0 0 1-1.08 5.78l-.05.18c-1.9 6.77-5.6 12.12-10.41 15.05Z"/><path fill="none" d="M73.82 36.61a32.73 32.73 0 0 0 .75-5.41l.02-.53a31.01 31.01 0 0 0-.26-4.72c-.06-.42-.12-.85-.21-1.28-.17-.91-.39-1.78-.64-2.59-1.42-4.52-4.17-7.59-7.95-8.92l-.47 1.63c5.11 1.8 6.97 6.85 7.62 10.88l.03.21a28.1 28.1 0 0 1 .3 4.73 27.24 27.24 0 0 1-.57 4.85l-.04.2c-.84 3.9-2.82 8.66-7.5 9.69-2.15.47-3.73.22-4.68-.74-.42-.43-.73-1-.92-1.7l-.13.21c-.26.45-.52.9-.79 1.33l-.11.18c.23.46.52.86.86 1.21 1.34 1.37 3.39 1.77 6.07 1.18 3.58-.78 6.31-3.54 7.89-7.97.27-.77.51-1.59.71-2.43v-.02Zm-33.04 6.27a16.42 16.42 0 0 1-1.49 5.04 10.33 10.33 0 0 1-2.11 2.9c4.35.26 8.12-.56 11.2-2.43 4.68-2.85 8.27-8.04 10.15-14.63h-16.2a113.5 113.5 0 0 0-1.53 9.12ZM59.4 19.27c-.3-1.58-.76-3.01-1.37-4.22-.15-.29-.31-.57-.48-.86-5.01-1.38-8.39 2.58-9.97 5.06a33.72 33.72 0 0 0-3.66 8.28h15.77c.27-2.86.18-5.64-.29-8.26Zm-7.88 32.54-.19.14c-.28 1.12-.4 2.21-.37 3.24.05 1.37.56 3.12 1.83 4.1l.46-.87c-1.63-1.54-1.24-4.21-.99-5.32.2-.82.47-1.64.81-2.47l-.2.15c-.44.36-.89.7-1.35 1.02Zm8.1-23.59.02-.19H43.77a35.22 35.22 0 0 0-.33 1.13l-.22.83-.12.45-.35 1.4-.08.35-.25 1.08h16.24l.04-.15a32.11 32.11 0 0 0 .92-4.89Z"/><path fill="#ffd600" d="M384 30.4 74.57 24.38c-.17-.85-.37-1.68-.61-2.45-1.5-4.77-4.45-8-8.52-9.33l-.25-.08-.74 2.59.23.08c5.01 1.64 6.85 6.54 7.5 10.49h-4.41l-1.37 1.85h-2.79c.23-3.88-.16-7.53-1.16-10.85a17.31 17.31 0 0 0-2.07-4.41A36.6 36.6 0 0 1 55.22.31c-.05-.21-.25-.35-.46-.3L53 .35a.42.42 0 0 0-.32.47 41.11 41.11 0 0 0 3 9.83 9.29 9.29 0 0 0-2.93.11c-1.8-1.13-6.38-3.4-11.82-1.5-4.56 1.59-6.59 8.09-8.93 15.61l-.84 2.66H18.29v-.96c0-1.22-.94-2.21-2.09-2.21h-3.13l-1.08 3.16H7.33l-2.15-3.16H2.1c-1.15 0-2.09.99-2.09 2.21v8.14c0 1.22.94 2.21 2.09 2.21h3.08l2.15-3.16h1.35c.07.6.15 1.12.26 1.6 1.01 4.68 3.99 8.35 6.31 10.6a34.54 34.54 0 0 0 11.4 7.21 34.4 34.4 0 0 0 12.17 2.41c3.58 0 7.4-.7 11.03-2.71l.44-.24h-.02l.47-.31c-.21.99-.31 1.96-.28 2.88.06 1.57.69 3.62 2.28 4.66l.2.13.14-.19.71-1.33.09-.18-.15-.13c-1.59-1.33-1.21-3.91-.98-4.96a16.7 16.7 0 0 1 1.23-3.38A27.05 27.05 0 0 0 58 45.07c.23.41.49.79.81 1.11a5.61 5.61 0 0 0 4.19 1.6c.72 0 1.51-.09 2.35-.28 3.76-.82 6.61-3.69 8.25-8.29.26-.73.49-1.51.68-2.32l309.74-6.02v-.5ZM68.02 26.18h4.23a27.96 27.96 0 0 1 .27 4.44 26.1 26.1 0 0 1-.53 4.56h-3.95L67 33.77l-2.3-3.09 3.32-4.5Zm-5.31 7.59h3.66l1.42 1.91h4.1c-.82 3.74-2.71 8.24-7.09 9.2-1.97.43-3.39.23-4.22-.61a3.76 3.76 0 0 1-.91-2.03 33.24 33.24 0 0 0 3.04-8.46Zm1.36-3.09L66 33.27h-3.18l.03-.18c.17-.81.32-1.62.43-2.43v-.05a33.71 33.71 0 0 0 .28-2.58h2.45l-1.95 2.64Zm-31.7 1.31.3-.86.19-.56.23-.69.55-1.71.04-.14h6.26a70.96 70.96 0 0 0-1.21 5.24H31.9l.25-.7.21-.58Zm-.66 1.79h6.93c-.24 1.29-.48 2.68-.73 4.25-.19 1.34-.37 2.75-.54 4.31-.14 1.23-.42 2.4-.85 3.46a6.64 6.64 0 0 1-1.14 2.03 5.5 5.5 0 0 1-4.06 2.06c-2.99-.77-6-1.98-8.71-3.49-3.75-2.15-6.63-4.6-8.62-7.31 2.63 2.17 5.96 4.24 9.08 4.24.24 0 .48-.01.72-.04 2.31-.25 4.17-1.64 5.51-4.15a45.33 45.33 0 0 0 2.41-5.38Zm8.37-6.24h-6.25l.57-1.82c2.04-6.54 3.96-12.71 7.29-13.88a10.89 10.89 0 0 1 7.68.26c-2.4 1.46-4.51 3.95-6.27 7.43a45.15 45.15 0 0 0-3.03 8.01Zm-7.65-2.51c2.3-7.39 4.29-13.78 8.62-15.29 4.84-1.69 8.99.05 10.96 1.19l-.11.04c-.26.07-.51.16-.75.26l-.14.05c-.37.15-.74.32-1.09.51a11.5 11.5 0 0 0-8.38-.41c-3.57 1.25-5.53 7.54-7.61 14.21l-.62 1.98-.05.16a104.75 104.75 0 0 1-1.4 4.22l-.55 1.5c-.8 2.11-1.6 3.9-2.45 5.49-1.26 2.35-2.99 3.66-5.12 3.88-3.73.41-7.94-2.67-10.83-5.31a.47.47 0 0 1-.1-.1l-.54-.51-.03-.03a41.29 41.29 0 0 1-2.78-2.94l.17-.16h1.86a37.09 37.09 0 0 0 3.2 3.09l.07.06c2.44 2.09 5.94 4.48 8.82 4.18 1.63-.17 2.92-1.17 3.92-3.04a41.62 41.62 0 0 0 1.97-4.29l.05-.13.01-.03c.63-1.6 1.25-3.38 2.01-5.75l.03-.1.07-.23.79-2.51Zm-14.19 8.75h10.68a38.86 38.86 0 0 1-1.87 4.05c-.92 1.72-2.08 2.63-3.53 2.78-2.54.28-5.66-1.75-7.99-3.68h.63c1.15 0 2.09-.99 2.09-2.21v-.95Zm12.71-5.74-.2.62-.27.82-.28.81-.21.6a43.4 43.4 0 0 1-.67 1.82l-.21.56H18.23v-5.24h12.71Zm-17.57-3.16h2.77c.88 0 1.59.77 1.59 1.71v8.14c0 .94-.71 1.71-1.59 1.71h-1.21l-1.11-1-.04-.03a30.1 30.1 0 0 1-1.14-1.12l-.17-.5-1.06-3.12 1.06-3.12.91-2.66ZM4.87 36.44H2.05c-.88 0-1.59-.77-1.59-1.71v-8.14c0-.94.71-1.71 1.59-1.71h2.82l2.72 4 1.21 1.77-1.02 1.51-2.9 4.27Zm3.11-3.69 1.42-2.09-1.78-2.62h4.15l-.89 2.62.89 2.62H7.62l.36-.53Zm44.23 20.37c-.25 1.1-.64 3.78.99 5.32l-.46.87c-1.27-.98-1.78-2.74-1.83-4.1-.03-1.03.1-2.12.37-3.24l.19-.14c.46-.32.91-.66 1.35-1.02l.2-.15c-.34.83-.61 1.64-.81 2.47Zm1.34-3.59a19.86 19.86 0 0 1-2.62 2.08c-.45.31-.92.59-1.37.85l-.15.09c-8.36 4.52-17.75 2.06-22.62.18a33.96 33.96 0 0 1-11.23-7.11c-2.27-2.2-5.18-5.79-6.17-10.35a9.24 9.24 0 0 1-.15-.82l.11.13.17.2.14.16.26.28.14.16.45.48.18.18.33.34.31.31.22.22c.31.31.64.62.99.94 2 3.38 5.31 6.41 9.82 9a37.84 37.84 0 0 0 8.83 3.54l.09.02h.04a6.01 6.01 0 0 0 4.43-2.23c.51-.55.94-1.49 1.22-2.17.45-1.11.74-2.32.89-3.59a108.84 108.84 0 0 1 1.32-8.81c.4-2.1.84-3.97 1.33-5.72a44.64 44.64 0 0 1 3.05-8.11c1.82-3.6 4-6.12 6.5-7.48a9.05 9.05 0 0 1 5.69-1.1c.14.02.29-.04.38-.16a.4.4 0 0 0 .04-.42 36.4 36.4 0 0 1-1.35-3.34A42.57 42.57 0 0 1 53.15.86l1.57-.3a37.37 37.37 0 0 0 5.21 12.03 16.46 16.46 0 0 1 2.01 4.28 30.5 30.5 0 0 1 1.13 10.91v.02c-.13 1.88-.4 3.8-.82 5.7v.02a33.28 33.28 0 0 1-4.49 11.01 26.2 26.2 0 0 1-4.2 5.02Zm19.52-10.45c-1.58 4.43-4.3 7.18-7.89 7.97-2.68.59-4.73.19-6.07-1.18a4.82 4.82 0 0 1-.86-1.21l.11-.18c.27-.43.54-.88.79-1.33l.13-.21c.19.7.5 1.27.92 1.7.95.96 2.53 1.22 4.68.74 4.68-1.02 6.66-5.79 7.5-9.69l.04-.2a26.42 26.42 0 0 0 .49-7.71c-.05-.63-.12-1.26-.22-1.87l-.03-.21c-.65-4.04-2.51-9.09-7.62-10.88l.47-1.63c3.78 1.32 6.53 4.4 7.95 8.92a21.79 21.79 0 0 1 .85 3.87c.08.6.15 1.22.19 1.84.07.97.09 1.93.07 2.88l-.02.53a32.33 32.33 0 0 1-.49 4.17c-.08.4-.16.82-.26 1.24v.02c-.2.85-.44 1.66-.72 2.43Zm1.28-2.65.2-.95a31.73 31.73 0 0 0 .52-4.78 28.86 28.86 0 0 0-.27-4.8c-.04-.33-.1-.67-.16-1.01l296.48 5.76-296.78 5.77Z"/><path fill="#ffd600" d="m59.05 33.76.05-.18a34.85 34.85 0 0 0 1.08-5.78l.03-.27c.27-2.89.17-5.7-.3-8.35-.31-1.63-.79-3.1-1.41-4.36-.16-.31-.34-.62-.51-.92a.41.41 0 0 0-.24-.19c-3.96-1.11-7.71.76-10.56 5.26a34.86 34.86 0 0 0-3.76 8.55l-.04.14-.01.03a74.88 74.88 0 0 0-1.45 5.65v.02l-.02.09c-.6 2.79-1.12 5.85-1.58 9.36-.15 1.1-.36 2.07-.66 2.97-.23.69-.49 1.33-.79 1.92a9.82 9.82 0 0 1-2.15 2.89.42.42 0 0 0-.11.45c.05.16.19.26.35.27.61.04 1.21.06 1.8.06 3.79 0 7.12-.86 9.91-2.55 4.82-2.94 8.51-8.28 10.41-15.05Zm-.35-.65-.04.15H42.42l.25-1.08.08-.35.35-1.4.12-.45.22-.83.18-.61.15-.52h15.87l-.02.19c-.09.81-.21 1.63-.36 2.43l-.01.06c-.15.81-.34 1.61-.55 2.4ZM47.58 19.24c1.57-2.48 4.96-6.44 9.97-5.06.17.29.33.57.48.86a17 17 0 0 1 1.37 4.22c.47 2.62.56 5.4.29 8.26H43.92a34.31 34.31 0 0 1 3.66-8.28Zm.79 29.15c-3.08 1.87-6.84 2.69-11.2 2.43.82-.77 1.53-1.75 2.11-2.9a14.87 14.87 0 0 0 1.49-5.04c.45-3.41.95-6.39 1.53-9.12h16.2c-1.88 6.58-5.47 11.78-10.15 14.63Z"/></svg>