<?xml version="1.0" encoding="utf-8"?>
<!-- Generator: Adobe Illustrator 28.0.0, SVG Export Plug-In . SVG Version: 6.00 Build 0)  -->
<svg version="1.1" id="Layer_1" xmlns="http://www.w3.org/2000/svg" xmlns:xlink="http://www.w3.org/1999/xlink" x="0px" y="0px"
	 viewBox="0 0 384 60" style="enable-background:new 0 0 384 60;" xml:space="preserve">
<style type="text/css">
	.st0{fill:none;}
	.st1{fill:#FFD600;}
</style>
<g>
	<path class="st0" d="M48.2,43.7c1.3-1.2,2.5-2.6,3.5-4.2c1.9-3,3.2-6.2,4-9.7c0.4-1.7,0.6-3.3,0.7-5c0.3-3.3-0.1-6.5-1-9.6
		c-0.4-1.3-1-2.6-1.8-3.7C51.5,8.3,49.9,4.8,49,1.1l-0.9,0.2c0.3,1.8,0.8,3.6,1.4,5.4c0.3,1,0.8,2,1.2,2.9c0.1,0.2,0.1,0.5-0.1,0.6
		c-0.1,0.2-0.3,0.2-0.5,0.2c-0.4-0.1-0.8-0.1-1.1-0.1c-1.4,0-2.7,0.3-3.9,1c-2.2,1.2-4.1,3.4-5.7,6.5c-1.1,2.3-2,4.7-2.7,7.1
		c-0.5,1.6-0.8,3.2-1.2,5c-0.5,2.6-0.9,5.2-1.2,7.8c-0.1,1.2-0.4,2.3-0.8,3.2c-0.4,0.9-0.8,1.6-1.1,2c-1,1.2-2.5,2-4.1,2.1l0,0
		l-0.1,0l-0.1,0c-2.8-0.7-5.5-1.8-8-3.2c-4.1-2.3-7.1-5-8.9-8.1c-0.3-0.2-0.6-0.5-0.8-0.8l-0.5-0.5l-0.5-0.5l-0.4-0.4L9,31.7
		c0.9,3.9,3.4,6.9,5.4,8.8c2.9,2.7,6.2,4.8,10,6.2c2.5,1,6.4,2.1,10.6,2.1c3.5,0,6.6-0.8,9.4-2.2l0.1-0.1c0.4-0.2,0.8-0.5,1.2-0.7
		c0.8-0.5,1.6-1.2,2.3-1.8L48.2,43.7L48.2,43.7z M43.9,43.7c-2.5,1.5-5.6,2.3-9,2.3c-0.5,0-1.1,0-1.6-0.1c-0.3,0-0.5-0.2-0.6-0.4
		c-0.1-0.2,0-0.5,0.2-0.7c0.8-0.7,1.4-1.5,1.9-2.5c0.3-0.5,0.5-1,0.7-1.7c0.3-0.8,0.4-1.6,0.6-2.6c0.4-3.1,0.9-5.8,1.4-8.3v0l0-0.1
		c0.4-1.7,0.8-3.4,1.3-5l0-0.1c0.8-2.7,1.9-5.3,3.4-7.6c2.1-3.3,4.8-5.1,7.7-5.1c0.7,0,1.4,0.1,2,0.3c0.2,0,0.3,0.2,0.4,0.3l0.1,0.1
		c0.1,0.2,0.3,0.4,0.4,0.7c0.6,1.2,1,2.5,1.3,3.9c0.4,2.4,0.5,4.9,0.3,7.5l0,0.2c-0.2,1.7-0.5,3.4-0.9,5.1l0,0.3
		C51.7,36.3,48.3,41.1,43.9,43.7z"/>
	<path class="st0" d="M10.8,27.4l1.1,3.1c0.3,0.3,0.6,0.6,1,0.9l0.9,0.8h1c0.6,0,1.2-0.6,1.2-1.2v-7.2c0-0.7-0.5-1.2-1.2-1.2h-2.3
		l-0.8,2.2L10.8,27.4z"/>
	<path class="st0" d="M21.6,38.9c-0.2,0-0.4,0-0.7,0c-1.9,0-4-0.8-6.4-2.4c1.6,1.7,3.7,3.2,6.1,4.6c2.4,1.3,5.1,2.4,7.7,3.1
		c1.3-0.1,2.5-0.7,3.4-1.7c0.4-0.5,0.8-1.1,1-1.7c0.4-0.9,0.6-1.9,0.7-3c0.1-1.3,0.3-2.5,0.5-3.8c0.2-1.3,0.4-2.4,0.6-3.5h-5.7
		c-0.6,1.6-1.3,3.1-2.1,4.6C25.5,37.4,23.7,38.6,21.6,38.9z"/>
	<path class="st0" d="M53.1,17.4c-0.2-1.3-0.6-2.5-1.2-3.7c-0.1-0.2-0.2-0.4-0.4-0.6c-0.6-0.1-1.1-0.2-1.6-0.2
		c-3.4,0-5.8,2.9-6.9,4.6c-1.3,2.2-2.4,4.5-3.1,6.9h13.5C53.6,21.9,53.5,19.6,53.1,17.4z"/>
	<path class="st0" d="M29.7,27.9l-0.3,0.9h0l-0.2,0.6h5.5c0.3-1.4,0.6-2.8,1-4.1h-5l-0.5,1.5L29.7,27.9z"/>
	<path class="st0" d="M67.1,32.2l251.3-4.8l-251-4.8c0,0.2,0.1,0.4,0.1,0.6c0.2,1.4,0.3,2.9,0.2,4.3c0,1.4-0.2,2.9-0.5,4.3
		L67.1,32.2z"/>
	<path class="st0" d="M53.3,25.3H39.6l-0.2,0.8l-0.3,1.1l-0.3,1.2l-0.2,0.9h14c0.2-0.8,0.4-1.4,0.5-2C53.1,26.7,53.2,26,53.3,25.3z"
		/>
	<path class="st0" d="M52.2,30.4H38.3c-0.5,2.4-0.9,4.9-1.3,7.8c-0.2,1.6-0.6,3.1-1.4,4.5c-0.4,0.8-0.9,1.6-1.5,2.2
		c0.3,0,0.5,0,0.8,0c3.1,0,5.9-0.7,8.2-2l0.3-0.2C47.4,40.5,50.5,36,52.2,30.4z"/>
	<path class="st0" d="M37.6,11c-2.8,1-4.5,6.4-6.3,12.1l-0.4,1.3h5c0.7-2.4,1.6-4.7,2.7-6.9c1.5-2.9,3.2-5.1,5.3-6.4
		c-1-0.4-2.1-0.5-3.2-0.5C39.6,10.5,38.6,10.7,37.6,11z"/>
	<path class="st0" d="M47.5,52.1c-1.4-1.5-1-3.8-0.8-4.8h0c0.1-0.4,0.2-0.9,0.4-1.3c-0.2,0.2-0.4,0.3-0.6,0.5l-0.1,0.1
		c-0.2,1-0.3,1.9-0.3,2.7c0,1,0.4,2.4,1.3,3.2L47.5,52.1z"/>
	<path class="st0" d="M57.1,27.4c-0.1,0.6-0.2,1.3-0.4,2.1h2l-1.4-1.9L57.1,27.4l0.2-0.1l1.4-1.9h-1.4C57.3,26,57.2,26.7,57.1,27.4z
		"/>
	<path class="st0" d="M37.1,9.1c-3.7,1.3-5.5,6.9-7.5,13.4L28.7,25c-0.7,2.1-1.2,3.7-1.8,5.1l-0.1,0.1c-0.5,1.3-1.1,2.6-1.8,3.8
		c-0.9,1.7-2.2,2.7-3.7,2.8c-0.2,0-0.3,0-0.5,0c-2.6,0-5.6-2.1-7.6-3.8c-1-0.9-2-1.8-2.9-2.7H9.2c0.7,0.8,1.4,1.6,2.2,2.3l0.5,0.5
		l0.1,0.1c2.4,2.1,5.8,4.7,8.9,4.7c0.2,0,0.4,0,0.6,0c1.8-0.2,3.3-1.3,4.4-3.3c0.8-1.4,1.5-3,2.2-4.8l0.5-1.3
		c0.4-1.2,0.9-2.5,1.2-3.7l0.6-1.9c1.9-6,3.7-11.6,7-12.8c1.1-0.4,2.2-0.5,3.4-0.5c1.5,0,2.9,0.3,4.2,0.9c0.3-0.1,0.6-0.3,0.9-0.4
		l0.1,0c0.1,0,0.1-0.1,0.2-0.1c-1.2-0.6-3.1-1.4-5.5-1.4C39.4,8.5,38.2,8.7,37.1,9.1z"/>
	<path class="st0" d="M60.4,30l0.9,1.1h3.2c0.2-1.2,0.4-2.5,0.4-3.8c0-1.2,0-2.4-0.2-3.7h-3.4l-2.8,3.7L60.4,30z"/>
	<path class="st0" d="M7.8,27.4l-1-1.4l-2.4-3.4H2.1c-0.6,0-1.2,0.6-1.2,1.2V31c0,0.7,0.5,1.2,1.2,1.2h2.4L7.8,27.4z"/>
	<polygon class="st0" points="9.7,27.4 10.4,25.4 7.6,25.4 9,27.4 7.6,29.5 10.4,29.5 	"/>
	<path class="st0" d="M56.6,41.9c0.6,0,1.2-0.1,1.9-0.2c3.1-0.7,5.5-3.1,6.9-6.9l0.1-0.4l0,0c0.2-0.6,0.4-1.1,0.5-1.7
		c0.1-0.3,0.1-0.6,0.2-0.9l0-0.2c0.2-1.2,0.4-2.4,0.4-3.7l0-0.5c0-0.9,0-1.7-0.1-2.5c0-0.5-0.1-1.1-0.2-1.6
		c-0.1-1.1-0.4-2.3-0.8-3.4c-1.2-3.8-3.5-6.4-6.7-7.6l-0.3,0.9c4.5,1.7,6.2,6.2,6.8,9.8l0,0.2c0.1,0.5,0.1,1.1,0.2,1.7
		c0.2,2.3,0,4.6-0.4,6.9l0,0.2c-0.8,3.5-2.6,7.9-6.9,8.8c-0.6,0.1-1.2,0.2-1.8,0.2c-1.1,0-2-0.3-2.7-0.9c-0.3-0.3-0.5-0.6-0.7-1.1
		c-0.2,0.3-0.4,0.6-0.5,0.9l0,0c0.2,0.3,0.4,0.6,0.7,0.9C54.1,41.5,55.2,41.9,56.6,41.9z"/>
	<path class="st0" d="M26.8,27.5l0.4-1.2l0.3-0.9H16.8v4.1h9.3l0.1-0.3C26.4,28.6,26.6,28.1,26.8,27.5z"/>
	<path class="st0" d="M14.9,33.2c1.7,1.3,4,2.8,6,2.8c0.1,0,0.3,0,0.4,0c1.2-0.1,2.2-0.9,2.9-2.3c0.6-1,1.1-2.1,1.5-3.2h-8.9V31
		C16.9,32.2,16,33.1,14.9,33.2z"/>
	<path class="st0" d="M54.6,39.3c0.4,0.4,1.1,0.6,1.9,0.6c0.5,0,1-0.1,1.6-0.2c3.7-0.8,5.3-4.5,6.1-7.6h-3.5l-1.3-1.7h-2.9
		c-0.6,2.6-1.5,5-2.7,7.3C54,38.3,54.2,38.8,54.6,39.3z"/>
	<path class="st1" d="M344,26.3l-0.4,0.6L67.2,21.6c-0.2-0.7-0.3-1.4-0.5-2c-1.4-4.3-4.1-7.2-7.8-8.4L58.4,11l-0.8,2.8L58,14
		c4.2,1.4,5.9,5.5,6.5,8.8h-3.8l-1.2,1.6h-2.1c0.2-3.4-0.2-6.5-1.1-9.4c-0.4-1.4-1.1-2.7-1.9-4c-2.2-3.2-3.7-6.7-4.6-10.5
		C49.8,0.2,49.6,0,49.3,0l-0.1,0l-1.6,0.3c-0.3,0.1-0.5,0.4-0.5,0.7c0.5,2.9,1.3,5.7,2.5,8.4c-0.2,0-0.4,0-0.6,0c-0.5,0-1,0-1.6,0.1
		c-1.2-0.8-3.7-2-6.8-2c-1.3,0-2.6,0.2-3.9,0.7c-4.2,1.5-6,7.3-8.2,14l-0.7,2.2h-11v-0.6c0-1.2-1-2.2-2.1-2.2h-3l-1,2.8H7L5,21.6
		H2.1c-1.2,0-2.1,1-2.1,2.2V31c0,1.2,1,2.2,2.1,2.2H5L7,30.4h0.8c0.1,0.5,0.1,0.9,0.2,1.2c0.9,4.2,3.6,7.5,5.7,9.5
		c3,2.8,6.4,5,10.3,6.4c3.5,1.4,7.2,2.1,11,2.2c3.7,0,7.1-0.8,10-2.4l0.3-0.2c-0.1,0.7-0.2,1.4-0.1,2c0.1,1.5,0.7,3.4,2.2,4.3
		l0.4,0.3l0.3-0.4l0.6-1.2l0.2-0.3l-0.3-0.3c-1.3-1.1-1-3.2-0.8-4.1c0.2-1,0.6-2,1.1-2.9c1.3-1.2,2.4-2.5,3.4-3.9
		c0.2,0.3,0.4,0.5,0.5,0.7c1,1,2.3,1.5,3.7,1.5c0.1,0,0.2,0,0.2,0c0.7,0,1.4-0.1,2.2-0.3c3.5-0.7,6.1-3.3,7.6-7.5
		c0.2-0.6,0.4-1.2,0.6-1.9L344,27.9v-0.7L344,26.3z M67.4,23.2c0-0.2-0.1-0.4-0.1-0.6l251,4.8L67.1,32.2l0.1-0.5
		c0.3-1.4,0.4-2.8,0.5-4.3C67.7,26,67.6,24.6,67.4,23.2z M46.4,46.4L46.4,46.4c0.3-0.2,0.5-0.4,0.7-0.5c-0.2,0.5-0.3,0.9-0.4,1.3h0
		c-0.2,1-0.6,3.3,0.8,4.8l-0.2,0.3c-0.9-0.8-1.3-2.2-1.3-3.2C46,48.3,46.1,47.4,46.4,46.4z M48,43.9c-0.7,0.7-1.5,1.3-2.3,1.8
		c-0.4,0.3-0.8,0.5-1.2,0.7l-0.1,0.1c-2.8,1.5-5.9,2.2-9.4,2.2c-4.3,0-8.1-1.1-10.6-2.1c-3.7-1.4-7.1-3.5-10-6.2
		c-2-1.9-4.5-4.9-5.4-8.8l0.1,0.1l0.4,0.4l0.5,0.5l0.5,0.5c0.3,0.3,0.6,0.6,0.8,0.8c1.8,3,4.8,5.7,8.9,8.1c2.5,1.4,5.2,2.4,8,3.2
		l0.1,0l0.1,0l0,0c1.6-0.1,3.1-0.8,4.1-2.1c0.4-0.4,0.7-1.1,1.1-2c0.4-1,0.7-2.1,0.8-3.2c0.3-2.6,0.7-5.2,1.2-7.8
		c0.3-1.8,0.7-3.4,1.2-5c0.7-2.5,1.6-4.9,2.7-7.1c1.6-3.1,3.5-5.3,5.7-6.5c1.2-0.7,2.5-1,3.9-1c0.4,0,0.7,0,1.1,0.1
		c0.2,0,0.4-0.1,0.5-0.2c0.1-0.2,0.2-0.4,0.1-0.6c-0.4-1-0.8-1.9-1.2-2.9c-0.6-1.8-1.1-3.6-1.4-5.4L49,1.1c0.9,3.7,2.5,7.3,4.6,10.5
		c0.8,1.2,1.4,2.4,1.8,3.7c0.9,3.1,1.3,6.3,1,9.6c-0.1,1.7-0.4,3.4-0.7,5c-0.7,3.4-2.1,6.7-4,9.7c-1,1.5-2.1,2.9-3.5,4.2l0,0
		L48,43.9z M14.7,22.6c0.6,0,1.2,0.6,1.2,1.2V31c0,0.7-0.5,1.2-1.2,1.2h-1l-0.9-0.8c-0.3-0.3-0.7-0.6-1-0.9l-1.1-3.1l0.9-2.7
		l0.8-2.2H14.7z M34.5,30.4c-0.2,1.1-0.4,2.2-0.6,3.5c-0.2,1.3-0.3,2.5-0.5,3.8c-0.1,1.1-0.4,2.1-0.7,3c-0.2,0.6-0.5,1.2-1,1.7
		c-0.8,1-2.1,1.7-3.4,1.7c-2.6-0.7-5.3-1.7-7.7-3.1c-2.5-1.4-4.5-2.9-6.1-4.6c2.3,1.6,4.5,2.4,6.4,2.4c0.2,0,0.5,0,0.7,0
		c2.2-0.2,3.9-1.5,5.1-3.8c0.8-1.5,1.5-3,2.1-4.6H34.5z M35.6,25.4c-0.4,1.4-0.7,2.7-1,4.1h-5.5l0.2-0.6h0l0.3-0.9l0.4-1.1l0.5-1.5
		H35.6z M43.8,11c-2,1.4-3.8,3.5-5.3,6.4c-1.1,2.2-2,4.6-2.7,6.9h-5l0.4-1.3c1.8-5.7,3.5-11.1,6.3-12.1c1-0.3,2-0.5,3-0.5
		C41.8,10.5,42.8,10.7,43.8,11z M45.9,10l-0.1,0c-0.3,0.1-0.6,0.3-0.9,0.4c-1.3-0.6-2.7-0.9-4.2-0.9c-1.1,0-2.3,0.2-3.4,0.5
		c-3.3,1.2-5.1,6.8-7,12.8l-0.6,1.9c-0.4,1.2-0.8,2.5-1.2,3.7L28,29.8c-0.7,1.8-1.4,3.4-2.2,4.8c-1.1,2-2.6,3.1-4.4,3.3
		c-0.2,0-0.4,0-0.6,0c-3.1,0-6.5-2.5-8.9-4.7l-0.1-0.1l-0.5-0.5c-0.8-0.7-1.5-1.5-2.2-2.3h1.2c0.9,0.9,1.8,1.8,2.9,2.7
		c2,1.7,5,3.8,7.6,3.8c0.2,0,0.3,0,0.5,0c1.6-0.2,2.8-1.1,3.7-2.8c0.7-1.2,1.3-2.5,1.8-3.8l0.1-0.1c0.6-1.4,1.1-3,1.8-5.1l0.8-2.5
		c2-6.5,3.8-12.1,7.5-13.4c1.2-0.4,2.4-0.6,3.6-0.6c2.3,0,4.3,0.8,5.5,1.4C46,9.9,46,9.9,45.9,10z M16.8,29.5v-4.1h10.7l-0.3,0.9
		l-0.4,1.2c-0.2,0.5-0.4,1.1-0.6,1.6l-0.1,0.3H16.8z M16.9,30.4h8.9c-0.4,1.1-1,2.2-1.5,3.2c-0.8,1.4-1.7,2.2-2.9,2.3
		c-0.1,0-0.3,0-0.4,0c-1.9,0-4.2-1.4-6-2.8c1.1-0.1,2-1.1,2-2.2V30.4z M56.6,30.4h2.9l1.3,1.7h3.5c-0.7,3.1-2.4,6.8-6.1,7.6
		c-0.6,0.1-1.1,0.2-1.6,0.2c-0.9,0-1.5-0.2-1.9-0.6c-0.4-0.4-0.7-1-0.7-1.6C55.1,35.4,56,33,56.6,30.4z M64.6,23.7
		c0.2,1.2,0.2,2.4,0.2,3.7c0,1.3-0.2,2.5-0.4,3.8h-3.2L60.4,30l-1.9-2.6l2.8-3.7H64.6z M57.3,27.3l-0.2,0.2l0.2,0.2l1.4,1.9h-2
		c0.2-0.7,0.3-1.4,0.4-2.1c0.1-0.7,0.2-1.4,0.2-2.1h1.4L57.3,27.3z M52.7,39.8c0.2-0.3,0.4-0.6,0.5-0.9c0.2,0.4,0.4,0.8,0.7,1.1
		c0.6,0.6,1.5,0.9,2.7,0.9c0.5,0,1.1-0.1,1.8-0.2c4.3-0.9,6.2-5.3,6.9-8.8l0-0.2c0.5-2.3,0.6-4.6,0.4-6.9c0-0.6-0.1-1.2-0.2-1.7
		l0-0.2c-0.6-3.5-2.2-8-6.8-9.8l0.3-0.9c3.2,1.2,5.5,3.8,6.7,7.6c0.4,1.1,0.6,2.2,0.8,3.4c0.1,0.5,0.1,1.1,0.2,1.6
		c0.1,0.8,0.1,1.7,0.1,2.5l0,0.5c-0.1,1.2-0.2,2.5-0.4,3.7l0,0.2c-0.1,0.3-0.1,0.6-0.2,0.9c-0.1,0.6-0.3,1.2-0.5,1.7l0,0l-0.1,0.4
		c-1.4,3.8-3.8,6.2-6.9,6.9c-0.7,0.2-1.3,0.2-1.9,0.2c-1.4,0-2.5-0.4-3.2-1.2C53.1,40.4,52.8,40.1,52.7,39.8L52.7,39.8z M0.9,31
		v-7.2c0-0.7,0.5-1.2,1.2-1.2h2.4L6.8,26l1,1.4l-3.3,4.9H2.1C1.5,32.3,0.9,31.7,0.9,31z M9,27.4l-1.4-2.1h2.8l-0.7,2.1l0.7,2.1H7.6
		L9,27.4z"/>
	<path class="st1" d="M53.4,30c0.5-1.7,0.8-3.4,0.9-5.1l0-0.2c0.2-2.6,0.2-5.1-0.3-7.5c-0.3-1.5-0.7-2.8-1.3-3.9
		c-0.1-0.2-0.2-0.5-0.4-0.7l-0.1-0.1c-0.1-0.1-0.2-0.2-0.4-0.3c-0.7-0.2-1.4-0.3-2-0.3c-2.9,0-5.6,1.7-7.7,5.1
		c-1.5,2.4-2.6,5-3.4,7.6l0,0.1c-0.5,1.6-0.9,3.3-1.3,5l0,0.1v0c-0.5,2.5-1,5.2-1.4,8.3c-0.1,1-0.3,1.8-0.6,2.6
		c-0.2,0.6-0.4,1.2-0.7,1.7c-0.5,0.9-1.1,1.8-1.9,2.5c-0.2,0.2-0.3,0.4-0.2,0.7c0.1,0.2,0.3,0.4,0.6,0.4c0.6,0,1.1,0.1,1.6,0.1
		c3.4,0,6.5-0.8,9-2.3c4.4-2.6,7.7-7.4,9.4-13.5L53.4,30z M43.1,43.1c-2.3,1.3-5.1,2-8.2,2c-0.3,0-0.5,0-0.8,0
		c0.6-0.6,1.1-1.4,1.5-2.2c0.7-1.4,1.2-3,1.4-4.5c0.4-2.9,0.8-5.5,1.3-7.8h13.9c-1.7,5.6-4.8,10-8.9,12.5L43.1,43.1z M52.5,29.5h-14
		l0.2-0.9l0.3-1.2l0.3-1.1l0.2-0.8h13.7c-0.1,0.7-0.2,1.4-0.3,2.1C52.9,28,52.7,28.7,52.5,29.5z M39.9,24.4c0.7-2.4,1.8-4.8,3.1-6.9
		c1.1-1.7,3.5-4.6,6.9-4.6c0.5,0,1.1,0.1,1.6,0.2c0.1,0.2,0.3,0.4,0.4,0.6c0.6,1.2,1,2.4,1.2,3.7c0.4,2.2,0.5,4.6,0.3,7H39.9z"/>
</g>
</svg>
