<svg xmlns="http://www.w3.org/2000/svg" viewBox="0 0 384 547"><defs><clipPath id="a"><path fill="none" stroke-width="0" d="M0 0h381v547H0z"/></clipPath></defs><g clip-path="url(#a)"><path fill="#2e383c" d="M322.04 540.5c-.58-.5-1.26-.29-1.9-.3l-14.87-.13c-.54.02-1.08.07-1.62.07-19.72 0-39.44 0-59.15-.02-.6 0-1.2-.05-1.8 0-.98.06-1.3-.36-1.18-1.29.18-1.37.3-2.75.45-4.13a29.18 29.18 0 0 0-2.65-8.66c-2.16 5.56-6.17 8.9-12 10.13-1.23.25-2.47.55-3.67.96a5.1 5.1 0 0 1-4.8-.56c-2.26-1.5-4.7-1.62-7.27-.9-3.77 1.07-7.58 2.01-11.37 2.99-7.36 1.88-14.87 1.13-22.32 1.02-4.3-.06-6.6-2.87-6.7-7.23-.02-.9-.02-1.8 0-2.71.02-1.83.98-2.75 2.87-2.76 3.25-.01 6.61.37 9.67-.82a221.56 221.56 0 0 1 18.24-6.43c.53-.15 1.04-.44 1.13-1.05.1-.74-.5-1.08-1.04-1.32-1.93-.86-3.88-1.68-6.07-1.5-.4.1-.8.26-1.22.3-2.6.31-2.64.3-2.67-2.3-.07-5.65.13-11.3.39-16.95.13-2.87.58-5.76-.26-8.6-.47-.7-.97-1.37-1.38-2.09-.22-.38-.68-.85-.28-1.3.37-.4.91-.1 1.36.02.32.08.6.28.93.44l.13-1.08-.81-8.29a7.77 7.77 0 0 0-3.25-3.94c-1.31-.75-1.74-1.86-1.62-3.3l.62-7.31.04-.4.18-.79.62-5.75c.71-5.42-.49-10.14-4.9-13.75-1.49-1.23-2.8-2.66-4.3-3.87a26.37 26.37 0 0 1-7.69-9.67c-.98-2.13-2-4.24-3.01-6.37l-2.4-3.93a54.67 54.67 0 0 0-10.86-11.56c-1.88-1.5-2.9-3.65-3.61-5.95-.89-2.88-1.64-5.83-2.82-8.59-1.73-4.06-2.2-8.24-2-12.56.04-1.15.05-2.3.04-3.44-.02-9.88-.87-19.65-3.92-29.13-1.53-4.76-3.36-9.43-4.35-14.36-1.83-9.1-3.8-18.17-6.86-26.97a42.97 42.97 0 0 1-2.38-12.4c-.04-1.04-.02-1.56 1.24-1.54 9.35.2 18.7.37 28.06.5 1.07.01 1.38.42 1.26 1.4-.62 5.12-.12 10.23.11 15.33.19 3.98 2.42 6.8 5.72 8.86 6.75.62 13.52.25 20.28.27l.08-4.7c-.73-.49-.92-.95-.17-1.65 1.4-1.32 2.74-2.71 4.1-4.07-1.6-.71-2.68.4-3.87 1.12l-.23.09.08-.24c.25-1.34-.37-2.63-.24-3.95.16-1.57-.68-1.98-2-2.1-5.56-.48-11.13-.98-16.7-1.49-.84-.07-1.69-.2-2.2-1.02-.8-1.28-1.75-2.5-1.98-4.03-.84-5.74-.07-11.55-.64-17.31-.12-1.2.61-1.6 1.87-1.2 3.74 1.22 7.65 1.46 11.55 1.85 3.1.32 6.23.39 9.27 1.29 2.87.85 3.71 1.55 3.66 4.53a48.27 48.27 0 0 0 2.04 14.96c.48 1.59.93 3.4-.12 4.9-.63.88-.48 1.64-.4 2.5 1.18-.8 1.97-3.12 3.9-1 1.2-.22 2.19-.06 2.52 1.33l.12.08c-.14-4.94.29-9.87.39-14.8.03-1.44.81-1.5 1.77-.87 1.1.71 2.2 1.48 3.2 2.34 2.88 2.53 5.72 5.1 7.95 8.27 2.38.16 4.74.04 7.1-.32 1.3-.2 1.7-1.2 2.03-2.26 1.08-3.52 1.6-7.16 2.21-10.77-.15-1.01-1.02-1.3-1.77-1.63a58.02 58.02 0 0 0-14.53-4.26c-3.52-.57-7.1-.46-10.6-1.03-3 .03-2.97.03-2.57-2.85.32-2.31.52-4.64.77-6.96a5.9 5.9 0 0 0-5.37-.5c-1.12.5-.37 2.43-.42 3.71-.05 1.23-.11 2.09-1.75 1.96-1.35-.11-2.4.02-2.35-1.95.14-5.77.07-11.55.09-17.33a28.3 28.3 0 0 1-6.64 1.3c-2.54.12-5.09.23-7.46-.98-.23 4.26-.49 8.51-.67 12.78-.04 1.03-.5 1.27-1.42 1.39-4.87.6-5.42 1.25-5.55 6.13v1.45c-.06 2.84.52 2.53-2.63 2.54l-40.7.05c-.33.38-.41.73.09 1.03.66.41 1.28.95 2 1.21 1.94.7 2.45 1.98 2.1 3.96-1.9 10.48-1.09 20.93.49 31.36.9 5.98 1.45 12 1.6 18.03a132.35 132.35 0 0 0 5.07 33.56c2.02 7.05 2.87 14.3 3.31 21.6a39.45 39.45 0 0 0 2.4 11.3c2.83 7.64 5 15.5 7.53 23.23 1.14 3.46 1.18 6.92-.43 10.23-1.31 2.68-.63 4.91 1.16 7 2.02 2.36 4.5 4.18 7.07 5.88.8.54 1.62 1.07 2.17 1.89a4.32 4.32 0 0 1-.66 5.85c-.27.24-.52.52-.83.7-2.41 1.47-3.36 3.6-3.25 6.4.1 2.29-.02 4.58-1.36 6.63-.6.9-.13 1.42.88 1.6 2.07.39 4.08.1 6.31-.6-.82 1.89-1.67 3.5-2.11 5.27-.34 1.35-.04 1.86 1.48 1.66 2.96-.38 2.97-.31 3.2 2.74.16 2.23.26 4.46.47 6.68.1 1.05-.27 1.45-1.29 1.71-2.49.64-2.5.81-.87 2.83.38.47.8.91 1.23 1.33.39.37.83.68 1.2.98-.4.72-.88.47-1.24.57-.92.23-1.81.62-2.1 1.54-.28.95.59 1.5 1.18 2.08.54.53 1.42.88 1.23 1.84-.2 1.06-1.27.95-2.01 1.24-.45.17-.94.25-1.41.33-1.04.17-1.01.55-.36 1.26.4.43 1.3.7.34 1.68-3.69 3.77-7.72 7.03-12.59 9.16.24.37.6.35.97.34 1.5-.02 3-.1 4.5-.3 2.06-.28 2.18-.04 1.88 1.96-.37 2.5-1.59 4.65-2.57 6.9a4.94 4.94 0 0 1-3.87 3.11c-4.7.96-9.44 1.02-14.2 1.08-3.6.05-7.19.12-10.78-.33-3.75-.47-7.23-1.83-10.76-3.01-2.41 2.76-3.37 6.13-4.01 9.63-.11.58-.2 1.18-.3 1.77 0 .6-.05 1.2.02 1.8.1 1.01-.3 1.34-1.31 1.33-4.74-.05-9.48-.03-14.22-.04l-26.07.1-40 .07c-.09 2.17-.58 4.36.26 6.5 2.1.03 4.22.1 6.33.1 97.84 0 195.67-.01 293.5-.04.77 0 1.55.38 2.3-.03.52-2.08.01-4.22.28-6.31h-.01v.02ZM222.77 98.9c-2-2.07-4.52-3.44-6.9-5-3.4 1.12-4.79.66-6.74-2.17-.4-.6-.83-1.24-1.4-1.65-2.08-1.5-3.5-3.62-5.18-5.48-.95-1.05-1.83-2.2-3.16-3.06-.17.74.14.99.33 1.27 1.66 2.47 3.85 4.46 5.92 6.57.27.27.77.53.5 1.03-.2.37-.64.27-.99.26a15.5 15.5 0 0 0-5.84.99c-.83.3-1.5.02-1.76-.77-.24-.74.44-1.02.99-1.27.99-.44 2.06-.73 2.74-1.71-1.12.23-2.19.58-3.23.98-.58.23-1.15.55-1.72.14-1.29-.94-2.5-.27-3.5.35-9.03 5.57-17.92 11.33-26.3 17.85-3.15 2.45-5.86 5.1-6.33 9.4-.17 1.52-.85 3-1.35 4.48a6.23 6.23 0 0 1-1.85 2.85c-.48.41-1.06.64-1.34-.04-1.11-2.7-2.52-5.34-1.7-8.42.59-2.27 1.96-4.29 2.05-6.7l-.7.74-2.2 6.64c-.1.35-.23.81-.63.77-.56-.07-.47-.63-.45-1.02.13-2.4.86-4.73 2.12-6.77-1.52-1.73-4.66-1.32-5.9.64-3.81 6.07-6.23 12.75-8.52 19.47-2.54 7.46-5.11 14.93-6.18 22.8-.06.46-.08 1.19-.64 1.1-.72-.13-.42-.88-.32-1.36.22-1.13.68-2.21.57-3.37-.06-.7-.12-1.5-1.26-1.21-2.27.57-5.27-2.09-4.85-4.5.6-3.74 1.63-7.41 3.06-10.92a9.4 9.4 0 0 0 .85-4.67c-2.62-.3-5.22-.75-7.87-.74-1.08 0-1.59.38-1.87 1.45a155.28 155.28 0 0 0-3.6 16.79c-.19 1.24-.63 2.06-1.82 2.62-2.17 1.04-4.74 1.93-6.08 3.8-1.36 1.9-.45 4.66-.5 7.05-.08 4.82-.02 9.65-.02 14.9l-5.71-3c-1.81 2.1-2.77 4.45-2.17 7.26l1.47.67c1.35.14 2.69.34 3.91.99 2.33.85 4.61 1.8 7.09 2.13 3.46.45 6.93.85 10.4 1.32 2.92.4 6 .53 8.6 1.92 1.32.71 1.93.36 2.83-.25l.42-.58c-.47-.59-.6-1.3-.69-2.02-.83-6.03-.06-12 .64-17.98.13-1.15.08-2.36 1.72-2.49 1.84-.14 3.35.69 3.87 2.28.15.45.2.94.3 1.4.5 2.63.28 5.3.36 7.94 1.77-.07 1.58.9.98 1.96-1.09 1.94-2.33 3.81-2.86 6-.77 3.18-1.98 4.26 2.41 6.43l-.06-.58a7.62 7.62 0 0 1-.02-3.36c.32-3.66 1.94-6.8 4.03-9.72.45-.64.97-1.52 1.75-1.42 1.99.26 2.37-1.09 2.92-2.44.63-1.56 1.38-3.07 2.07-4.6 1.12-2.54 2.3-5.05 2.55-7.87l.03-.4c.02-.2.02-.4.03-.61 0-.96-1.17-1.3-1.2-2.23l-.09-.3c-.38-.64-.3-1.3-.07-1.96l.4-3.95c.8-7.14 3.02-13.98 4.51-20.98-.12-1.15.07-1.96 1.57-1.9.9.04 1.75-.35 2.04-1.39-.14-1.2.28-2.1 1.42-2.61.3-1.23 1.26-2 2.02-2.9l.09-.12.35-.57.05-.08.19-.33c1-1.66 1.97-3.35 3.44-4.63a91.3 91.3 0 0 1 18.77-12.86c6.27-3.15 12.49-2.7 18.43 1.06 4.99 3.16 9.17 7.23 12.93 11.76a9.55 9.55 0 0 1 2.2 6.35c0 3.57-.42 7.11-.8 10.65l-2.3 20.49c-2.09-2.69-3.55-5.5-5.26-8.16-.9.12-1.28-.58-1.7-1.15-2.68-3.7-5.4-7.38-8.02-11.13-2.36-3.39-2.32-3.42.64-6.12-.98-1.17-2.16-.64-3.3-.37-3.93 3.27-7.7 6.74-11.28 10.4-2.36 2.4-4.69 4.84-6.97 7.32-.79.86-1.38.84-2.27.12-1.2-.97-2.2-2.25-3.8-2.67l-.35.4c3.89 3.54 7.33 7.5 10.74 11.5 4.86 5.67 9.1 11.9 14.65 16.96.72.66.45 1.02-.1 1.58-2.8 2.9-5.56 5.82-7.73 9.36-.64-.6-1.18-1.17-1.77-1.67-.52-.45-.9-1.3-2.04-.84 1.54 2.16 3.88 3.04 5.77 4.7-.92-2.8.74-4.52 2.1-6.38 1.44-1.94 3.7-2.87 5.4-4.5.4-.4.92-.93 1.57-.39.52.44.93 1.02.69 1.74-.31.95.04 1.72.43 2.72.81-.82.9-1.72 1.1-2.57.56-2.22.65-4.59 1.9-6.57a98.94 98.94 0 0 1 6.13-8.53c.62-.78 1.1-.7 1.78-.2a5.1 5.1 0 0 1 1.07 6.94 88.84 88.84 0 0 1-9.97 12.41c-.61.63-1.3 1.16-2.21 1.06-2.83-.32-4.01 1.24-4.96 3.67-1.11 2.83-2.3 5.71-4.5 7.98l-3 4.67a36.35 36.35 0 0 1-3.18 6.95c-1.76 4.05-4.76 7-8.37 9.4-.27.32-.5.67-.8.96a70.45 70.45 0 0 1-14.83 10.26 21.61 21.61 0 0 1-9.1 2.68c-3.52.2-7-.1-10.47-.26-3.91-.19-7.83-.04-11.73-.43-4.93-.08-9.86-.04-14.74-.9-.29.06-.56.04-.76-.22l-.1-.07-1.6-.13-1.49-.25-.37-.05a62.96 62.96 0 0 1-9.8-2.89c-.7.07-1.3-.2-1.87-.58-.77-.43-1.63-.75-2.3-1.31-2.28-1.9-4.91-3.63-4.46-7.23-.53-.08-1.19 1.37-1.6-.13-3.11-1.27-5.73-3.31-8.42-5.25-1.38-1-1.99-2.16-1.65-3.85.69-3.38.78-6.82.74-10.26-.31-1.25-.65-2.5-.95-3.77-.17-.7-.43-1.11-1.2-.61-2.1 3.38-4.26 6.73-6.3 10.14-.5.84-1.07 1.12-2 1.2-5.67.49-11.17-.95-16.74-1.43-.5-.04-1.01-.18-1.02-.81 0-1.62-1.23-1.68-2.36-1.93-2.86-.62-2.86-.63-3.1-3.56-.22-2.86-.35-3.01-3.06-3.51-3.08-.57-4.81-2.3-4.37-5.35.33-2.27-.82-2.57-2.34-2.94-.87-.21-1.77-.36-2.66-.53-2.48-.47-5.02-.66-7.44-1.51-1.2-.43-1.66-.98-1.17-2.23.52-1.35.95-2.72 1.42-4.08-1.84-1.65-3.72-3.26-5.52-4.96-.77-.73-1.41-.79-2.17-.1-1.44 1.3-2.93 2.53-4.28 3.9-1.52 1.55-1.5 2.19 0 3.84 4.93 5.4 9.87 10.78 14.81 16.15 3.23 3.51 6.52 6.96 9.7 10.52 4.03 4.5 8.88 6.87 15.03 6.48 3.01-.19 6.04 0 9.06-.06 1.09-.02 1.54.28 1.44 1.41-.55 6.44 3.46 10.64 7.37 14.87.45.48.9.56 1.6.41 4.52-.95 9.07-1.76 13.59-2.73 1.31-.28 1.35.24 1.36 1.25.09 5.5.28 10.98.3 16.48.02 1.37.42 1.7 1.75 1.7 4.9 0 4.9.04 5.15 4.9.2 3.87.43 7.72.56 11.58.03 1.08.36 1.49 1.47 1.45 2.28-.07 4.59-.1 6.88 0 1.23.05 1.52-.4 1.5-1.55-.08-4.71 0-9.42-.15-14.13-.05-1.47.43-1.73 1.71-1.57 1.56.18 3.13.26 4.7.29.83 0 1.26.26 1.17 1.13 3.8.1 7.59.24 11.38.3.87.02 1.29.4 1.62 1.12.75 1.65 1.53 3.27 2.87 4.56 2.05 2 4.3 2.25 6.68.7 2.2-1.42 3.9-3.39 5.76-5.18 2.65-2.55 5.77-4.15 9.48-4.38 3.08-.2 6.12.24 9.16.72.63.1 1.27.23 1.23 1.02-.07 1.37.24 2.77-.34 4.1-.04 2.26.06 4.54-.37 6.79.08 1.14.17 2.29-.14 3.41l.2.6c.76.48 1.63.39 2.45.3 4-.4 8.03-.44 11.89-1.77l.5-.63c-.04-1.38-.06-2.77-.14-4.14-.06-.9.36-1.26 1.2-1.46 2.1-.52 4.15-1.25 6.1-2.19 1.48-.7 2.52-1.7 2.74-3.31.19-1.45 1.04-1.9 2.32-1.95 2.76-.97 5.6-1.81 8.47-.75 2.92 1.1 5.9 1.05 8.9 1.04a6.57 6.57 0 0 1 6.49 4.91c.3 1.02 0 1.5-1.1 1.77-1.43.35-2.88.09-4.31.4-2.24.5-2.26.44-1.73 2.75 6.88 0 13.27-2.3 19.77-4.14 2.14-.61 4.03-1.55 5-3.54 1.88-3.78 5.3-4.16 8.82-4.31 3.02-.13 6.05-.13 9.06-.03 1.81.05 2.46-.46 2.45-2.42-.11-13.72-.1-27.42-.1-41.14 0-2.23.16-4.46.28-6.7.03-.43-.1-1.09.52-1.2.56-.08.78.52 1 .92.61 1.1 1.18 2.23 1.71 3.38.26.58.57 1 1.2.83.9-.25.28-.93.18-1.33-.92-4-1.85-8-2.88-11.97-1.06-4.08-3.41-7.18-7.4-8.78-1.3-.52-1.62-1.22-1.53-2.57 1.73-26.77 3.04-53.55 3.3-80.37.08-7.73.34-15.46.92-23.17.03-.37.11-.75.03-1.09-.15-.68.59-1.89-.53-1.94-.92-.03-.72 1.25-.77 1.94-.3 4.34-.56 8.68-.77 13.02-.73 15.03-.65 30.07-1.17 45.1-.52 15.1-1.89 30.14-3.42 45.16-.2 1.93-.8 2.38-2.53 1.89-.45-.13-.95-.07-1.44-.1.07.9.17 1.8.19 2.7.17 8.8.05 17.61.25 26.42.3 13.09.18 26.19-.22 39.28-.03.96-.16 1.24-1.32 1.2-6.69-.25-13.31-1.21-19.98-1.57-1.33-.07-1.97-.5-1.94-1.95.08-3.38-.53-6.7-.98-10.05-.41-3.1-1.22-6.18-.75-9.34a696.32 696.32 0 0 1 4.6-27.6c.5-2.6 1.09-4.74 4.38-4.57 1.26.07 1.54-.78 1.5-1.92-.09-1.75-.06-3.5-.02-5.26.06-3.38-.7-3.05 3.22-3.16 1.26-.03 1.78.5 1.8 1.68 0 1.27.03 2.53.05 3.8.03 3.76.02 3.72 3.79 3.3 1.03-.12 1.38-.51 1.26-1.49-.48-3.94-.68-7.97-3.5-11.18a4.77 4.77 0 0 1-1.07-4.54c1.5-13.88 1.42-27.77.62-41.68-.1-1.78-1.04-2.41-2.5-2.3-1.74.13-2.23-.63-2.45-2.18-.23-1.67-.76-3.3-1.55-4.79-2.55-2.22-3.73-5.3-5.21-8.2-.1-.18-.06-.46-.02-.68.27-1.45-.54-2.17-2-1.77v.02l.01.01Zm-18.96 65.89c-1.64-.17-2.78-1.22-3.73-2.37a235 235 0 0 1-13.89-18.28c-.65-.96-.77-1.67.21-2.62 4.34-4.19 8.64-8.44 12.88-12.73 1-1 1.64-.82 2.46.18 5.1 6.35 9.95 12.89 14.53 19.62.72 1.04.6 1.8-.14 2.73-2.12 2.7-4.13 5.5-6.29 8.17a24.72 24.72 0 0 1-4.95 4.74c-.33.23-.58.64-1.08.56Zm11.5 45.4a69.18 69.18 0 0 0-3.98-7.58c-2.29-3.76-4.97-7.28-6.97-11.21-1-1.97.05-3.78 2.27-3.96a12.1 12.1 0 0 1 2.17.04c3.95.42 6.13 2.22 6.5 6.03.47 4.98.67 9.99.45 15-.02.4-.2.8-.44 1.68Zm-64.7-67.82c.95-2.8 2.02-5.51 3.79-7.87-.76 2.88-1.12 5.95-3.79 7.87Zm42.47-51.47c.07-.7.42-.88 1-.75 1.36.29 2.18 1.24 2.8 2.35.23.43.7 1.1.24 1.49-.58.48-.87-.34-1.26-.63-.67-.5-1.32-1.04-1.95-1.6-.31-.27-.57-.6-.83-.87Zm-45.6 24c-.58-.09-1.03-.38-.61-1.06.54-.87 1.15-1.7 1.8-2.48.3-.37.83-.66 1.1.06.26.7-1.55 3.44-2.28 3.48h-.01Zm40.77-52.15c-2.34-5-.28-9.81.59-14.69.19-1.08.95-1.3 1.75-1.55 3.69-1.12 7.37-2.28 11.1-3.3 1.8-.48 2.53-1.43 2.17-3.25-.34-1.72-.62-3.45-1.03-5.14-.32-1.34-.07-2.11 1.39-2.53.56-.16 2.16.18 1.48-1.45-1.18.05-2.34-.2-3.46.58-2.27 1.56-2.33 1.5-4.01-.8-.35-.48-.87-.86-.94-1.51v-.02l-.33-.41c-3.3-4-6.73-7.85-10.7-11.2-.6-.33-1.13-.83-1.9-.66l-.02.02-.41.3c-.63.34-1.3.65-1.88 1.05-.96.65-1.9.7-2.88.1-6.98-4.24-14.22-3.86-21.55-1.13-2.3.86-4.51 2-6.77 3-6.2 3.51-12.58 6.67-19.5 8.48-2.53.66-5.18 1.15-7.86.48-1.53-.39-2.47-1.06-2.37-2.84a5.66 5.66 0 0 0-.61-2.97c-.03.42.05.89-.1 1.24-.17.36-.24 1-.96.83-.57-.15-.76-.51-.73-1.07.08-1.45.15-2.89.2-4.34.01-.72.1-1.48-.08-2.17-.31-1.25.22-2.99-1.53-3.54-2.51-.8-4.2-.16-5.62 1.91-.2.3-.4.6-.58.92-1.37 2.31-1.6 2 .85 3.18 1.13.55 1.42 1.18 1.16 2.42-.93 4.5-2.34 8.85-3.65 13.24-.7 2.37-.36 2.9 2.06 3.2.95.12 1.93.11 2.9.14 2.46.07 2.58.07 2.68 2.57.07 1.7.62 2.13 2.29 1.91 2.32-.3 4.68-.4 7.04-.18 4.93-.23 9.86-.5 14.8-.66 1.62-.06 3.26.1 5.11 1.29-7.16 1.44-13.68 3.35-20.25 5.08-.65 2.09.19 3.95.87 5.83.69.34.93 1.08 1.42 1.6 2.84 2.98 1.82 2.9 5.55.96l.31-.19c3.21-1.79 6.15-4.05 9.59-5.43 1.99-.8 3.04-.16 3.17 1.92.04.67-.17 1.43.97 1.58 2.64.33 2.64.38 2.87 3.12.07.9.1 1.8.13 2.7.02.78.2 1.5.94 1.83 1.06.48 1.1 1.32.94 2.26l-2 11.03c-.12.67-.52 1.03-1.15 1.26l-14.9 5.53c-.25.26-.51.51-.74.79-.95 1.1-1.21 2.06.56 2.62.44.14.92.4 1.23.75 1.6 1.82 3.28 1.7 5.26.55 1.5-.87 3.19-1.42 4.8-2.1.55-.24 1.33-.65 1.64-.04 1 1.93 2.38.63 3.62.58 1.67-.08 2.41-1.08 2.68-2.6.43-1.99 1.9-3.44 2.73-5.24.2-.43.63-.53 1.08-.52 1.64.03 3-.75 4.42-1.43 8.9-4.26 17.63-8.9 26.15-13.88s0-.01 0-.01Zm-.75-40.95c.72.07 1.23.44 1.62 1.03l2.54 3.73c2.38 3.49 4.84 6.93 6.38 10.9.2.38.44.73.6 1.11.92 2.15.82 2.28-1.49 2.82-3.28.77-6.56 1.57-9.84 2.39-1.1.27-2.12.3-3.06-.41-4.37-.06-6.35-3.2-8.3-6.39-1.32-1.73-2.59-3.49-3.96-5.17-2.04-2.49-4.84-3.46-7.8-2.65-4.91 1.35-10.13 2.54-11.97 8.39-.11.34-.4.6-.55.93-.25.58-.7.74-1.29.78-9.58.68-19.18.9-28.77 1.19-.61 0-1.3.1-1.12-.89-.47-.3-.75-.85-1.5-.81-1.05.06-1.44-.64-1.46-1.63-.07-2.99.25-5.93.98-9.09 3.23 3.47 7.19 2.64 10.97 2.28 3.86-.37 7.33-2.21 10.96-3.44.79-.43 1.54-1.03 2.39-1.25 4.73-1.27 8.85-3.75 12.98-6.26 2.26-1.37 4.63-2.64 7.42-2.63 4.16-.56 8.34-.73 12.26 1.02 2.91 1.3 5.8 2.24 9.04 1.9 1.1-.1 1.84.45 2 1.62.48-.1.75.18.97.54Zm-28.98 49.46c.3-1.91.6-3.56.82-5.22.13-1 .48-1.43 1.61-1.33 2.48.21 4.93-.13 7.36-.7 6.07-1.4 5.8-.46 6.84-7.5.08-.54 0-1.12.7-1.32l5.8-1.66c-3.14 5.09-6.19 9.78-11.9 11.8-.95.34-1.77 1.03-2.68 1.5-2.76 1.45-5.37 3.19-8.55 4.43Zm-39.58-30.9c.22-.02.39-.07.53-.03.17.04.17.18.01.26a.5.5 0 0 1-.34.03c-.06-.02-.1-.13-.2-.27Z"/><path fill="#837d5a" d="M228.18 404.26c-1.43-3.48-2.9-6.94-5.2-9.96-.8 0-1.54.18-2.29.46-2.83 1.04-5.65 2.08-8.5 3.07-.62.22-1.26.68-2.13.28 1.23-2.08 3.27-3.37 4.5-5.4-.36-.1-.58-.2-.81-.23-1.45-.24-1.66-.85-.65-1.94.8-.88 1.45-1.87 1.43-3.16-10.15 1.23-16.35.95-19.59-.84 1.79-1 3.7-1.75 5.7-2.21 3.03-.64 5.64-1.76 6.2-5.3.36-3.44.95-6.9.6-10.37-.22-2.25-.13-4.64-1.66-6.59-.98 1.48-3.9 2.17-6.18 1.63-1.32-.31-1.25-.93-.62-1.75 1.52-1.96 3.34-3.46 5.93-3.71-1.29-4.69-1.28-9.53-1.75-14.32-.25-2.44-.23-2.5-2.5-1.85-4.8 1.36-9.57 2.8-14.62 3.18-3.43.27-6.87-.08-10.29.52-3.47.61-3.65.73-3.17 4.28.04.3.07.6.06.9-.15 4.43.59 8.62 3.28 12.3 3.2.26 6.38-.33 9.57-.39.88-.02 1.66.04 2.22.87 1.05 1.55 2.6 2.04 4.4 2.03 1.06-.01 2.15-.03 3.2.61-.55.89-1.44 1.16-2.28 1.37-1.25.32-1.58.87-1.25 2.19.76 3.07.85 5.94-1.84 8.45-3.95 3.7-7.45 7.9-12.26 10.62.35 1.62.67 3.25 1.4 4.75 2.95.97 5.81 2.26 8.94 2.56 1.64.16 1.95 1.1 1.58 2.5-.47 1.72-1.65 3.02-2.68 4.41-.51.7-1.6 1.25-1.01 2.45a14.92 14.92 0 0 0 5.55 6.18c.95.1 1.73-.48 2.6-.66 6.2-1.23 12.47-1.95 18.76-2.62 3.75-.4 7.63-.6 10.83-2.97a6.7 6.7 0 0 1 4.53-1.34Zm-16.3-11.44-.03.13-.19-.04c.03-.04.05-.1.09-.11.03-.02.08.01.13.02Z"/><path fill="#f5ba3b" d="m169.13 252.32-.2-.6a43.07 43.07 0 0 0-14-4.04c-1.99-.25-4.28-.74-5.98.65-2.04 1.67-3.9 1.42-5.96.34a9.44 9.44 0 0 0-1.84-.74c-7.16-1.98-14.3-1.71-21.44.07-.69 5.24-1.46 10.48-2.03 15.74-.58 5.28-.44 10.59-.43 15.9 0 .95.17 1.78.84 2.47l40.71-.06c3.15-.01 2.57.3 2.63-2.54v-1.45c.13-4.88.68-5.52 5.55-6.13.93-.12 1.38-.36 1.43-1.4.17-4.25.43-8.51.66-12.77l.07-5.44h-.01Zm-23.5 9.04c-.34-2.2-.02-4 .38-5.8.12-.53.1-1.38.9-1.35.84.02 1.63.43 2.25 1.02.55.52.3 1.12 0 1.64a23.63 23.63 0 0 1-3.52 4.5Z"/><path fill="#6e6d56" d="M235.88 160.48a4.82 4.82 0 0 0 1.08 4.55c2.82 3.2 3.02 7.24 3.5 11.18.12.97-.23 1.36-1.27 1.48-3.76.43-3.75.47-3.78-3.3l-.06-3.8c0-1.18-.53-1.7-1.79-1.67-3.91.1-3.16-.22-3.22 3.16-.04 1.75-.07 3.5 0 5.25.05 1.15-.23 2-1.5 1.93-3.28-.17-3.87 1.96-4.36 4.58a696.32 696.32 0 0 0-4.6 27.6c-.48 3.15.33 6.24.74 9.33.44 3.34 1.06 6.67.98 10.05-.03 1.44.6 1.88 1.94 1.95 6.67.35 13.3 1.32 19.98 1.57 1.16.04 1.3-.23 1.32-1.2.4-13.1.51-26.2.22-39.28-.2-8.8-.08-17.62-.25-26.42-.02-.9-.12-1.8-.19-2.7-.85-.1-1.16-.79-1.47-1.43-.98-2-2.49-2.96-4.77-2.7-.82.1-1.66-.08-2.5-.13Z"/><path fill="#837d5a" d="M195.98 515.87c2.2-.19 4.14.63 6.07 1.5.53.23 1.14.57 1.03 1.31-.08.6-.59.9-1.13 1.05-6.2 1.8-12.21 4.1-18.23 6.43-3.06 1.19-6.42.8-9.67.82-1.89 0-2.84.93-2.87 2.76-.02.9 0 1.8 0 2.71.1 4.36 2.4 7.17 6.7 7.23 7.45.11 14.96.86 22.32-1.02 3.8-.98 7.6-1.93 11.37-2.98 2.58-.73 5-.6 7.27.89a5.1 5.1 0 0 0 4.8.56c1.2-.41 2.44-.7 3.67-.96 5.83-1.22 9.84-4.57 12-10.13a35.16 35.16 0 0 0-3.48-7.2 229.56 229.56 0 0 0-12.7-2.74c-2.98-.56-4.75-3.06-4.78-6.07-.09-4.34.25-8.67 1.02-12.94.26-1.31-.28-1.96-1.46-2.22a11.22 11.22 0 0 0-4.47-.1 37.04 37.04 0 0 0-8.64 2.44c1.74 1.34 3.72 1.76 5.1 3.1.42.4 1.14.77.98 1.4-.16.68-.94.63-1.51.72-.83.13-1.68.21-2.5.37-2 .38-4.04.63-5.7 2 1.68-.24 3.3-.81 4.97-.18.94.36 2.44.37 2.52 1.39.09 1-1.43 1-2.27 1.36-1.88.78-3.86 1.35-5.91 2.58 1.88.63 3.54.85 4.88 1.82.47.35 1.04.72.8 1.47-.22.71-.83.75-1.46.78-1.38.06-2.76.03-4.15.19-1.6.18-3.25 1.05-4.88.03l.3 1.63Z"/><path fill="#2e383c" d="M195.68 514.24c1.63 1.02 3.27.14 4.88-.04 1.4-.15 2.77-.12 4.16-.19.62-.02 1.24-.06 1.46-.78.23-.74-.34-1.12-.8-1.46-1.35-.98-3-1.2-4.9-1.82 2.06-1.24 4.04-1.8 5.93-2.59.83-.34 2.35-.35 2.27-1.36-.09-1.01-1.6-1.03-2.52-1.38-1.68-.64-3.3-.06-4.98.18 1.66-1.37 3.7-1.62 5.7-2 .83-.16 1.67-.24 2.5-.37.58-.1 1.36-.05 1.52-.71.15-.65-.56-1-.98-1.41-1.4-1.34-3.37-1.76-5.1-3.1a36.99 36.99 0 0 1 8.63-2.45c1.5-.28 3-.21 4.47.1 1.18.26 1.73.91 1.47 2.22a63.78 63.78 0 0 0-1.02 12.94c.02 3.02 1.79 5.51 4.76 6.08 4.26.8 8.5 1.68 12.71 2.73-2.8-8.64-4.15-17.4-2.34-26.44l-.65-1.65-1.44-.19c-.5.25-.96.2-1.4-.13-1.01-.1-2.02-.26-3.04-.31-3.88-.2-4.59-1.29-3.11-4.94.29-.72.74-1.39 1.22-2 .97-1.22 2.01-2.39 3.03-3.58.15-2.62.19-5.24-1.04-7.68a82.33 82.33 0 0 0-4.94-7.82c-1.05-1.31-2.28-2.5-3.1-3.98-2-1.91-2.54-4.42-2.89-7l-1.5-4.28a42.91 42.91 0 0 0-4.27-4.67c-4.27-4.08-8.06-8.51-9.43-14.49-.71-3.11-1.45-6.23-2.02-9.37a7.05 7.05 0 0 0-2.6-4.38c-1.63-1.34-3.42-2.49-4.85-4.07a14.89 14.89 0 0 1-5.56-6.18c-.62-.05-.9-.54-1.24-.95a27.62 27.62 0 0 1-5.58-10.97c-.73-1.5-1.06-3.13-1.4-4.75a25.2 25.2 0 0 1-2.04-16.03c.58-3.2.83-6.47.27-9.72-2.68-3.68-3.42-7.87-3.28-12.3 0-.3-.02-.6-.06-.9-.47-3.55-.3-3.67 3.17-4.28 3.42-.6 6.86-.25 10.3-.52 5.04-.4 9.81-1.82 14.62-3.19 2.26-.64 2.24-.58 2.49 1.86.48 4.78.47 9.63 1.75 14.32.39 1.25.9 2.48.88 3.83 1.53 1.95 1.43 4.33 1.66 6.59.35 3.47-.24 6.92-.6 10.37 3.05.74 5.59 2.85 8.75 3.27-.02-1-1.22-1.36-1.28-2.34-.34.26-.7.47-1.16.34-3.78-1.07-5.15-1.35-4.89-5.54.26-4.28.21-8.48-.82-12.65a14.8 14.8 0 0 1-1.15-4.62c-1.28-5.22-.9-10.61-1.73-15.88-.12-.81.54-1 1.13-1.13 1.7-.39 3.4-.74 5.1-1.1.55-.23 1.12-.42 1.66-.69 1.41-.69 3.39-.7 4-2.44.82-2.39 1.34-4.94.4-7.4a25.56 25.56 0 0 0-4.63-7.86c0 .97.59 1.7 1.03 2.47.98 1.73 2.27 3.38 2.6 5.34.69 4.11.27 7.92-4.44 8.96-10.3 2.26-20.09 6.7-31 6.53-7.26-.12-14.5 1.37-21.8 1.28-3.23-.04-3.23.01-4.34-3.08l-5.46-7.26c1.85-.81 3.8-1.39 5.79-1.74 6.32-1.03 12.7-1.23 19.08-1.52 4.87-.23 9.73-.25 14.37-2.25 7.85-3.39 15.7-6.78 23.08-11.14.54-.7.45-1.4-.02-2.1-2.36 1.34-4.69 2.72-7.07 4-3.97 2.12-7.89 4.38-12.33 5.45-4.01 2.32-8.28 3.82-12.97 3.97-8 .26-16.02.6-23.95 1.83-2.74.42-5.46 1.03-7.89 2.46-.61.36-1.44.83-.25 1.51 2.31 1.34 3.73 3.54 5.41 5.5 1.78 2.07 2.8 4.6 4.33 6.8.88-.13 1.63-.66 2.56-.72 2.92-.16 5.83-.41 8.74-.65 1-.08 1.57.38 1.8 1.33.53.49.81 1.12 1.04 1.8.89 1.04.86 2.4.9 3.6.07 2.06.85 4.12.21 6.2 1.16.29 1.7 1.21 2.26 2.13 1.37 2.28 1.07 4.75.84 7.2-.32 3.54-.99 7.03-1 10.6.54 4.53 2.32 8.76 3.27 13.19a47.86 47.86 0 0 0 7.4 14.02c1.7 1.78 3.02 3.88 4.99 5.4 1.8 1.3 3.57 2.65 5.41 3.9a7.3 7.3 0 0 1 3.32 5.5 57.5 57.5 0 0 0 4.35 15.97 38.57 38.57 0 0 0 7.18 8.62c.83.26 1.43.8 1.87 1.53a15.52 15.52 0 0 1 3.19 6.65 19.66 19.66 0 0 0 4.86 8.68 33.82 33.82 0 0 1 5.52 7.94c2.4 4.02 2.2 7.73-.65 11.25a12.68 12.68 0 0 0-2.88 5.72c-.19 1.04-.78 1.42-1.8 1.17l-1.27-.24c-3.9.31-7.8.7-11.7.9-1.7.07-3.46.43-5.14-.24l-.8.38-.14.03c-.15.02-.3.06-.44.09-.7.46-1.65-.07-2.3.58a5.05 5.05 0 0 0 4.13 3.27c-.29.87-.96 1.12-1.51 1.43-1.14.66-1.16 1.32-.3 2.25.59.62 1.39 1.08 1.71 1.9-1.51.68-3.43 1.09-3.85 2.75-.36 1.43 1.45 2.09 2.36 3.13-.54.47-1.07.96-1.64 1.41-.82.65-.97 1.22-.05 1.98.46.38 1.32.69 1.04 1.51-.26.8-1.12.52-1.73.68-.24.06-.47.1-.71.14-2.11.38-2.7 1.46-1.75 3.27s-.01 0-.01 0Z"/><path fill="#837d5a" d="M196.2 237.18c-1.28.04-2.13.5-2.32 1.95-.22 1.62-1.26 2.61-2.74 3.3-1.95.94-4 1.68-6.1 2.2-.84.2-1.26.55-1.2 1.46.09 1.37.1 2.76.14 4.14 1.3-.15 2.37-.85 3.45-1.46 1.39-.77 2.83-.84 4.35-.8.97.03 1.21.48 1.17 1.36-.08 2.02-1.68 3.65-4.17 3.98-1.72.23-3.46.28-5.2.41-.67 1.18-.25 2.48-.42 3.72 0 5.78.06 11.56-.08 17.34-.05 1.97 1 1.83 2.35 1.94 1.63.14 1.7-.72 1.75-1.96.05-1.27-.7-3.2.42-3.7a5.9 5.9 0 0 1 5.37.5c.7.33 1.07.9 1.13 1.68l.67 8.12c3.5.57 7.07.46 10.6 1.03 5.03.83 9.88 2.17 14.53 4.26.75.33 1.61.61 1.77 1.63l.36-.04c3.03-.27 2.87-.23 2.08-3.17a274.45 274.45 0 0 0-9.4-29.08l-1-2.52c-.5-.19-1.03-.33-1.5-.58-6.77-3.77-11.5-9.63-16.02-15.71Z"/><path fill="#f5ba3b" d="M34.58 167.31c-.47 1.36-.9 2.73-1.42 4.08-.48 1.24-.02 1.8 1.18 2.23 2.41.85 4.95 1.05 7.43 1.51.9.17 1.79.31 2.66.53 1.52.37 2.67.67 2.34 2.94-.44 3.05 1.29 4.78 4.37 5.35 2.71.5 2.84.65 3.07 3.52.23 2.92.23 2.93 3.1 3.55 1.13.25 2.34.31 2.35 1.93 0 .63.53.78 1.02.82 5.57.47 11.07 1.91 16.73 1.42.94-.08 1.5-.36 2-1.2 2.06-3.4 4.2-6.76 6.32-10.14-.07-2.22-.95-4.2-1.86-6.15-1.43-3.03-.93-3.87 2.46-3.92.35 0 .7.1 1.06.15l5.87.88c1.22.18 1.81-.14 1.97-1.56.22-2.07.1-4.22 1.01-6.18-2.4-1.35-5.02-1.85-7.72-2.03-1.05-.08-1.77.6-2.46 1.3-.71.7-1.3 1.63-2.47 1.65-.33 1.93-1.73 3.27-2.7 4.85-1.46 2.42-1.63 2.42-4.38 1.82a43.28 43.28 0 0 1-14.66-5.93 4.22 4.22 0 0 0-3.26-.62c-2.39.44-4.66 1.22-6.94 1.98-1.67.55-3.37 1.06-5.03-.1a2 2 0 0 1-1.6-.4c-.7 1-1.55.88-2.54.44-1.82-.8-3.06-2.33-4.56-3.52-1.2-.06-2.21.62-3.34.8Zm156.88 244.54c1.43 1.58 3.22 2.73 4.84 4.07a7.05 7.05 0 0 1 2.6 4.38c.58 3.15 1.32 6.26 2.03 9.37 1.37 5.98 5.16 10.4 9.44 14.49a42.73 42.73 0 0 1 4.25 4.67c.53-.14 1.04-.4 1.57-.42 2.72-.12 5.38-.67 8.04-1.16.8-.14 1.18-.55 1.64-1.19 1.04-1.46-.16-2.57-.34-3.83-.41-2.82-.77-3.17-3.6-3.5-.78-.09-1.57-.07-2.36-.1-4.31-.09-4.71.26-5.24 4.5 0 .13-.19.23-.39.47-.58-1.75-1.99-2.1-3.45-2.3-1.7-.22-2.93-1.12-4.21-2.75 1.78 0 3.2-.03 4.63 0 .94.02 1.81-.12 2.54-.76 2.38-2.13 5.08-3.17 8.31-2.5 1.09.23 1.44-.32 1.63-1.35.4-2.22.33-4.44.38-6.67 0-.73-.42-1.36-.22-2.13a8.96 8.96 0 0 1 8.73-6.84 48.45 48.45 0 0 0-3.37-12.85c-.17-.44-.3-.92-.73-1.2a6.7 6.7 0 0 0-4.53 1.34c-3.2 2.37-7.09 2.57-10.83 2.97-6.28.67-12.55 1.4-18.75 2.63-.89.17-1.66.76-2.6.66Zm22.33 3.25c-.6-.02-1.21 0-1.8-.1-.55-.08-.8-.48-.86-1.02-.05-.46.04-.9.57-.96 1.91-.18 3.83-.35 5.76-.44.7-.03.76.66.79 1.2.03.6-.29.87-.87.92-1.2.12-2.4.27-3.59.4Zm6.84 7.54c1.48-.01 1.75.2 1.72 1.25 0 .39-2.34 2.35-2.7 2.16-.91-.5-.6-1.58-.72-2.35-.18-1.26 1.04-.94 1.7-1.06Zm21.34 112.06c-.15 1.38-.27 2.76-.45 4.13-.12.93.2 1.35 1.17 1.28.6-.04 1.2 0 1.8 0l59.15.03c.54 0 1.08-.04 1.62-.07.02-5.43.02-10.87.06-16.3 0-.97-.3-1.4-1.34-1.47-7.24-.5-14.47-.14-21.71.02-.83.02-1.23.36-1.21 1.2.01.55-.01 1.09-.01 1.63-.02 3.23-.02 3.29-3.48 3.3-7.19.05-14.37.03-21.56.03-2.46 0-2.46.01-2.46 2.5 0 2.45-1.28 3.68-3.8 3.67-2.6 0-5.2.03-7.79.04ZM188.25 62.75a359.13 359.13 0 0 1-26.15 13.89c-1.41.67-2.78 1.46-4.42 1.42-.44 0-.88.1-1.08.53-.82 1.79-2.3 3.24-2.72 5.24 1.26 3.01 1.04 6.26 1.46 9.4.1.71.1 1.44.14 2.16 1 .19.92.99.94 1.7.02 1.5.02 3.02 0 4.52-.02 1.34.15 1.93 1.69 1.01 7.55-4.52 15.16-8.95 22.75-13.4 5.36-3.14 10.72-6.25 16.08-9.38-1.22-1.64-1.7-3.72-3.16-5.21-.33-.09-.33-.33-.3-.59-2.07-3.6-3.09-7.7-5.22-11.29h-.01ZM159.1 93.86c11.1-6.53 21.46-14.36 33.97-19.17-1 1.09-32.66 19.07-33.97 19.17Z"/><path fill="#5d5f52" d="M196.94 79.84c-5.36 3.13-10.73 6.24-16.08 9.38-7.6 4.45-15.2 8.88-22.76 13.4-1.53.92-1.7.33-1.69-1 .02-1.52.02-3.02 0-4.53 0-.7.06-1.51-.93-1.7-1.3 2.18-3.23 3.85-4.7 5.89l-1.27 1.75c1.27 1.55 2.98 1.86 4.87 1.84 2.12-.03 2.12.02 1.62 2.1l.03 1.16c.34.24.28.47-.03.68v-.02c-.09 2.42-1.45 4.44-2.05 6.7-.81 3.1.6 5.73 1.7 8.42.29.69.87.46 1.35.05a6.3 6.3 0 0 0 1.84-2.85c.5-1.48 1.19-2.96 1.36-4.49.47-4.3 3.17-6.95 6.33-9.4 8.38-6.5 17.27-12.27 26.3-17.84 1-.62 2.21-1.3 3.5-.36.56.41 1.14.1 1.71-.13a20.2 20.2 0 0 1 3.24-.99c-.68.99-1.76 1.27-2.74 1.72-.56.25-1.23.52-.99 1.26.26.79.93 1.07 1.76.77a15.73 15.73 0 0 1 5.84-.98c.34 0 .79.1.98-.26.28-.5-.22-.76-.5-1.04-2.06-2.1-4.25-4.09-5.91-6.56-.2-.29-.5-.53-.33-1.28 1.33.87 2.21 2.02 3.16 3.06 1.69 1.87 3.1 3.98 5.19 5.49.56.4.98 1.05 1.38 1.64 1.96 2.84 3.36 3.3 6.75 2.18a49.18 49.18 0 0 0-8.62-13.04c-.77.12-1.19-.72-1.93-.71l-.04.03c.37 2.47 1.56 4.64 2.56 6.88l.06.13-.06-.13c-2.24-1.58-3.46-3.93-4.55-6.32-1.06-2.33-.74-2.7 1.69-2.4-.79-1.17-1.76-1.44-3.05-.8-1.64.82-3.33 1.54-5 2.3Zm-2.87 7.22.36.36.26.36-.13.09-.14-.44-.35-.36-.08-.14.08.13Zm4.13-6.08-.05-.13s.1-.04.11-.03c.03.03.04.08.06.12l-.12.04Z"/><path fill="#f5ba3b" d="m134.82 83.27 14.91-5.52c.62-.23 1.03-.6 1.15-1.26l2-11.03c.16-.95.12-1.79-.94-2.27-.75-.34-.93-1.05-.94-1.82-.03-.9-.07-1.8-.14-2.71-.22-2.73-.22-2.78-2.86-3.12-1.14-.15-.93-.9-.98-1.58-.13-2.08-1.18-2.71-3.17-1.92-3.44 1.39-6.37 3.65-9.58 5.43l-.31.19c-3.73 1.95-2.72 2.02-5.55-.96-.5-.52-.74-1.26-1.42-1.6-.18.24-.5.46-.52.7-.15 3.28-1.64 6.14-2.74 9.13-.42 1.13-.2 1.7 1.03 1.87.89.13 1.76.49 2.65.53 1.34.05 1.84.73 1.74 1.95-.14 1.58.28 2.83 1.7 3.7.84.51 1.03 1.3.51 2.18-.47.83-.5 1.6.33 2.25 1.49 1.18 2.5 2.58 2.27 4.62-.07.6.28 1.02.86 1.23 0 0 0 .01 0 0Z"/><path fill="#837d5a" d="M154.27 342.49c1.11 3.1 1.11 3.05 4.34 3.08 7.3.09 14.55-1.4 21.8-1.28 10.92.17 20.7-4.27 31-6.53 4.72-1.04 5.13-4.85 4.44-8.96-.33-1.96-1.61-3.61-2.6-5.34-.44-.78-1.02-1.5-1.02-2.47l-.45-.74a58.72 58.72 0 0 1-11.94 6.67c-3.22 1.35-6.37 2.9-9.53 4.41-2.06 1-4.15 2.4-4.62 4.6-.79 3.7-3.1 4.05-6.08 3.73a8.07 8.07 0 0 0-1.63.02c-1.11.12-1.82-.24-2.17-1.39-.43-1.4-1.37-1.77-2.82-1.3-2.19.67-4.44 1.13-6.65 1.76-4.05 1.15-8.22 1.94-12.08 3.74h.01Z"/><path fill="#f5ba3b" d="M150.86 20.16c2.25-1 4.46-2.14 6.77-3 7.33-2.72 14.56-3.1 21.55 1.13.97.6 1.92.56 2.87-.1.6-.4 1.25-.7 1.88-1.05l.41-.3h.02c.85-1.41 2.36-1.53 3.7-1.9 2.43-.65 4.87-1.22 7.13-2.35a16.94 16.94 0 0 0-7.88-7.45c-4.8.8-9.59 1.47-14.45.64-1.48-.25-3-.34-4.45-.67-1.67-.38-3.41-.14-5.15-.5.38-1.05 1.18-1.15 1.78-1.5 1.94-1.1 4.24-1.35 6.14-2.55-2.5-.89-5.11-.48-7.64-.32-5.76.35-11.5 1.1-17.04 2.82-1.22.38-2.64.42-3.54 1.58 1.26 2.62 1.32 2.7-.84 4.45-1.13.91-.53 1.13.27 1.53a10.44 10.44 0 0 0 10.85-.5c1.65-1 3.15-2.25 4.43-3.7 1.44-1.66 2.89-.23 4.33-.07.69.08.82.65.8 1.22-.07 1.59.37 3.1.66 4.64.18.96 0 1.33-1 1.36-1.77.06-3.5.48-5.12 1.1-2.77 1.07-5.43 2.36-6.48 5.5Zm31.73-8.44a12.9 12.9 0 0 1-5.07-2.79 5.75 5.75 0 0 1 4.4-.36c1.21.45.1 2.08.67 3.15Z"/><path fill="#837d5a" d="M191.71 325.93c4.44-1.07 8.36-3.33 12.33-5.45 2.38-1.28 4.71-2.66 7.06-4-.1-3.4-.37-6.8-.83-10.17-.1-.76-.43-1.48-.65-2.22-.43-.5-.8-1.02-.97-1.7a1.64 1.64 0 0 0-2.46-.99c-.44.27-.7.7-.05.89 1.32.38 1.15 1.61 1.83 2.52-2.51.54-4.73 1.25-6.63 2.72-2.06 1.6-2.08 1.58-3.85-.3-.17-.18-.31-.36-.47-.55l-.11-.07c-.2 2.74-.78 5.45-.64 8.21.07 1.42-.55 1.7-1.82 1.7-2.69.01-5.4-.29-8.07.28-6.76-.02-13.53.34-20.28-.28.32.71.7 1.4.96 2.14a6.68 6.68 0 0 0 4.3 4.34c1.35.47 2.74.86 4.11 1.28-2.5-.22-5.01-.29-7.52-.2-1.58.06-3.12.34-4.6.89-.4.14-.82.32-.75.87.07.5.44.7.9.73.53.04 1.08.07 1.62.06 3.57-.11 7.12.13 10.62.84.83.17 1.72.53 2.4-.14.68-.66.09-1.55.02-2.57 4.51 1.51 9.05 1.23 13.57 1.18h-.02Zm40.57 92.38a8.96 8.96 0 0 0-8.73 6.84c-.2.77.23 1.4.21 2.13-.05 2.23.04 4.45-.37 6.67-.19 1.03-.54 1.58-1.63 1.35-3.22-.67-5.93.37-8.31 2.5-.73.64-1.6.78-2.54.76-1.42-.02-2.85 0-4.63 0 1.28 1.63 2.5 2.53 4.21 2.76 1.46.2 2.87.54 3.45 2.3.2-.25.38-.35.39-.48.53-4.24.93-4.59 5.24-4.5.79.03 1.58 0 2.36.1 2.83.34 3.19.68 3.6 3.5.18 1.25 1.38 2.38.34 3.83-.46.64-.84 1.05-1.64 1.2-2.66.48-5.32 1.03-8.04 1.15-.53.03-1.04.28-1.57.42l1.51 4.28c.42-.04.86 0 1.25-.13 1.46-.47 2.6-.26 3.61 1.08.93 1.25 2.43 1.75 3.93 2 4.06.68 8.13.43 12.19-.05-.1-1.2-.95-2.05-1.46-3.05-.76-1.5-1.63-2.97-2.4-4.46-.71-1.37-1.18-2.58-.52-4.33.7-1.85.63-4.02.72-6.07.32-6.63.32-13.26-1.16-19.8h-.01Zm-6.25 21.35c.56-1.64 1.27-3.1 1.36-4.75.03-.48.16-.83.69-.86.41-.03 1.05-.06 1.02.44-.1 1.33 1 1.78 1.66 2.55.94 1.11.77 1.86-.63 2.12-1.34.25-2.71.33-4.1.5Z"/><path fill="#5d5f52" d="M74.88 157.68a615.3 615.3 0 0 0-21.25-22.1c-.47-.46-.95-.93-1.66-1.02-.71.63-1.71.73-2.38 1.53a98.02 98.02 0 0 1-5.25 5.91c-3.7 3.79-7.49 7.48-11.22 11.23-.57.57-1.39 1.02-1.33 2.03.5-.03.95.03.97.68l.36.36.42-.04c1.49-1.19 3.26-.98 4.98-1.04 4.23-3.5 8.2-7.3 12.18-11.06.61-.57.99-.9 1.68-.02a48.12 48.12 0 0 0 3.44 3.7c.73.74.64 1.22-.1 1.9-1.42 1.3-3.02 2.4-4.23 3.92 1.57.96 3.03.05 4.53-.26.43.04.64.3.67.72l1.07.73c.46.04.7.28.73.74.46.02.7.26.73.72.3 0 .56.09.72.36l.36.36c.7.04 1.05.41 1.09 1.09s.37.36.37.36l.37.37.37.36.37.36h-.02l.38.37.37.36c.46 0 .71.25.73.72.46 0 .7.26.72.73s.37.36.37.36l.37.36h-.02l.38.37v-.02l.36.38h-.01c1.68.7 3 .05 4.16-1.13 1.43-1.44 2.83-2.92 4.24-4.38Z"/><path fill="#2e383c" d="m57.77 154.84-1.07-.73c-1.26 1.18-2.5 2.39-3.8 3.55-.44.4-.79 1.13-1.62.8l-.02.02c.3.78-.43 1.03-.8 1.4-1.7 1.76-3.46 3.46-5.2 5.18-.46.46-.86 1.01-1.6 1.02a18.08 18.08 0 0 1 2.97 3.92c1.65 1.15 3.36.64 5.02.09 2.3-.75 4.56-1.54 6.95-1.98a4.24 4.24 0 0 1 3.25.62 43.41 43.41 0 0 0 14.67 5.93c2.75.6 2.92.6 4.38-1.82.97-1.57 2.37-2.91 2.7-4.85-2.1-3.67-4.98-6.7-8-9.6-1.84 1.7-3.68 3.37-5.5 5.07-1.32 1.23-2.52 1.12-3.62-.28l-.37-.37h.01l-.37-.36h.01l-.37-.36-.36-.37c-.36-.12-.6-.37-.73-.72-.34-.12-.6-.39-.73-.72h.02l-.38-.37-.37-.36-.37-.37v.02l-.36-.38-.37-.36-.37-.37v.02c-.61-.12-1.05-.4-1.09-1.09l-.35-.36c-.33.04-.56-.11-.73-.37l-.73-.73-.73-.73Z"/><path fill="#f5ba3b" d="M322.04 540.5c-.26 2.1.24 4.22-.28 6.3.78.06 1.56.15 2.34.15h54.31c2.57 0 2.6 0 2.58-2.63-.04-4.8.58-4.1-4.13-4.12-17.38-.03-34.76 0-52.14-.02-.91 0-1.8.08-2.68.31Z"/><path fill="#837d5a" d="M119.7 248c7.14-1.78 14.3-2.05 21.44-.07.64.18 1.26.44 1.85.74 2.06 1.08 3.91 1.33 5.96-.34 1.7-1.39 3.98-.9 5.98-.65 4.86.63 9.6 1.82 14 4.05.32-1.13.23-2.28.15-3.42l-10.7-5.3c1.82-.84 3.23-1.55 4.93-1.5 2.04.06 4.1 0 6.14 0 .58-1.31.27-2.72.34-4.09.04-.79-.6-.92-1.23-1.02-3.04-.48-6.08-.92-9.16-.72-3.71.23-6.83 1.83-9.47 4.38-1.87 1.8-3.57 3.76-5.77 5.19-2.38 1.53-4.63 1.29-6.68-.7-1.34-1.3-2.12-2.92-2.87-4.56-.33-.74-.75-1.11-1.62-1.13-3.8-.06-7.59-.19-11.38-.3-1.53.15-2.1 1.38-1.61 2.42.77 1.62.3 3.01.01 4.52-.15.82-.2 1.67-.3 2.5h-.01Zm31.16-227.84c1.05-3.14 3.71-4.43 6.48-5.5a15.74 15.74 0 0 1 5.11-1.1c1-.03 1.2-.4 1-1.36-.28-1.53-.72-3.04-.66-4.63.03-.57-.1-1.15-.8-1.23-1.44-.15-2.88-1.6-4.32.07a19.17 19.17 0 0 1-4.43 3.7 10.46 10.46 0 0 1-10.85.5c-.8-.4-1.4-.62-.27-1.53 2.16-1.75 2.1-1.83.84-4.45-6.15 2.34-12.01 5.16-16.68 9.96-.6.62-1.47 1.08-1.5 2.1.7.07 1.08-.48 1.56-.82 3.6-2.5 7.53-3.55 11.83-2.32 3.44.99 4.25 3.66 2.19 6.36-4.99 6.54-14.66 6.65-19.6 2.47-.3.26-.36.58-.25.94.49.93.68 1.97.62 2.96-.1 1.78.83 2.46 2.36 2.84 2.68.67 5.33.19 7.86-.47 6.92-1.82 13.3-4.98 19.5-8.49h.01Zm-45.59 505.45c3.53 1.2 7 2.54 10.75 3.02 3.6.45 7.19.38 10.8.33 4.75-.06 9.5-.12 14.18-1.08a4.94 4.94 0 0 0 3.88-3.1c.98-2.26 2.2-4.41 2.56-6.91.3-2 .19-2.24-1.88-1.96-1.49.19-3 .29-4.5.3-.36 0-.73.03-.96-.34-6.18 2.88-12.79 4.12-19.47 5.05-3.15.44-6.35.63-9.45 1.43a12.33 12.33 0 0 0-5.91 3.27Z"/><path fill="#f5ba3b" d="M154.27 342.49c3.85-1.8 8.02-2.6 12.07-3.75 2.2-.63 4.46-1.08 6.65-1.77 1.46-.45 2.4-.1 2.83 1.32.35 1.14 1.05 1.5 2.17 1.38a8.07 8.07 0 0 1 1.63-.02c2.98.33 5.28-.03 6.07-3.72.47-2.2 2.56-3.61 4.63-4.6 3.15-1.52 6.3-3.07 9.52-4.41 4.23-1.75 8.24-4 11.95-6.68l-.66-1.67c-7.39 4.36-15.23 7.75-23.08 11.14-4.64 2-9.5 2.03-14.37 2.25-6.37.29-12.76.49-19.08 1.52-1.97.31-3.84.92-5.8 1.74l5.46 7.26Z"/><path fill="#6e6d56" d="m156.03 108.13-.02-1.15a19.7 19.7 0 0 1-7.64-2.56c-3.15 4.55-7.54 7.93-11.27 11.93-2.88 3.09-4.28 7.08-6.13 10.8.12 1.6-.18 3.2-.85 4.66a50.02 50.02 0 0 0-3.06 10.93c-.43 2.4 2.58 5.07 4.85 4.5 1.14-.3 1.19.52 1.26 1.2.1 1.16-.36 2.25-.57 3.37-.1.48-.4 1.23.31 1.36.56.1.58-.64.65-1.1 1.06-7.87 3.63-15.33 6.18-22.79 2.28-6.72 4.7-13.4 8.52-19.47 1.24-1.96 4.38-2.37 5.9-.64l1.15.38.71-.75-.02.02.04-.69ZM131.3 130.3c.65-2.64 1.62-5.12 3.57-7.13.87-.89 1.68-.24 2.47.07.92.37 1 1.08.73 1.94-.61 2.01-1.26 4.02-1.77 6.06-.37 1.48-1.3 1.74-2.57 1.46-1.26-.3-2.56-.6-2.43-2.4Z"/><path fill="#2e383c" d="M56.03 153.4c-1.5.3-2.96 1.21-4.53.25-2.06 1.7-4.02 3.55-6.21 5.06-3 2.05-2.26 2.09-4.44-.53-.8-.97-1.54-1.98-2.31-2.97-1.72.06-3.5-.15-5 1.04.05.09.08.18.1.28l.35.37.36.36c.18.2.5.44.14.67-.19.12-.37-.17-.42-.4l-.35-.35-.37-.36c-.18-.12-.3-.27-.22-.5v-.02c-.28.04-.39-.09-.36-.35-.55.08-.78-.29-.98-.69-.06-1 .76-1.45 1.33-2.03 3.73-3.75 7.52-7.44 11.22-11.23a94.87 94.87 0 0 0 5.25-5.9c.67-.81 1.67-.91 2.38-1.54-1.06-.7-2.01-.38-2.93.3-.72.54-1.51 1-2.17 1.62a2640.1 2640.1 0 0 0-17.17 16.28c-2.14 2.04-2.12 2.33-.14 4.54 2.76 3.1 5.57 6.14 8.36 9.21 1.5 1.2 2.74 2.71 4.56 3.52 1 .45 1.84.56 2.54-.44-.32-1.31-1.37-2.08-2.2-3-.76-.84-1.87-1.35-2.23-2.53l-.37-.36-.35-.36A15.84 15.84 0 0 1 35.5 159c-.25-.05-.53-.24-.4-.44.23-.39.48-.05.7.12a24 24 0 0 1 4.37 4.35c.11.13.23.24.35.36l.36.37 2.77 2.31c.8-1.96 2.59-3.09 4-4.5 1.1-1.12 1.94-2.6 3.6-3.09l.03-.02c1.24-2.01 3.34-3.22 4.75-5.06h.01Z"/><path fill="#837d5a" d="M96.25 167.07c-.9 1.96-.8 4.11-1.02 6.18-.15 1.42-.75 1.74-1.97 1.56-1.95-.3-3.9-.6-5.86-.88-.36-.06-.71-.16-1.07-.15-3.38.05-3.88.9-2.46 3.92.92 1.95 1.8 3.93 1.86 6.15.76-.5 1.03-.08 1.2.62.3 1.25.63 2.5.95 3.76 1.15-.34 2.28-.82 3.46-1.01 4.64-.75 7.27-3.6 8.63-7.92.23-.76.45-1.66 1.36-2.02-.6-2.81.36-5.16 2.17-7.26-1.95-2.14-4.62-2.47-7.25-2.95Z"/><path fill="#5d5f52" d="M196.2 237.18c4.52 6.07 9.24 11.94 16.03 15.7.46.26 1 .4 1.5.59-.13-2.07-1.12-4.04-.81-6.17-.52-2.3-.51-2.25 1.73-2.75 1.43-.31 2.88-.06 4.31-.4 1.1-.27 1.4-.74 1.1-1.77a6.58 6.58 0 0 0-6.49-4.9c-3 0-5.98.05-8.9-1.04-2.86-1.07-5.7-.22-8.47.74Z"/><path fill="#f5ba3b" d="M237.1 456.01c-4.05.48-8.12.74-12.18.05-1.5-.25-3-.75-3.93-2-1-1.34-2.14-1.55-3.61-1.08-.4.12-.83.1-1.25.13.35 2.58.9 5.09 2.88 7 2.43-.18 4.76.37 7.1.9.73.17 1.54.52 1.5 1.31-.06.88-1 .89-1.7.97-1.28.14-2.63 0-3.78.8 1.8 2.5 3.42 5.13 4.94 7.82 2.74-.19 5.49-.3 8.23.1.47.06 1 .03 1.14-.6.14-.64-.22-1.02-.77-1.26-.5-.2-.99-.43-1.5-.63-1.79-.67-1.77-2.34-1.88-3.78-.1-1.28 1.17-.87 1.9-1.07.78-.21.97-.86.77-1.4-.8-2.28.76-3.1 2.3-3.99.5-1.11-.12-2.17-.16-3.26Zm-21.5-73.71c-3.17-.42-5.71-2.53-8.76-3.26-.56 3.53-3.16 4.65-6.2 5.29-2.02.43-3.9 1.25-5.7 2.2 3.24 1.8 9.44 2.08 19.59.85.02 1.3-.62 2.28-1.43 3.16-1.01 1.1-.8 1.7.65 1.94.23.04.45.13.8.23-1.22 2.03-3.26 3.32-4.49 5.4.86.4 1.5-.06 2.13-.28 2.85-.99 5.67-2.03 8.5-3.07a6.46 6.46 0 0 1 2.3-.46c-2.07-4.24-4.97-7.98-7.39-12ZM120.75 22.38c4.95 4.18 14.62 4.07 19.61-2.47 2.06-2.7 1.25-5.37-2.2-6.36-4.3-1.22-8.21-.19-11.82 2.32-.48.34-.86.89-1.55.83l.04.02-.37.37h.02l-.39.37.03-.02-.43.34a12.35 12.35 0 0 0-2.93 4.6Z"/><path fill="#837d5a" d="M210.8 339.38c-1.7.36-3.41.71-5.1 1.1-.6.13-1.26.32-1.13 1.13.83 5.27.45 10.66 1.73 15.88 2.76-.17 5.8-2.4 8.06 1.08-1.38-2.95-.87-5.58.95-8.27 2.3-3.4 2.12-3.45-.56-6.57-1.29-1.48-3-2.57-3.96-4.35h.01Zm26.46 119.9c-1.54.88-3.1 1.7-2.3 3.98.2.55 0 1.2-.77 1.4-.73.2-2-.2-1.9 1.08.11 1.44.1 3.1 1.88 3.78.51.2 1 .42 1.5.63.55.24.9.61.77 1.25s-.66.67-1.14.6c-2.74-.4-5.49-.28-8.24-.1 1.23 2.45 1.2 5.06 1.04 7.69 3.75-.26 6.93 1.25 9.96 3.22.6.38 1.09.68.22 1.43a30.27 30.27 0 0 0-5.44 6.5l.65 1.65c.23-.66.73-1.05 1.33-1.39 1.31-.76 2.4-1.8 3.37-2.96 1.2-1.45 1.87-2.92 1.54-5.04-.5-3.2-.54-6.42-2.19-9.38-.66-1.18-.52-2.67-.48-4.07.11-3.42.14-6.84.2-10.27Z"/><path fill="#f5ba3b" d="M197.02 306.69c.16.17.3.36.47.53 1.77 1.89 1.78 1.9 3.84.31 1.91-1.46 4.13-2.18 6.64-2.72-.68-.9-.51-2.14-1.83-2.52-.64-.19-.4-.63.05-.89.97-.56 2.19-.1 2.46 1 .17.67.54 1.19.97 1.69.7-.69.06-1.77.71-2.47-2.23-3.16-5.07-5.74-7.95-8.26-1-.87-2.09-1.63-3.2-2.35-.96-.62-1.74-.57-1.77.87-.1 4.94-.53 9.86-.4 14.8Z"/><path fill="#837d5a" d="M207.45 362.11c1.03 4.17 1.08 8.38.82 12.65-.26 4.2 1.11 4.47 4.89 5.54.45.13.82-.07 1.16-.34.56-4.42 1.23-8.83 1.66-13.27.2-2.08.69-4.3-.83-6.2-2.44 1.16-5.2.83-7.7 1.62ZM195.19 12.59c-2.27 1.13-4.7 1.7-7.13 2.35-1.34.37-2.86.5-3.7 1.88.77-.16 1.31.33 1.9.67 2.81-.6 5.66-.2 8.49-.36 1.1-.05 1.12.64 1.1 1.42a5.26 5.26 0 0 0 3.29 5.32c.6.28.77.67.9 1.2.52 2.14-.12 3.09-2.75 4.04.07.65.6 1.03.94 1.5 1.69 2.32 1.74 2.38 4 .81 1.13-.77 2.3-.53 3.47-.58-2.84-5.02-5.3-10.24-8.37-15.14-.67-1.07-1.43-2.07-2.15-3.11Z"/><path fill="#f5ba3b" d="M6.24 546.96c1.5 0 3.02-.04 4.52 0 1.13.04 1.66-.37 1.64-1.56-.07-6.34.89-5.06-4.83-5.22-1.99-.05-3.98.02-5.97-.01-.93-.02-1.37.25-1.53 1.28-.24 1.58.17 3.11.13 4.67-.01.86.74.81 1.34.82 1.56.02 3.13 0 4.7 0v.02Z"/><path fill="#837d5a" d="M171.18.55c-1.9 1.2-4.2 1.45-6.14 2.56-.6.34-1.4.44-1.78 1.49 1.73.36 3.48.12 5.15.5 1.46.34 2.97.42 4.44.67 4.87.83 9.66.17 14.46-.64-4.97-2.97-10.24-4.87-16.13-4.58Z"/><path fill="#f5ba3b" d="M126.11 49.29c6.58-1.73 13.1-3.65 20.26-5.09a8.27 8.27 0 0 0-5.12-1.29c-4.93.16-9.87.44-14.8.66-1.13 1.85-.83 3.78-.33 5.72Z"/><path fill="#6e6d56" d="M222.77 98.9c1.46-.41 2.27.31 2 1.76-.04.22-.07.5.02.68 1.49 2.9 2.67 5.98 5.22 8.2 1.3-.39 2.6-.76 3.9-1.16 2.1-.65 2.23-1.19.77-3l-.37-.6.04.02a29.04 29.04 0 0 0-7-5.73c-1.1-.64-2.5-.92-3.19-2.2-.88.39-1.43 1-1.39 2.02Zm4.66 3c.13.1.25.23.38.34l.36.37.38.34.36.36.33.4c.3 0 .55.1.7.39l.36.37.07.12-.05-.14-.37-.36c-.3.02-.56-.07-.73-.34l-.4-.34-1.08-1.1-.35-.37-.36-.35-.15-.18.2.13.36.35h-.01Zm-1.5-1.3c.08.06.21.1.24.17s-.05.18-.08.27l-.34-.22.17-.22Z"/><path fill="#f5ba3b" d="M85.44 540.1c4.74.02 9.48 0 14.22.04 1.02.02 1.42-.31 1.31-1.33-.06-.59-.01-1.2-.02-1.8-4.52-.24-9.05-.12-13.58-.03-1.98.04-2.07.3-1.93 3.13Zm122.01-177.99c2.51-.8 5.27-.46 7.7-1.62l-.8-1.92c-2.26-3.48-5.3-1.25-8.05-1.08.17 1.6.48 3.15 1.14 4.62h.01Z"/><path fill="#2e383c" d="M224.16 96.88c.69 1.27 2.1 1.55 3.2 2.19a28.57 28.57 0 0 1 6.99 5.73c.29-.61-.17-1.04-.44-1.45a39.75 39.75 0 0 1-3.48-6.29c-.49-1.1-1.2-1.51-2.44-1.14-1.25.37-2.63.32-3.82.96Z"/><path fill="#f5ba3b" d="M19.63 546.77c-.84-2.13-.35-4.32-.27-6.5-2.6-.17-3.88 1-3.86 3.53 0 .42.05.84 0 1.25-.17 1.53.54 2.08 2 1.91.7-.08 1.42-.12 2.13-.18Z"/><path fill="#2e383c" d="M205.32 80.15c.74-.01 1.16.83 1.94.72-.47-1.1-1.42-1.78-2.28-2.53-2.42-.3-2.74.07-1.68 2.4 1.08 2.39 2.3 4.74 4.54 6.32-.99-2.24-2.18-4.4-2.55-6.87l-.23-.27.19-.11.08.34h-.01Zm-56.95 24.27a19.7 19.7 0 0 0 7.64 2.56c.5-2.09.5-2.14-1.63-2.1-1.88.02-3.6-.3-4.86-1.85l-1.14 1.4Z"/><path fill="#837d5a" d="M66.47 163.18c1.11 1.4 2.3 1.51 3.63.28 1.81-1.7 3.66-3.38 5.49-5.06l-.71-.72c-1.41 1.46-2.82 2.93-4.24 4.38-1.16 1.17-2.49 1.83-4.17 1.12Zm127.01-89.14c-.04.26-.03.5.3.58l-.3-.58Z"/><path fill="#2e383c" d="m234.3 104.78.38.6c.04-.3.04-.58-.37-.6h-.01Z"/><path fill="#837d5a" d="m124.09 17.46.38-.38c-.3-.04-.37.14-.38.38Z"/><path fill="#837d5a" d="m124.45 17.1.37-.38c-.34-.09-.42.08-.37.38Z"/><path fill="#f5ba3b" d="M191.71 325.93c-4.52.05-9.05.33-13.57-1.18.07 1.02.67 1.91 0 2.57-.69.68-1.58.31-2.41.15a45.7 45.7 0 0 0-10.63-.85c-.54.01-1.08 0-1.62-.06-.46-.03-.83-.22-.9-.73-.06-.55.36-.72.76-.87 1.48-.55 3.02-.82 4.6-.88 2.51-.09 5.02-.02 7.52.2-1.38-.43-2.76-.82-4.12-1.3a6.66 6.66 0 0 1-4.3-4.33c-.25-.74-.63-1.42-.96-2.13-3.3-2.07-5.53-4.89-5.71-8.87-.24-5.1-.74-10.2-.11-15.32.12-.98-.19-1.4-1.26-1.4-9.36-.14-18.71-.3-28.06-.5-1.26-.03-1.29.5-1.24 1.53.18 4.26.97 8.4 2.37 12.4 3.06 8.8 5.04 17.87 6.87 26.98.98 4.93 2.81 9.6 4.35 14.36 3.05 9.47 3.89 19.25 3.92 29.12 0 1.15 0 2.3-.06 3.44-.18 4.33.28 8.51 2.02 12.57 1.18 2.76 1.92 5.7 2.81 8.59.71 2.3 1.74 4.44 3.62 5.95 4.16 3.3 7.82 7.2 10.86 11.56 2.5-.9 5.02-1.52 7.72-1.5 1.94 0 3.43.26 3.66 2.6.06.56.53 1.06.76 1.62.3.75 1.3 1.4.34 2.38-.87.89-1.66 1.68-3.1 1.16-2.3-.84-4.66-1.56-6.99-2.33 1.01 2.12 2.04 4.24 3.02 6.37 1.76 3.79 4.4 7.1 7.69 9.67 1.5 1.2 2.8 2.64 4.3 3.86 4.41 3.62 5.6 8.34 4.9 13.75.07 1.15.58 1.48 1.75 1.23 1.52-.33 3.1-.37 4.63-.63.96-.17 1.46.21 1.86 1 1.18 2.38.25 4.13-2.38 4.26-2.16.11-4.33.18-6.48-.1l-.18.8s.1.1.08.12c-.03.1-.08.18-.13.26l-.61 7.32c-.13 1.43.3 2.54 1.62 3.3a7.82 7.82 0 0 1 3.25 3.94c1.5-.15 2.97-.56 4.5-.4 1.6.19 2.51-.28 2.49-2.1-.02-1.26.55-1.72 1.84-1 2.86 1.62 5.88 2.9 9.15 3.28 4.82.56 9.45.27 13-3.74.5-.56 1.05-1.2 1.95-1.17a34.34 34.34 0 0 0-5.51-7.95 19.6 19.6 0 0 1-4.87-8.67c-1.32-.03-2.43.62-3.56 1.16-4.9 2.36-5.67 3.97-4.27 9.17.3 1.11-.11 1.33-1.04 1.16a13.15 13.15 0 0 1-5.12-2.17c-.96-.66-1.09-1.49-.5-2.5 1.8-3.02 3.83-5.82 6.62-8.04 1.88-1.5 3.64-3.17 4.68-5.43a3.32 3.32 0 0 0-1.87-1.54c-1.2.89-2.5 1.65-3.56 2.68-4 3.87-8.83 3.12-13.61 2.5-1.1-.13-1.57-1.12-1.62-2.13-.06-1.19.98-1 1.7-1.08 1.32-.15 2.64-.39 3.95-.31 1.58.1 2.2-.58 2.23-2.04 0-.54 0-1.09.08-1.63.3-2.48-.26-5.46 3.35-6.16.13-.03.2-.29.3-.44a57.5 57.5 0 0 1-4.35-15.97 7.33 7.33 0 0 0-3.32-5.51c-1.84-1.24-3.61-2.6-5.41-3.89-2.1 1.64-4.7 1.82-7.17 2.19-1.87.28-3.84.85-5.67-.21-1.05-.6-2.26-1.26-2.28-2.6-.02-1.27 1.1-1.96 2.18-2.41 2.56-1.08 5.27-1.7 7.96-2.37a47.86 47.86 0 0 1-7.4-14.02 46.95 46.95 0 0 1-6.32-2.71 13.34 13.34 0 0 1-4.94-4.16c-1.56-2.3-.85-4.4 1.77-5.21 2.02-.62 4.1-1 6.21-1.12 0-3.56.67-7.05 1-10.58.23-2.45.53-4.93-.84-7.2-.56-.93-1.1-1.85-2.26-2.13-1.68-.1-3.36-.24-5.03-.32-1.27-.05-2.54-.01-3.8-.09-.67-.03-1.29-.03-.77-1.15 1.35-2.94-.44-7.33-3.35-8.63-.82-.37-1.65-.73-2.31-1.37-1.53-2.21-2.54-4.74-4.32-6.8-1.69-1.97-3.1-4.16-5.42-5.5-1.18-.68-.35-1.15.26-1.51 2.43-1.44 5.14-2.05 7.88-2.47 7.94-1.24 15.95-1.57 23.96-1.82 4.69-.15 8.95-1.65 12.97-3.98Zm-4.14 93.04c-1.14.08-1.79.03-1.78-1.04.02-1.07.71-1.3 1.53-1.3s1.58.18 1.56 1.26c-.03 1.15-.91 1.04-1.31 1.08Z"/><path fill="#5d5f52" d="M190.47 306.29c-.08-.87-.22-1.63.41-2.52 1.05-1.49.6-3.3.12-4.89a48.3 48.3 0 0 1-2.04-14.97c.05-2.97-.8-3.68-3.66-4.52-3.04-.9-6.17-.97-9.27-1.29-3.9-.4-7.8-.63-11.55-1.85-1.25-.41-1.98 0-1.87 1.2.57 5.76-.2 11.56.64 17.3.22 1.55 1.17 2.76 1.98 4.03.51.82 1.36.95 2.2 1.03l16.7 1.5c1.32.1 2.15.52 2 2.1-.13 1.3.49 2.6.24 3.94l.15.15c1.19-.71 2.26-1.83 3.86-1.12l.1-.1Zm-15.49-12.3L173 294c-.69 0-1.37.02-1.36-.97 0-.84.49-1.16 1.27-1.16h4.5c.76-.01 1.07.34 1.06 1.1 0 .79-.45 1.03-1.15 1.02h-2.34Z"/><path fill="#837d5a" d="M225.1 470.88c-.9-.02-1.45.61-1.95 1.18-3.55 4-8.18 4.29-13 3.73-3.28-.38-6.3-1.66-9.15-3.27-1.28-.72-1.86-.26-1.84 1 .02 1.82-.89 2.29-2.5 2.1-1.52-.17-3 .24-4.5.4l.82 8.28c2.89.12 5.78.38 8.66.3 2.81-.1 5.95.18 8.3-1.25 1.88-1.17 3.4-1.11 5.2-.74.67.14 1.3.12 1.95-.04.99-.25 1.59.03 1.82 1.11.38 1.77.79 3.53.85 5.34 1.02.25 1.62-.12 1.8-1.17a12.58 12.58 0 0 1 2.88-5.72c2.85-3.52 3.05-7.23.65-11.25Z"/><path fill="#f5ba3b" d="M192.22 488.3c.79-.72 1.63-.88 2.54-.22.09.13.16.26.24.4l.31.32c.63-.26.73-.74.55-1.31-.37-1.2.27-1.05 1-.77.56.22 1.12.48 1.15 1.2.06 1.47.9 2.04 2.27 2.02l.44-.1c.02-.2.07-.19.15-.01l.79-.4c3.22-5.1 12.76-4.65 16.84-.64l1.28.23c-.07-1.81-.47-3.57-.85-5.34-.24-1.08-.84-1.36-1.82-1.11-.65.16-1.28.19-1.96.04-1.8-.37-3.32-.43-5.2.74-2.34 1.43-5.48 1.16-8.3 1.25-2.88.08-5.77-.19-8.65-.3l-.14 1.07c-.32-.15-.61-.35-.93-.43-.45-.12-1-.42-1.36-.01-.4.44.06.9.28 1.29.42.72.92 1.4 1.38 2.09Z"/><path fill="#5d5f52" d="M183.17 257.44c.16-1.24-.25-2.55.42-3.73l-.11-2.85c-3.85 1.33-7.9 1.37-11.89 1.77-.82.08-1.69.18-2.46-.31l-.07 5.44c2.38 1.22 4.92 1.1 7.47.97 2.28-.1 4.46-.65 6.63-1.3h.01Z"/><path fill="#6e6d56" d="M186.38 316.8c2.67-.57 5.38-.27 8.07-.28 1.27 0 1.89-.28 1.82-1.7-.15-2.76.44-5.47.63-8.21-.33-1.4-1.32-1.55-2.5-1.34-2.35 2.63-4.87 5.04-7.94 6.82l-.08 4.7Z"/><path fill="#837d5a" d="M168.86 420.87c2.33.77 4.68 1.49 6.99 2.33 1.44.52 2.24-.28 3.1-1.16.97-.99-.04-1.63-.34-2.39-.23-.55-.7-1.06-.75-1.62-.24-2.34-1.73-2.6-3.67-2.6-2.7-.01-5.22.61-7.72 1.5l2.4 3.94h-.01Zm19.28 39.41c2.16.27 4.33.2 6.49.1 2.62-.13 3.55-1.89 2.37-4.26-.4-.8-.9-1.18-1.85-1.01-1.54.26-3.12.3-4.63.63-1.18.26-1.68-.08-1.76-1.22l-.62 5.75Z"/><path fill="#f3e5b6" d="M186.45 312.09c3.07-1.78 5.6-4.2 7.94-6.81-1.94-2.13-2.73.2-3.92 1l-.09.1c-1.36 1.36-2.7 2.75-4.1 4.06-.74.7-.56 1.17.17 1.65Z"/><path fill="#5d5f52" d="m194.77 281.35-.66-8.12a1.9 1.9 0 0 0-1.13-1.68c-.26 2.32-.46 4.65-.78 6.96-.4 2.88-.44 2.87 2.57 2.85Zm-8.4 26-.08.23.23-.08-.15-.15Z"/><path fill="#837d5a" d="M187.92 461.46c.05-.09.1-.17.13-.26 0-.03-.06-.08-.08-.13l-.05.4Z"/><path fill="#f5ba3b" d="M101.33 177.28c-.92.36-1.13 1.25-1.37 2.02-1.35 4.32-3.98 7.16-8.63 7.92-1.17.18-2.3.66-3.45 1a49.1 49.1 0 0 1-.74 10.27c-.34 1.69.26 2.86 1.64 3.85 2.7 1.94 5.31 3.98 8.42 5.25 1.21-1.88.95-3.9.42-5.88-.93-3.58.1-6.76 1.77-9.86.32-.57.65-.8 1-.17 1.27 2.2 2.61 4.46 1.7 7.13-1 3-2.18 5.94-3.29 8.91-.45 3.6 2.19 5.33 4.47 7.23.66.56 1.52.89 2.3 1.32.41-1.39-.23-2.87.32-4.24.61-1.5.46-3.08.43-4.64-.02-1.1-.93-2.51.16-3.22 1.14-.75 2.32.51 3.47.9.23.08.43.23.63.37.75.5 1.08 1.1.01 1.56-1.08.47-1.07 1.29-.98 2.24.15 1.72 1.06 3.19 1.6 4.78.44 1.22.19 1.98-1.28 2.07-.88.05-1.84-.05-2.5.75a61.89 61.89 0 0 0 9.8 2.89l.37.05 1.5.25c.3-1.75.17-3.46-.47-5.13-.64-1.7-.33-2.04 1.44-2.38 1.28-.25 2.5.7 3.97.04a3.74 3.74 0 0 1-1.43-3.1c-.01-1.26-.65-1.88-2.08-1.82-2.84.14-5.4-.98-7.96-2.09-1.4-.61-1.83-1.34-.46-2.44.46-.37.39-.86.35-1.33-.17-2.4-.33-4.8-.55-7.2-.23-2.4-.54-4.8-.77-7.19-.05-.5-.22-1.18.6-1.28.63-.07 1.2.16 1.5.77.17.32.22.69.34 1.02 1.16 3.2 1.32 6.5 1.07 9.83-.08 1.05.22 1.8.99 2.55 1.87 1.82 4.03 3.25 6.1 4.8 1.15.86 2.18 1.82 2.58 3.19.48 1.61 1.73 1.84 3.06 1.99.96.1 1.73.03 1.21-1.35-.31-.83-.37-1.76-.54-2.65-.06-.34-.27-.74.15-.97.4-.22.7.02.93.33 1.92 2.62 3.85 5.25 5.75 7.9.27.38.45 1.2-.33.95-1.56-.5-2.6.67-3.92.88v1.09l.08.13-.08-.13c-.42-.07-.9-.16-.87-.69.04-.46.52-.4.87-.4.07-.23.07-.5.21-.67.8-1 .44-1.96-.46-2.42-1.14-.59-1.88.12-2.33 1.26-.27.7.05 1.9-1.5 1.7-4-.5-5.51.82-5.84 4.94l.1.06c.3-.07.55.02.76.23 4.87.85 9.8.81 14.73.9.15-1.08.13-2.17-.07-3.24-.29-1.63.02-1.91 1.56-1.37 2.07.73 4.03.51 5.94-.49 1.33-.7 2.68-1.39 3.98-2.13 4.57-2.59 9.32-3.93 14.55-2.3.5.16 1 .43 1.58.05-.03-.84-.78-1.3-1.1-2-.6-1.23-1.03-2.62-.62-3.8.89-2.55 4.81-4.21 7.42-3.41 1.64.5 3.22 1.24 5.23 1.3-1.87-3.92-2.66-8.1-5.36-11.63l.95-.11c3.06-.31 5.81.8 8.61 1.75.94.32 2 .67 2.6-.38 1.19-2.05 2.35-2.4 4.55-1.09 2.86 1.72 5.84.47 8.66-.71l3-4.67c-.52-.94-.7-1.94-1.64-2.8-2.3-2.11-5.31-2.26-7.92-3.45-1.24.78-2.38 1.01-3.25-.53-.27-.46-.63-.87-.95-1.3-1.56-.81-2.44.48-3.22 1.29-1.1 1.13-1.74.84-2.56-.18-1.28-1.6-2.96-2.99-3.83-4.78-.96-1.99-2.37-1.8-3.93-1.68-2.2.18-3.69-.7-4.71-2.63-.53-1-1.2-1.94-1.92-2.83a35.94 35.94 0 0 1-5.68-9.6c-.4-1.01-.54-2.44-2.1-2.63l-.02.6c.03.05.1.1.1.14-.03.09-.1.18-.14.27-.23 2.82-1.42 5.33-2.55 7.86-.68 1.54-1.43 3.05-2.06 4.61-.55 1.35-.94 2.7-2.92 2.44-.79-.1-1.3.78-1.76 1.42-2.08 2.92-3.7 6.05-4.03 9.72.27 1.12.3 2.23.03 3.35.02.2.03.4.06.59.04.58.78 1.8-.54 1.42-1.92-.54-1.97.82-2.12 1.79-.37 2.33-1.7 4.28-2.21 6.6-2.84-2.6-2.99-3.3-1.55-6.63.1-.22.25-.43.28-.66.26-1.92.52-3.86-1.01-5.46-.9.6-1.5.96-2.84.25-2.6-1.39-5.67-1.53-8.6-1.92-3.46-.47-6.93-.87-10.4-1.32-2.47-.32-4.76-1.28-7.08-2.13-.87 2.4-.48 5.17-2.12 7.34-.62.82-1.03 2.3-2.33 1.8-1.29-.48-.64-1.9-.52-2.86.31-2.43 1.07-4.8 1.05-7.27l-1.47-.67Zm43.27 23.21c2.5.12 2.8-.33 2.1-2.8-.4-1.36-1.15-2.52-1.83-3.73-.29-.5-.88-1.39.12-1.6.95-.22 2.05-.72 3-.14 3.23 2 6.41 4.06 9.6 6.12.35.23.7.62.47 1.07-.3.6-.84.36-1.25.15-1.08-.57-2.17-1.1-3.43-.86-1.13.22-3.2.5-3.2.74 0 2-2.04-.14-2.16 1.19 0 .04-.08.08-.13.12-1.14 1-2.47 1.88-1.8 3.8.2.57-.2 1.25-.74 1.52-.73.37-1-.45-1.4-.83-.66-.66-.85-1.58-1.1-2.45-.55-1.92-.17-2.4 1.75-2.3Zm29.7-8.89c-.83-.34-1.68-.66-2.5-1.02-4.62-2.07-7.52-6.4-11.77-8.96-.35-.21-.4-.57-.2-.94.2-.36.55-.53.92-.41.51.16 1.01.38 1.49.63 3.13 1.63 5.66 4.09 8.44 6.21 1.33 1.03 2.64 2.1 3.94 3.18.27.22.56.51.42.92-.1.32-.4.42-.73.4h-.01Zm-16.09 17.65c-.94-.13-1.92-.3-2.41-1.1-.54-.85.44-1.35.86-1.96l.51-.74c1.08-1.53 2.1-1.48 3.07.14.38.65 1.19 1.35.67 2.1-.6.86-1.6 1.4-2.7 1.56Zm-2.79-30.69c.54.06 1.68-.31 1.74.9.04.64.37 1.77-.78 2.11-1.36.4-4.59-.69-5.39-1.82-.25-.37-.83-.65-.49-1.23.35-.6.96-.42 1.48-.37 1.06.13 2.06.7 3.44.41Z"/><path fill="#f5ba3b" d="m154.79 153.47.08.3c.89-.07 1.34-.78 1.84-1.34 1.14-1.3 2.21-2.68 3.6-3.75.5-.71 1.03-.31 1.56-.02l2.36 1.3c.48-.24.97-.48 1.44-.73.63-.33 1.31-.92 2-.41.74.55.78 1.54.56 2.34-.3 1.13-.23 2.27-.39 3.4.94 1.33 1.78 2.73 2.82 3.98 5.45 6.56 11.27 12.81 16.1 19.87 1.9.54 2.48-1.2 3.42-2.13 1.7-1.69 1.3-4.04-.78-5.25a4.76 4.76 0 0 1-1.33-1.2c-1.34-1.67-2.08-3.65-2.89-5.6-.9-2.17-1.48-2.51-3.84-2.05-.7.13-1.38.5-2.08.02-1.56-1.08-2.94-2.29-3.32-4.26 1.25-.24 1.42 1.25 2.49 1.3 1.5.06 3 .18 4.48.42.96.16 1.08-.2.9-.95a13.89 13.89 0 0 0-1.87-4.68c-.75-1.09-1.43-1.24-2.49-.33-1.47 1.28-2.3 1.14-3.4-.46a26.29 26.29 0 0 1-2.81-5.64c-1-2.62-.1-4.66 1.56-6.58 0-.12 0-.24.04-.35.02-.23.16-.33.38-.33l.4-.37c.3-1.06 1.28-1.36 2.1-1.83l.35-.4c.37-.54.69-1.13 1.1-1.64 5.41-6.44 11.47-12.22 17.77-17.77 3.77-3.32 3.75-3.34 6.93.52 1.78.8 2.47 2.17 2.16 4.07.34.57.63 1.17 1 1.7 1.6 2.3 2.57 2.4 4.64.54.45-.4.97-.72 1.4-1.14.86-.85 1.31-.46 1.67.47.93 2.42 1.86 4.85 3.41 6.97.14.18.2.43-.12.69-.6-.54-1.15-1.22-1.96-1.52-1.5-.58-3.26-1.1-4.49-.08-1.24 1.04-.45 2.73.1 4.05.97 2.27 2.06 4.5 3.1 6.73 1.7 2.66 3.16 5.48 5.25 8.17.79-7 1.56-13.74 2.3-20.5.4-3.53.8-7.07.8-10.64a9.55 9.55 0 0 0-2.2-6.35c-3.75-4.54-7.93-8.6-12.93-11.77-5.94-3.76-12.16-4.2-18.43-1.05a90.85 90.85 0 0 0-18.76 12.86c-1.47 1.27-2.45 2.96-3.44 4.63l-.2.33-.04.07c.02.28-.05.5-.35.58l-.1.1c.18.78.64.9 1.36.72.93-.23 1.89-.39 2.84-.52 1.37-.18 1.58.83 1.73 1.8.16 1.12-.57 1.34-1.46 1.3l-6.48-.38c-1.14.5-1.56 1.4-1.42 2.6.47-.07.94-.12 1.4-.22.92-.2 1.74-.23 1.8 1 .04.97.47 2.13-1.26 2.16-1.85.03-3.7.23-5.55.36-1.5 7-3.72 13.83-4.5 20.98-.15 1.31-.27 2.63-.41 3.95.26.64.22 1.3.07 1.95h-.01Zm19.75-14.34c-1.2-.06-.42 1.42-1.08 1.43-2.57.03-5.16.25-7.72-.18-.57-.1-1-.5-.97-1.13.05-.8.74-.66 1.24-.66 2.81-.02 5.58.65 8.53.54Z"/><path fill="#837d5a" d="M177.73 138.14c-.83.48-1.8.78-2.11 1.84 1.09-.36.28.76.84 1.07 1.75.96 2.97 2.61 4.35 4.03 2 2.06 4.07 4.06 5.64 6.5l.07.15-.06-.16c-.4.03-.68-.2-.94-.46-3.42-3.52-6.86-7.02-10.71-10.08-1.67 1.92-2.56 3.96-1.57 6.57.76 2 1.63 3.9 2.82 5.65 1.1 1.6 1.92 1.73 3.4.46 1.06-.92 1.73-.76 2.49.33.9 1.43 1.53 3.01 1.86 4.67.18.75.06 1.12-.9.96a39.49 39.49 0 0 0-4.48-.43c-1.06-.05-1.24-1.53-2.49-1.29.38 1.97 1.77 3.18 3.32 4.26.7.48 1.39.1 2.09-.03 2.36-.45 2.94-.1 3.84 2.06.8 1.94 1.55 3.92 2.88 5.6.39.48.8.88 1.34 1.2 2.07 1.2 2.48 3.56.78 5.25-.95.94-1.52 2.67-3.42 2.13.45.84 1.4 1.38 1.45 2.46 2.62 1.19 5.63 1.34 7.93 3.45.94.85 1.12 1.86 1.63 2.8 2.2-2.26 3.4-5.14 4.5-7.98.95-2.42 2.14-3.99 4.97-3.67.9.1 1.6-.43 2.21-1.06a89.34 89.34 0 0 0 9.97-12.4 5.1 5.1 0 0 0-1.07-6.95c-.7-.49-1.17-.58-1.79.2a98.83 98.83 0 0 0-6.12 8.53c-1.25 1.99-1.34 4.36-1.9 6.57-.2.85-.29 1.75-1.1 2.57-.4-1-.75-1.77-.44-2.71.24-.72-.17-1.31-.69-1.75-.64-.54-1.16 0-1.57.4-1.7 1.62-3.96 2.55-5.39 4.5-1.36 1.85-3.02 3.57-2.1 6.38-1.9-1.67-4.23-2.54-5.77-4.7 1.14-.47 1.52.38 2.04.83.59.5 1.13 1.06 1.76 1.67 2.17-3.54 4.95-6.46 7.74-9.36.54-.56.82-.92.1-1.58-5.57-5.07-9.8-11.29-14.65-16.96-3.42-4-6.86-7.96-10.74-11.5v-.02Zm9.82 14.87-.46-.49c.05-.02.11-.08.15-.07.27.1.28.34.29.58l.1.1-.08-.12Zm13.33 23.95c1.2-1.45.2-3.8 1.93-5.09-.04 1.9-.43 3.67-1.93 5.1Z"/><path fill="#837d5a" d="M203.8 164.79c.5.07.75-.33 1.08-.56a24.82 24.82 0 0 0 4.96-4.75c2.16-2.66 4.17-5.46 6.29-8.16.73-.93.86-1.7.14-2.74-4.63-6.7-9.4-13.3-14.54-19.61-.82-1-1.45-1.2-2.46-.18a772.41 772.41 0 0 1-12.87 12.73c-.98.94-.86 1.66-.22 2.62 4.3 6.35 9.01 12.38 13.9 18.28.95 1.14 2.09 2.2 3.72 2.36Zm-9.02 27.01c-2.82 1.18-5.8 2.42-8.65.7-2.2-1.32-3.37-.95-4.55 1.09-.61 1.06-1.67.7-2.6.38-2.8-.94-5.56-2.06-8.61-1.75l-.96.11c2.7 3.53 3.5 7.71 5.37 11.64-2.01-.06-3.6-.8-5.24-1.3-2.6-.8-6.52.85-7.41 3.4-.42 1.19.02 2.58.6 3.8.33.7 1.08 1.16 1.11 2-.57.39-1.08.11-1.58-.05-5.23-1.62-9.98-.28-14.54 2.3-1.31.75-2.66 1.43-3.99 2.13a7.11 7.11 0 0 1-5.94.5c-1.54-.55-1.84-.26-1.56 1.37a10 10 0 0 1 .07 3.23c3.9.4 7.82.24 11.73.43 3.47.16 6.96.45 10.47.25 3.3-.18 6.26-1.15 9.1-2.67a70.5 70.5 0 0 0 14.83-10.27c.3-.27.54-.63.8-.96-1.47-2.06-2.91-4.13-4.4-6.18-1.41-1.94-1.36-2.17.54-3.74a5.98 5.98 0 0 1 4.35-1.39c2.75.16 5.24 1.33 7.88 1.92 1.3-2.2 2.37-4.53 3.18-6.95Zm-34.48-43.11c-1.38 1.07-2.45 2.44-3.6 3.74-.5.56-.95 1.27-1.83 1.34.03.94 1.2 1.28 1.2 2.23 1.55.2 1.7 1.62 2.1 2.64a35.94 35.94 0 0 0 5.68 9.6c.71.88 1.39 1.83 1.92 2.83 1.02 1.92 2.52 2.8 4.71 2.63 1.56-.13 2.97-.31 3.93 1.68.87 1.79 2.55 3.18 3.83 4.78.81 1.02 1.45 1.31 2.55.18.8-.81 1.67-2.1 3.23-1.3-2.2-3.66-4.56-7.2-7.2-10.55-1.08-1.36-1.99-2.9-3.72-3.58-1.37 1.74-3.28 2.75-5.2 3.74-.95.49-1.72.3-2.4-.5a38.93 38.93 0 0 1-5.42-8.25c-.54-1.12-.02-1.88.87-2.42 1.26-.76 2.61-.22 3.19 1.17.2.49.32 1.03.88 1.44.69-.79 1.89-1.02 2.24-2.18a27.16 27.16 0 0 0-5.38-7.33c-.61-.57-1.39-1-1.58-1.9Zm43.57-29.83c-3.18-3.86-3.16-3.84-6.92-.52-6.3 5.55-12.36 11.33-17.77 17.77-.42.5-.74 1.1-1.1 1.65 1.6.41 2.6 1.7 3.8 2.67.89.72 1.48.74 2.27-.12 2.28-2.48 4.6-4.94 6.97-7.33 3.6-3.64 7.32-7.14 11.28-10.4.17-1.36 1.12-2.42 1.47-3.72Zm-83.16 101.31c.33-4.11 1.83-5.45 5.84-4.93 1.55.2 1.23-1 1.5-1.7.45-1.15 1.2-1.86 2.33-1.27.91.46 1.27 1.41.46 2.42-.13.17-.14.44-.2.67 1.31-.21 2.36-1.37 3.92-.88.78.25.59-.57.32-.95-1.9-2.65-3.82-5.28-5.75-7.9-.22-.3-.53-.55-.92-.33-.43.24-.21.63-.15.97.16.89.22 1.82.54 2.65.52 1.38-.25 1.46-1.21 1.35-1.34-.15-2.59-.37-3.07-1.99-.4-1.37-1.42-2.32-2.57-3.18-2.07-1.55-4.23-2.99-6.1-4.8a2.92 2.92 0 0 1-1-2.56c.26-3.34.1-6.64-1.06-9.82-.12-.34-.18-.71-.34-1.03-.3-.61-.87-.84-1.5-.76-.82.09-.65.78-.6 1.27.23 2.4.54 4.79.76 7.19.23 2.4.4 4.8.56 7.2.03.47.1.96-.36 1.33-1.36 1.1-.93 1.83.47 2.44 2.55 1.11 5.11 2.23 7.96 2.1 1.43-.08 2.06.55 2.08 1.82a3.74 3.74 0 0 0 1.42 3.09c-1.45.66-2.68-.29-3.96-.04-1.77.34-2.09.68-1.44 2.38.62 1.64.78 3.41.46 5.13l1.6.14h.01v-.01Zm94.59-9.98c.24-.88.43-1.28.44-1.69.23-5 .03-10.01-.45-15-.36-3.8-2.54-5.6-6.5-6.02-.71-.08-1.44-.1-2.16-.04-2.22.19-3.27 2-2.27 3.96 2 3.93 4.68 7.45 6.97 11.21 1.4 2.3 2.65 4.7 3.98 7.58Z"/><path fill="#5d5f52" d="M142.25 172.61c-.08-2.65.13-5.3-.37-7.94-.1-.47-.14-.95-.3-1.4-.52-1.6-2.02-2.43-3.86-2.28-1.64.13-1.59 1.33-1.72 2.49-.7 5.97-1.47 11.95-.64 17.98.1.72.22 1.43.69 2.02 2.74-2.86 4.22-6.46 5.83-9.98 0-.35 0-.7.37-.9Z"/><path fill="#837d5a" d="M214.78 141.34c-1.04-2.24-2.13-4.46-3.1-6.73-.55-1.32-1.34-3.01-.1-4.05 1.23-1.02 2.99-.5 4.5.08.8.3 1.34.98 1.95 1.52.32-.26.26-.5.12-.7-1.55-2.11-2.48-4.54-3.41-6.96-.36-.93-.81-1.32-1.67-.47-.43.42-.95.74-1.4 1.14-2.07 1.85-3.05 1.75-4.63-.53-.38-.54-.67-1.14-1-1.7-.12 0-.23 0-.35.02-2.95 2.7-3 2.73-.63 6.11 2.62 3.75 5.33 7.44 8.02 11.14.41.56.8 1.26 1.7 1.14Z"/><path fill="#f5ba3b" d="M191.6 198.74c-2.63-.58-5.12-1.75-7.87-1.91a5.98 5.98 0 0 0-4.35 1.39c-1.9 1.56-1.95 1.8-.55 3.73 1.5 2.05 2.94 4.13 4.4 6.19 3.62-2.4 6.61-5.35 8.38-9.4Z"/><path fill="#837d5a" d="M141.88 173.5c-1.62 3.52-3.09 7.12-5.83 9.98l-.42.58c1.53 1.6 1.27 3.54 1.01 5.46-.02.23-.19.44-.28.66-1.44 3.32-1.29 4.02 1.55 6.63.51-2.33 1.84-4.28 2.2-6.6.16-.97.2-2.34 2.13-1.8 1.32.38.58-.83.54-1.41-4.4-2.17-3.19-3.26-2.41-6.43.53-2.19 1.77-4.06 2.86-6 .6-1.07.78-2.03-.99-1.96v-.02c.05.37-.11.66-.36.91Zm-34.44 43.34c.66-.8 1.62-.7 2.5-.76 1.47-.08 1.71-.84 1.28-2.07-.55-1.58-1.45-3.05-1.6-4.78-.1-.94-.1-1.77.98-2.24 1.06-.46.74-1.05-.02-1.56-.2-.13-.4-.28-.62-.36-1.16-.4-2.33-1.66-3.48-.9-1.08.7-.17 2.11-.15 3.21.03 1.57.18 3.14-.43 4.65-.56 1.37.09 2.85-.33 4.23.53.42 1.2.63 1.87.59Zm-8.64-9.12c1.11-2.97 2.29-5.91 3.3-8.91.9-2.68-.44-4.93-1.7-7.13-.36-.63-.7-.4-1 .17-1.68 3.1-2.71 6.28-1.77 9.85.52 1.99.79 4-.43 5.89.42 1.5 1.07.04 1.6.12Z"/><path fill="#f5ba3b" d="M169.45 241.52c-2.05 0-4.1.06-6.14 0-1.7-.05-3.1.65-4.92 1.48 3.77 1.88 7.23 3.6 10.7 5.31.43-2.25.32-4.52.36-6.79Zm14.03 9.34.11 2.85c1.74-.13 3.48-.18 5.2-.4 2.48-.34 4.09-1.97 4.17-4 .04-.87-.2-1.32-1.18-1.35-1.51-.04-2.96.03-4.34.8-1.09.61-2.16 1.32-3.45 1.46l-.5.64h-.01Z"/><path fill="#837d5a" d="M102.8 177.95c.02 2.48-.74 4.84-1.05 7.27-.13.95-.77 2.38.51 2.86 1.3.5 1.71-.98 2.33-1.8 1.65-2.17 1.26-4.94 2.13-7.34a10.45 10.45 0 0 0-3.92-.99Zm61.86-57.27c2.16.13 4.32.27 6.48.38.89.05 1.62-.17 1.46-1.29-.15-.97-.36-1.99-1.73-1.8-.96.13-1.9.29-2.84.52-.72.17-1.18.06-1.35-.71-.77.9-1.73 1.67-2.02 2.9Zm-5.03 5.91c1.85-.13 3.7-.33 5.55-.36 1.73-.03 1.3-1.2 1.26-2.15-.06-1.24-.88-1.22-1.8-1.01-.45.1-.93.15-1.4.23-.28 1.04-1.14 1.43-2.04 1.4-1.5-.07-1.68.73-1.56 1.9s-.01-.01-.01-.01Z"/><path fill="#5d5f52" d="m155.3 109.54-1.15-.37c-1.24 2.08-2 4.33-2.12 6.76-.02.4-.12.96.45 1.02.4.04.52-.42.64-.77l2.18-6.63Z"/><path fill="#6e6d56" d="M150.61 142.37c2.67-1.92 3.03-5 3.79-7.87-1.77 2.36-2.84 5.06-3.79 7.87Z"/><path fill="#5d5f52" d="M205.7 122.96c.1-.02.22-.02.33-.03.3-1.9-.38-3.27-2.16-4.07-.35 1.3-1.3 2.35-1.47 3.72 1.14-.27 2.31-.8 3.3.38ZM193.08 90.9c.26.27.52.6.83.87.63.55 1.28 1.09 1.95 1.59.39.29.68 1.1 1.26.63.47-.39 0-1.06-.24-1.48-.62-1.12-1.44-2.07-2.8-2.36-.58-.12-.93.05-1 .75Zm-45.59 24c.74-.04 2.53-2.79 2.28-3.48-.27-.72-.8-.43-1.1-.06-.65.79-1.26 1.61-1.8 2.48-.43.69.03.97.62 1.06Z"/><path fill="#837d5a" d="M142.72 186.41c.26-1.1.25-2.25-.03-3.35a7.57 7.57 0 0 0 .03 3.35Zm12.07-32.94c.15-.66.19-1.3-.07-1.95-.22.66-.3 1.31.07 1.95Zm-33.22 66.99a.75.75 0 0 0-.76-.23c.2.27.47.3.76.23Zm45.2-102.79c.3-.08.37-.3.35-.58l-.35.58Zm.41-.65.18-.33-.19.33h.01Zm-11.17 39.99c.05-.09.1-.17.13-.27 0-.03-.06-.09-.1-.13 0 .14 0 .27-.03.4Z"/><path fill="#f5ba3b" d="M120.5 39.56c-.2.99.5.9 1.1.88 9.6-.28 19.2-.5 28.78-1.18.6-.05 1.04-.2 1.3-.78.14-.33.43-.6.53-.93 1.85-5.85 7.07-7.04 11.97-8.39 2.97-.81 5.77.16 7.8 2.65 1.38 1.68 2.65 3.44 3.97 5.17 2.03-.57 4.1-.76 6.2-.69 1.88.07 2.9.9 3.2 2.75.23 1.57.17 3.12-1.1 4.33.94.7 1.97.67 3.06.4 3.27-.82 6.55-1.61 9.84-2.38 2.3-.54 2.41-.67 1.5-2.82-.17-.38-.4-.74-.61-1.1-.36.04-.72.06-1.07.13-3.16.62-3.14.6-4.34-2.4-.78-1.96-1.6-3.9-2.22-5.92-.73-2.36-.97-2.36-3.12-1.12a88.4 88.4 0 0 1-5.27 2.79c-.73.36-1.51.8-2.4.44-2.29-.92-4.7-1.5-6.84-2.79-2.4-1.44-5.06-1.9-7.79-2.03-1.62-.07-3.28.2-4.87-.05-2.65-.4-5.13-1.29-6.99-3.89 2.89-.03 5.7-.9 8.1-2.5 1.25-.82 1.99-1.89 2-3.41-2.78-.01-5.15 1.25-7.41 2.63-4.13 2.5-8.25 5-12.98 6.25-.85.23-1.6.83-2.4 1.26.44 2.2 1.2 2.86 3.4 2.9.77.02 1.56 0 2.34-.02.7-.02 1.17.2 1.17 1l.04 4.68c0 .73-.45 1.03-1.04 1.3a13.8 13.8 0 0 1-10 .85 25.53 25.53 0 0 0-11.22-.95c-2.02.3-3.85.74-4.64 2.93Zm32.12-13a2.92 2.92 0 0 1-2 1.7c-.69.17-1.39-.16-1.48-.93s.63-.74 1.15-.77c.7-.04 1.41 0 2.33 0Z"/><path fill="#837d5a" d="M163.23 16.72c-.02 1.52-.76 2.59-2.01 3.42a14.9 14.9 0 0 1-8.1 2.5c1.86 2.6 4.35 3.48 6.99 3.89 1.6.24 3.25-.03 4.88.05 2.72.13 5.39.58 7.78 2.03 2.14 1.29 4.56 1.87 6.84 2.79.9.36 1.67-.09 2.4-.44 1.79-.88 3.55-1.8 5.27-2.8 2.15-1.22 2.4-1.23 3.12 1.13.62 2.02 1.44 3.96 2.22 5.91 1.2 3 1.19 3.03 4.34 2.41.35-.07.72-.1 1.07-.14-1.53-3.98-4-7.42-6.37-10.9l-2.55-3.74a2.12 2.12 0 0 0-1.61-1.03c.04 1.07 1.43 2.11.25 3.16-2.2 1.94-4.5 3.8-7.47 4.47l-.09.09.1-.08c.89-2.7 2.83-4.58 4.88-6.37.6-.52 1.31-.9 1.36-1.8-.16-1.18-.9-1.73-2-1.62-3.24.33-6.13-.6-9.05-1.9-3.91-1.76-8.1-1.59-12.26-1.02Zm3.82 5.32c2.3-.3 4.48-.33 6.66.22.69.17 1.3.55 1.33 1.28.04 1.24.15 2.63-1.26 3.26-1.12.5-4.51-.65-4.61-1.55-.16-1.47-1-2.34-2.12-3.21ZM120.5 39.56c.78-2.19 2.6-2.63 4.63-2.93 3.76-.52 7.59-.19 11.21.95 3.45 1.03 6.77.62 10-.85.6-.28 1.06-.58 1.05-1.3l-.04-4.69c0-.8-.47-1-1.17-1-.79.03-1.57.04-2.35.03-2.19-.05-2.95-.71-3.39-2.9-3.63 1.22-7.1 3.06-10.95 3.43-3.79.37-7.74 1.2-10.97-2.27a35.7 35.7 0 0 0-.99 9.09c.03 1 .42 1.7 1.47 1.63.75-.05 1.03.5 1.5.8Z"/><path fill="#f5ba3b" d="M158.52 71.26c3.18-1.24 5.79-2.98 8.55-4.43.9-.47 1.73-1.16 2.68-1.5 5.7-2.03 8.76-6.72 11.9-11.8l-5.8 1.66c-.69.2-.62.77-.7 1.3-1.03 7.06-.77 6.11-6.84 7.52-2.43.57-4.88.91-7.36.7-1.13-.1-1.48.33-1.61 1.33-.22 1.65-.52 3.3-.82 5.21ZM197.3 29.1c2.62-.95 3.26-1.9 2.74-4.03-.13-.53-.3-.92-.9-1.2a5.27 5.27 0 0 1-3.3-5.33c.03-.77 0-1.47-1.1-1.4-2.82.14-5.67-.25-8.47.35 3.97 3.34 7.4 7.2 10.7 11.19l.33.41v.02Z"/><path fill="#837d5a" d="M184.25 43.37c1.27-1.2 1.33-2.75 1.1-4.32-.3-1.86-1.31-2.68-3.2-2.75-2.1-.07-4.17.11-6.2.68 1.95 3.2 3.93 6.34 8.3 6.4Z"/><path fill="#f5ba3b" d="M180.3 29.43c2.97-.68 5.26-2.53 7.46-4.47 1.18-1.05-.21-2.1-.25-3.16-.23-.36-.5-.63-.97-.54-.06.9-.77 1.3-1.36 1.8-2.06 1.8-4 3.69-4.88 6.38 0 0 0-.01 0 0Z"/><path fill="#837d5a" d="M118.95 40.35c.09.14.13.25.2.27.1.03.23 0 .34-.03.16-.08.16-.22-.02-.26-.14-.04-.31 0-.52.02Z"/><path fill="#f5ba3b" d="M175.92 363.25c.56 3.26.3 6.52-.28 9.73-1.02 5.59-.46 10.91 2.05 16.02 4.8-2.71 8.3-6.92 12.25-10.62 2.69-2.52 2.6-5.39 1.84-8.45-.33-1.32 0-1.87 1.25-2.19.84-.21 1.73-.48 2.28-1.37-1.05-.64-2.14-.62-3.2-.61-1.8.01-3.35-.48-4.4-2.03-.56-.83-1.34-.88-2.22-.87-3.2.06-6.37.65-9.57.39Zm3.17 30.5c.97 4.1 2.95 7.7 5.58 10.97.33.41.61.9 1.24.95-.59-1.2.5-1.74 1.02-2.45 1.02-1.4 2.2-2.7 2.67-4.42.37-1.39.06-2.33-1.58-2.5-3.13-.3-5.99-1.58-8.94-2.55Zm26.69-31.68c.03-1.34-.48-2.57-.87-3.83-2.6.25-4.41 1.75-5.92 3.7-.64.82-.7 1.44.6 1.76 2.28.54 5.21-.15 6.2-1.63h-.01Zm6.1 30.75s-.1-.03-.13-.02c-.04.02-.06.07-.08.11l.19.05.02-.13Z"/><path fill="#837d5a" d="M145.64 261.36a23.76 23.76 0 0 0 3.51-4.48c.3-.53.56-1.13 0-1.65-.62-.59-1.4-1-2.24-1.02-.81-.02-.78.82-.9 1.35-.4 1.8-.73 3.6-.38 5.8h.01Zm56.84 176.11c-.1.15-.17.41-.3.44-3.6.7-3.04 3.67-3.35 6.16-.07.54-.06 1.08-.08 1.63-.03 1.46-.65 2.13-2.23 2.04-1.3-.08-2.63.16-3.94.31-.73.08-1.77-.1-1.7 1.08.04 1.01.51 2 1.6 2.14 4.8.61 9.61 1.36 13.62-2.51 1.05-1.03 2.37-1.79 3.56-2.67a38.57 38.57 0 0 1-7.18-8.62Z"/><path fill="#f5ba3b" d="M232.84 490.74c1.5-2.41 3.33-4.6 5.44-6.5.87-.75.38-1.05-.22-1.44-3.03-1.96-6.21-3.47-9.96-3.21-1.01 1.2-2.06 2.36-3.03 3.58-.48.6-.93 1.28-1.22 2-1.47 3.65-.77 4.73 3.1 4.93 1.03.06 2.04.2 3.06.31l1.4.14 1.43.18Z"/><path fill="#837d5a" d="M156.38 348c.66.65 1.5 1.01 2.32 1.38 2.9 1.3 4.7 5.69 3.35 8.62-.52 1.13.1 1.12.76 1.16 1.27.07 2.53.03 3.8.1 1.68.07 3.35.2 5.03.3.64-2.08-.15-4.13-.21-6.2-.04-1.2-.02-2.56-.9-3.6.02.96-.36 1.57-1.39 1.73-1.37.22-2.71.55-4.08.78-.44.07-1.02.3-1.25-.33-.2-.54-.08-1.03.34-1.49a4.3 4.3 0 0 1 1.68-1c1.21-.5 2.61-.55 3.65-1.48-.22-.96-.78-1.41-1.8-1.33-2.9.24-5.81.48-8.72.65-.94.05-1.7.59-2.58.72Zm55.15 99.62c-1.04 2.26-2.8 3.93-4.68 5.43-2.78 2.22-4.82 5.02-6.6 8.04-.6 1-.48 1.83.48 2.5a13.13 13.13 0 0 0 5.12 2.16c.93.18 1.34-.04 1.04-1.15-1.4-5.2-.63-6.82 4.27-9.17 1.13-.55 2.24-1.19 3.56-1.16a15.64 15.64 0 0 0-3.19-6.65Zm-37.78-68.14c-2.12.12-4.2.5-6.22 1.11-2.62.8-3.32 2.92-1.77 5.21 1.26 1.84 3 3.13 4.94 4.16a45.7 45.7 0 0 0 6.32 2.71c-.96-4.43-2.74-8.66-3.27-13.2Zm10.67 27.22c-2.69.67-5.4 1.29-7.96 2.37-1.08.45-2.2 1.13-2.18 2.41.02 1.34 1.23 2 2.27 2.6 1.84 1.06 3.81.49 5.68.2 2.47-.37 5.06-.54 7.17-2.18-1.96-1.53-3.3-3.63-4.98-5.4Zm34.08 82.09c-4.08-4-13.63-4.47-16.84.65 1.68.68 3.44.32 5.14.23 3.9-.19 7.8-.58 11.7-.88Zm3.63-24.7c1.15-.79 2.5-.66 3.78-.8.7-.08 1.64-.1 1.7-.97.04-.8-.77-1.14-1.5-1.3-2.34-.54-4.67-1.09-7.1-.91.84 1.49 2.06 2.66 3.12 3.98Z"/><path fill="#f5ba3b" d="M169.47 347.97c-1.03.92-2.43.98-3.65 1.47-.62.26-1.2.5-1.67 1-.43.46-.55.96-.35 1.5.23.63.82.4 1.25.33 1.37-.23 2.72-.56 4.08-.78 1.04-.17 1.42-.77 1.4-1.74a4.04 4.04 0 0 0-1.06-1.79Z"/><path fill="#837d5a" d="M200.28 489.94c-1.38.02-2.21-.55-2.27-2.02-.03-.72-.6-.98-1.15-1.2-.73-.28-1.37-.42-1 .76.18.58.07 1.06-.55 1.32.22 1.61 1.35 1.81 2.67 1.73.65-.65 1.6-.13 2.3-.6Zm31.12.61-1.4-.13c.44.34.9.38 1.4.13Zm-30.53-.72c-.08-.18-.13-.19-.15.02l.15-.02ZM43.66 166.06l-2.76-2.31-.3.3c.36 1.18 1.46 1.7 2.22 2.53.84.92 1.89 1.7 2.2 3a2 2 0 0 0 1.6.41c-.86-1.4-1.74-2.8-2.96-3.93ZM213.8 415.1c1.19-.13 2.38-.28 3.58-.4.58-.06.9-.32.87-.91-.03-.55-.08-1.24-.8-1.2-1.91.08-3.83.25-5.75.43-.53.05-.62.5-.57.96.05.54.32.94.86 1.02.59.1 1.2.08 1.8.1h.01Zm6.83 7.54c-.66.12-1.88-.2-1.7 1.06.11.77-.2 1.85.73 2.35.35.2 2.69-1.77 2.7-2.16.02-1.05-.25-1.26-1.73-1.25ZM159.1 93.86c1.3-.1 32.97-18.08 33.96-19.17-12.5 4.8-22.87 12.64-33.97 19.17h.01Z"/><path fill="#2e383c" d="m156.03 108.13-.03.69c.32-.21.37-.44.03-.69Zm38.39-20.7.14.43.13-.08-.26-.36h-.01Zm3.78-6.45.12-.04s-.03-.1-.06-.12c0-.02-.07.02-.1.03l.04.13Zm-3.77 6.44-.36-.37.35.37Zm13.41-.36.06.13-.06-.13Zm-13.77 0-.08-.14.07.14Z"/><path fill="#837d5a" d="M182.59 11.72c-.58-1.07.54-2.7-.66-3.15a5.75 5.75 0 0 0-4.4.36 12.93 12.93 0 0 0 5.06 2.8Z"/><path fill="#f5ba3b" d="M226.03 439.66c1.39-.17 2.76-.26 4.1-.5 1.4-.26 1.57-1 .63-2.12-.65-.77-1.75-1.22-1.66-2.55.03-.5-.6-.47-1.02-.44-.53.03-.66.38-.69.86-.1 1.64-.8 3.12-1.36 4.75Z"/><path fill="#f3e5b6" d="M38.54 155.2c.76 1 1.5 2.01 2.3 2.97 2.19 2.63 1.45 2.59 4.44.54 2.2-1.5 4.16-3.37 6.22-5.07 1.2-1.51 2.82-2.6 4.23-3.9.74-.7.83-1.18.1-1.9a48.27 48.27 0 0 1-3.43-3.72c-.7-.87-1.07-.55-1.69.03-3.99 3.76-7.94 7.55-12.17 11.05Z"/><path fill="#837d5a" d="M56.03 153.4c-1.41 1.84-3.5 3.04-4.74 5.05.83.34 1.17-.4 1.62-.8 1.29-1.15 2.53-2.35 3.8-3.54-.03-.43-.25-.68-.68-.72Z"/><path fill="#6e6d56" d="M60.31 157.03c.04.68.48.97 1.09 1.09-.04-.69-.4-1.06-1.09-1.09Z"/><path fill="#837d5a" d="M31.8 155.26c.2.4.42.77.97.68-.03-.66-.47-.71-.98-.68Z"/><path fill="#6e6d56" d="m57.77 154.84.73.73c-.02-.46-.27-.7-.73-.73Zm.73.73.73.73c-.02-.46-.27-.7-.73-.73Z"/><path fill="#837d5a" d="M63.57 160.28c.14.35.39.6.73.73-.01-.47-.26-.7-.73-.73Zm.73.72c.14.36.38.6.73.74-.02-.46-.26-.71-.73-.73Z"/><path fill="#6e6d56" d="M59.23 156.3c.17.25.4.4.73.36-.17-.28-.43-.36-.73-.36Z"/><path fill="#837d5a" d="M32.77 155.94c-.02.26.09.39.35.35l-.35-.35Zm.86.59a.9.9 0 0 0-.08-.28l-.42.05c-.08.24.03.4.22.51l.28-.28Zm32.48 6.28.38.38-.38-.38Zm-.36-.36.37.38-.37-.38Zm-.36-.36.37.37-.37-.37Zm-14.13-3.62c-1.66.49-2.5 1.98-3.6 3.09-1.42 1.42-3.2 2.54-4 4.52.74 0 1.14-.57 1.6-1.02 1.74-1.72 3.5-3.43 5.2-5.18.37-.37 1.1-.62.8-1.4Z"/><path fill="#2e383c" d="M131.3 130.3c-.13 1.8 1.17 2.1 2.43 2.4 1.27.28 2.2.03 2.57-1.46.51-2.05 1.16-4.05 1.78-6.06.26-.86.18-1.58-.73-1.94-.8-.31-1.6-.95-2.47-.07-1.95 2.01-2.93 4.5-3.58 7.13Z"/><path fill="#837d5a" d="M40.18 163.03a24 24 0 0 0-4.37-4.35l-.3.31c1.2 1.7 2.59 3.22 4.36 4.35l.3-.31Z"/><path fill="#837d5a" d="M35.8 158.68c-.2-.17-.45-.5-.69-.12-.12.2.16.39.4.44l.3-.31h-.01Zm-1.73-1.16c.05.24.23.53.42.4.37-.23.04-.46-.14-.67l-.28.27Zm-.08-.62-.36-.37-.27.28.36.37.27-.28Z"/><path fill="#837d5a" d="m33.72 157.18.35.34.28-.27-.36-.36-.26.28Zm7.18 6.57-.37-.36-.3.3.37.37.3-.3Zm-.37-.36-.35-.36-.3.31.35.35.3-.3Z"/><path fill="#2e383c" d="m225.92 100.6-.17.22.34.22c.03-.1.1-.2.08-.27-.03-.07-.16-.11-.25-.17Zm3.29 3.14c.17.28.43.37.74.35a.7.7 0 0 0-.71-.37l-.03.02Zm-2.14-2.21-.2-.13.15.18.05-.05Z"/><path fill="#2e383c" d="m228.82 103.4.4.34.02-.03-.33-.4-.1.09h.01Zm1.48 1.06-.36-.36.37.35h-.02v.01Z"/><path fill="#2e383c" d="m228.45 103.05.37.35.1-.09-.37-.36-.1.1Z"/><path fill="#2e383c" d="m228.55 102.95-.38-.34-.07.06.35.38.1-.1Z"/><path fill="#2e383c" d="m227.73 102.32.37.36.07-.07-.37-.37-.07.08Zm2.59 2.13.05.14-.07-.12v-.02h.02Z"/><path fill="#2e383c" d="m227.38 101.94.35.38.08-.08-.38-.35-.05.05Z"/><path fill="#2e383c" d="m227.02 101.58.36.36.05-.05-.36-.36-.05.05Z"/><path fill="#5d5f52" d="m205.32 80.15-.07-.34-.19.1.23.27.04-.03Z"/><path fill="#837d5a" d="M187.57 418.97c.4-.04 1.28.07 1.3-1.08.03-1.08-.73-1.27-1.55-1.26-.81 0-1.51.23-1.53 1.3 0 1.07.64 1.12 1.78 1.04Z"/><path fill="#2e383c" d="M174.98 293.99h2.34c.7 0 1.14-.24 1.15-1.03 0-.75-.3-1.1-1.06-1.1-1.5.02-3 0-4.5 0-.78 0-1.26.33-1.27 1.17 0 .98.67.97 1.36.97h1.98v-.02ZM173.1 164.9c1.73.7 2.64 2.23 3.72 3.59 2.64 3.35 5 6.9 7.2 10.55.32.44.69.84.95 1.31.89 1.54 2.02 1.3 3.25.52-.05-1.07-1-1.61-1.45-2.46-4.84-7.05-10.66-13.3-16.1-19.87-1.04-1.24-1.89-2.65-2.82-3.98-1.39-1.4-2.48-3.02-3.62-4.6l-2.36-1.3c-.53-.29-1.05-.69-1.56.03.2.9.97 1.33 1.58 1.9a27.2 27.2 0 0 1 5.39 7.33l5.84 7v-.02Z"/><path fill="#837d5a" d="M144.6 200.49c-1.93-.1-2.3.39-1.75 2.3.25.87.43 1.79 1.1 2.45.4.39.67 1.2 1.4.84.54-.27.94-.96.74-1.53-.67-1.92.66-2.8 1.8-3.8.05-.04.13-.07.13-.12.12-1.32 2.17.8 2.16-1.19 0-.24 2.07-.52 3.2-.74 1.26-.24 2.34.29 3.43.86.4.21.95.46 1.25-.15.22-.45-.12-.84-.47-1.06-3.2-2.06-6.38-4.13-9.6-6.13-.95-.58-2.05-.07-3 .14-1 .22-.41 1.1-.13 1.6.69 1.21 1.44 2.37 1.83 3.73.72 2.48.4 2.92-2.1 2.8h.01Zm29.7-8.89c.34.03.63-.07.74-.4.15-.4-.15-.69-.42-.91-1.3-1.08-2.6-2.15-3.94-3.18-2.78-2.13-5.3-4.59-8.44-6.22-.48-.25-.98-.46-1.49-.63-.37-.1-.71.05-.92.41-.2.37-.15.74.2.95 4.25 2.56 7.15 6.89 11.77 8.95.83.37 1.67.69 2.51 1.03Zm-16.09 17.65c1.1-.17 2.1-.7 2.7-1.57.52-.74-.28-1.44-.67-2.09-.97-1.62-1.99-1.67-3.06-.14-.18.25-.36.49-.52.74-.42.6-1.4 1.1-.86 1.97.49.78 1.47.96 2.41 1.09Zm-2.79-30.69c-1.38.3-2.38-.28-3.44-.4-.52-.06-1.13-.23-1.48.36-.34.58.24.87.5 1.23.8 1.13 4.02 2.23 5.38 1.83 1.15-.34.82-1.48.78-2.13-.06-1.2-1.2-.82-1.74-.88Zm-24.79 36.8c-.35 0-.82-.06-.86.4-.05.53.44.62.87.7v-1.1Zm0 1.09.08.13-.08-.13Zm43.9-77.32c-2.95.11-5.72-.56-8.53-.54-.5 0-1.18-.15-1.24.66-.04.63.4 1.04.97 1.13 2.56.44 5.14.21 7.72.18.66 0-.13-1.49 1.08-1.43Z"/><path fill="#2e383c" d="M174.8 141.03c3.86 3.06 7.3 6.56 10.72 10.08.26.26.54.48.94.46-1.57-2.43-3.64-4.44-5.64-6.49-1.38-1.42-2.6-3.07-4.35-4.03-.56-.31.25-1.44-.84-1.07l-.4.36-.38.33a.74.74 0 0 0-.03.36h-.01Z"/><path fill="#837d5a" d="M164.23 149.96c1.14 1.58 2.23 3.2 3.61 4.6.16-1.13.1-2.27.4-3.4.2-.8.16-1.79-.58-2.34-.68-.5-1.35.08-1.99.41-.47.25-.96.5-1.44.73Zm10.61-9.29.38-.33c-.21 0-.35.1-.38.33Z"/><path fill="#2e383c" d="M200.88 176.96c1.5-1.41 1.9-3.19 1.93-5.09-1.73 1.3-.73 3.64-1.93 5.1Zm-13.35-23.93c0-.24 0-.48-.29-.58-.03 0-.1.05-.15.07l.46.5h-.02Zm-1.07-1.46.06.16-.07-.15v-.01Z"/><path fill="#2e383c" d="m187.55 153.01.07.13-.1-.1.02-.03Z"/><path fill="#f5ba3b" d="m173.1 164.9-5.83-6.99c-.36 1.17-1.56 1.4-2.24 2.19-.57-.41-.69-.95-.89-1.44-.58-1.39-1.93-1.94-3.19-1.17-.88.53-1.4 1.29-.87 2.41 1.44 3 3.28 5.73 5.42 8.26.68.8 1.46.98 2.4.5 1.92-1 3.83-2 5.2-3.74s0-.02 0-.02Z"/><path fill="#2e383c" d="M141.88 173.5c.25-.25.41-.54.37-.9-.36.2-.37.55-.37.9Z"/><path fill="#837d5a" d="M152.62 26.55c-.92 0-1.63-.03-2.33.01-.52.03-1.24 0-1.15.77.1.77.8 1.1 1.47.93.8-.2 1.5-.66 2.01-1.7Z"/><path fill="#f5ba3b" d="M167.05 22.04c1.11.87 1.95 1.74 2.11 3.21.1.9 3.5 2.04 4.61 1.55 1.42-.63 1.3-2.02 1.27-3.26-.03-.73-.65-1.1-1.34-1.28a17.98 17.98 0 0 0-6.66-.22Zm13.25 7.39-.1.09.1-.1Z"/></g></svg>