<svg xmlns="http://www.w3.org/2000/svg" viewBox="0 0 583.51 679.13"><path fill="#8093b8" fill-rule="evenodd" d="M302.8 247.23c5 3.8 8 8.7 4.8 14.1-2.8 4.6-9.1 4.7-15.8 3 1 2.9 2.2 5.7 3.5 8.4 2.9 5.9 5.4 10.2 7.4 12.9 3.8 5 10.8.2 21-14.4 4-5.8 10.6-9.2 17.7-9.2a9.6 9.6 0 0 1 9.3 11.4c-11.3 55-20.3 84.9-27 90-10.7 8-20.6 43.4-20.6 43.4l-59.8-8.7-6.6-26c-2-7.9-2.4-16.2-1-24.2l14.9-87.2c1-5.8 2.8-11.5 5.5-16.8l5.6-11.3c4.4-8.9 13.7-14.2 23.6-13.5l53.4 3.9c4.5.3 8.5 3.2 10.2 7.4 2.5 6.1-.4 13.1-6.5 15.7-5.2 2-18.3 2.4-39.6 1.1Z"/><path fill="#9aacd3" fill-rule="evenodd" d="m241.4 295.63-10.5 17.7-.3.6-37.1 77.6 6.9 40.7 59.4-45.2-3-44.5-17.5 11.8 9.5-56.1c.4-2.1-1.1-4.1-3.2-4.5-1.8-.2-3.4.5-4.2 1.9Z"/><path fill="#cbdbfe" fill-rule="evenodd" d="m200.6 304.93-43.5-15.9c-35.5-13-74.9 5.3-87.9 40.7a65.3 65.3 0 0 0-4.1 21l-2.7 74.6h153.8l-15.6-120.4Z"/><path fill="#dfe9ff" fill-rule="evenodd" d="m194 160.13 35.2-2.9 6.1-40.6c.2-1.2 1.3-2.1 2.6-1.9 1 .1 1.8.9 1.9 1.9l6.5 45.6c.7 4.6-2.5 8.8-7.1 9.5h-.1l-41.4 5.3c-5.2.7-9.9-2.9-10.7-8-.7-4.2 2.2-8.1 6.4-8.8.3 0 .5-.1.6-.1Z"/><path fill="#cbdbfe" d="M104.1 305.13c-2.5.9-5.2 1.4-8 1.1-1-.1-2.1-.3-3.1-.6a18.58 18.58 0 0 1-13.1-22.7l4.1-15.3h-.1c-3.2 1.8-7.1 2.2-10.6 1.1-7.2-2.2-11.3-9.9-9.1-17.1l21.8-75.1c1.8-8.8 5-19.5 10.1-35.2l.6-2.1v.2c6.3-19.1 15.5-45.3 28.5-83.4.2-.7 7.4-22.1 7.6-22.8 1.5-2 4.4-2.5 6.5-.9.8.6 1.4 1.5 1.7 2.5l4.8 17.8 6.5-48c.4-2.9 3.1-4.9 6-4.6 2.1.3 3.8 1.8 4.4 3.8l1 3.2 54.5 176.9c2.2 7.2 3.3 14.6 3.3 22.1v71.1c0 17.2-14 31.2-31.2 31.2h-72.5c-4.9 0-9.6-1.1-13.7-3.2Z"/><path fill="#b0bfdc" fill-rule="evenodd" d="M219.6 192.13c-1.5-4.1-3.8-5.7-6.9-4.9-3 .8-5.1 3.5-6.1 8.4a23.36 23.36 0 0 0-22.2-11c-2.6.3-5.5.6-8.6 1.1-18.5 3-27.3 21.2-28.2 30.8-.8 8.1-.1 2.7 0 23.2 0 4.4-2.2 16.1-6.6 35.2-2.1 9 3.5 18 12.5 20.1 1.2.3 2.4.4 3.7.4 16.8.1 26.3 0 28.4-.2 11.3-1.2 13.8-3.8 22.1-3.8 7 0 10.5 1.8 10.3 5.3 12.2-4.8 18.8-16.8 19.8-36.1 1.1-19.4-5-42.2-18.2-68.5Z"/><path fill="#fff" fill-rule="evenodd" d="M184.2 277.53h6.1l-1.8 8c-.1.6-.6 1.1-1.2 1.2-.8.1-1.6-.4-1.8-1.2l-1.3-8Zm29.7 0h6.1l-1.8 8c-.1.6-.6 1.1-1.2 1.2-.8.1-1.6-.4-1.8-1.2l-1.3-8Z"/><path fill="#8093b8" d="M463.3 493.43c17.4-41.4 29.3-64.5 35.6-69.3 7.8-5.8 16.4-4.9 20-.6 12.3-12.2 24.4-13 36-2.4 1 .6 1.9 1.3 2.8 1.9 4.1-.2 8.2.4 12.3 1.8 20.8 7.2 17.6 24.2-9.7 51.1l-78.1 91.1c-9.3 10.8-21.3 19-34.7 23.8-3.4 1.2-7.9 5-13.3 11.3-4.8 5.6-7.5 9.8-7.9 12.5-2.3 14.1-8.7 27.5-18.2 38.6l-10 11.7c-.8 1-1.7 1.9-2.6 2.7-11.7 10.6-29.4 10.3-39.4-.7l-17.7-19.4-.1.1-.2-.5-3.4-3.7 1.4-1.4-21.6-54.7 96.8-91.8 51.2-.7c.2-.5.5-1 .8-1.4Z"/><path fill="#fff" d="M180.4 235.43h-16.8c-5.9 0-10.7 4.8-10.7 10.6s4.8 10.6 10.7 10.6h16.8c5.9 0 10.7-4.8 10.7-10.6 0-5.9-4.8-10.6-10.7-10.6Z"/><path fill="#2b2b2b" d="M191.4 243.73c0-4.6-3.8-8.4-8.4-8.4s-8.4 3.7-8.4 8.4v4.6c0 4.6 3.8 8.4 8.4 8.4s8.4-3.7 8.4-8.4v-4.6Z"/><path fill="#fff" d="M221.5 235.43v21.3c-5.7 0-10.3-4.6-10.3-10.3v-.8c0-5.6 4.6-10.2 10.3-10.2Z"/><path fill="#2b2b2b" d="M233.7 243.73c0-4.6-3.7-8.4-8.4-8.4s-8.4 3.7-8.4 8.4v4.6c0 4.6 3.8 8.4 8.4 8.4s8.4-3.7 8.4-8.4v-4.6Z"/><path fill="#9aacd3" fill-rule="evenodd" d="M390.6 557.23a35.29 35.29 0 0 0 27.3-21.6l.1-.3a38.4 38.4 0 0 0-3.6-35.7l-3.6-5.5c13.3 4.8 28.1-2 33-15.4l.3-.9 4.4-13.7c-21.9 2.1-37.4.6-46.4-4.6s-16.6-11.5-22.8-19l-7.2 12.2 18.5 104.5Z"/><path fill="#b0bfdc" d="M410.7 611.03c42.4-14.4 67.4-20.6 75-18.9 9.3 2.2 14.1 9.6 13 15.4 17 1.4 25.2 10.4 24.5 26.8l-2.3.9c4 3.5 7 8 9 13.5 7.6 21.3-7.4 30.3-44.9 27H366.6c-14.1 0-27.8-3.9-39.8-11.2-3.1-1.9-8.7-2.8-16.9-2.8-7.3 0-12.1.7-14.5 2.2a76.33 76.33 0 0 1-40.8 11.8h-15.2c-1.2 0-2.5-.1-3.7-.2a28.1 28.1 0 0 1-24.2-31.6l3.6-27.1h-.2l.3-.5.7-5.2 1.9.1 28-54.1 130.6 14.1 32.7 39.9c.5 0 1.1 0 1.6-.1Z"/><path fill="#7181a1" d="M524.7 633.83c-.3-.4-.9-1.1-1.8-2-1.5-1.4-3.3-2.8-5.5-4-10.6-6.1-26-7.9-46.9-3a1.5 1.5 0 1 0 .7 2.9c20.2-4.8 34.7-3.1 44.6 2.6 2 1.2 3.6 2.4 4.9 3.6l1.1 1.1c.2.2.3.3.3.4.5.7 1.4.9 2.1.4.8-.3 1-1.3.5-2Z"/><path fill="#7181a1" d="M529.3 646.93c.8 0 1.5.7 1.5 1.5s-.7 1.5-1.5 1.5c-2.2 0-12.7-2.4-20-4.8-4.7-1.5-8.3-3.1-10.5-4.6-3.2-2.2-3.8-5-.8-7 6.1-4.1 14.7-4.1 26-.2.8.3 1.2 1.1.9 1.9s-1.1 1.2-1.9.9c-10.4-3.7-18.1-3.7-23.3-.2-.9.6-.8.9.8 2 1.9 1.3 5.3 2.8 9.8 4.2 6.9 2.4 17.2 4.8 19 4.8Zm-18.8-41.1c.8 0 1.5.7 1.5 1.5s-.7 1.5-1.5 1.5c-2.5 0-4.3-.2-7.9-.7h-.1c-5.2-.8-7.7-.9-11.8-.4-5.4.7-11.9 2.8-20.4 6.7-.8.3-1.7 0-2-.8s0-1.7.8-2c8.8-4 15.6-6.2 21.3-6.9 4.4-.6 7.2-.4 12.6.4h.1c3.5.5 5.1.7 7.4.7Z"/><path fill="#7181a1" fill-rule="evenodd" d="m205.8 225.13 10.8 33.9a6.59 6.59 0 0 1-6.2 8.6l-3.5.1c-2.9.1-5.4-2.3-5.4-5.2v-.1l-.1-36.6c0-1.3 1-2.3 2.3-2.3.9 0 1.8.7 2.1 1.6Z"/><path fill="#9aacd3" d="m66.2 407.93-27.1 120.4a60.71 60.71 0 0 0 46.1 72.6c4.4 1 8.9 1.5 13.3 1.5h62.2a76.2 76.2 0 0 0 67.6-41l26.3-50.6-38.8 100.3h17.8c19.5 0 38-8.9 50.1-24.1l11.6-14.6v13.7c0 13.9 11.2 25.1 25.1 25.1 15.1 0 28.5-9.4 33.7-23.6l5.5-15.2 6.1 11.8c8.6 16.6 25.8 27 44.5 27-17.8-52.9-27.9-95.3-30.5-127.3s.4-80.3 8.8-144.8h-75.4l-135.9 81.3-111-12.5Z"/><path fill="#7181a1" d="M156.7 285.13c4-4 7.1-6 8.8-6h55.2c.8 0 1.5-.7 1.5-1.5s-.7-1.5-1.5-1.5h-55.2c-2.8 0-6.4 2.3-11 6.9-.6.6-.6 1.6 0 2.1.7.6 1.6.6 2.2 0Zm32.9-44.4h-35.2c1.8-3.2 5.3-5.3 9.2-5.3h16.8c3.9 0 7.4 2.1 9.2 5.3Zm-.4 11.4c-1.9 2.8-5.1 4.6-8.7 4.6h-16.8c-3.6 0-6.8-1.8-8.7-4.6h34.2Z"/><path fill="#b0bfdc" fill-rule="evenodd" d="m388.8 302.03-57.4 36.6 88.8 26.2 36.3-28.5c7.7-6 13.6-14.4 17.1-24.4l8.7-24.8c2.9-8.2 1.9-18-2.8-26.4l-6.7-12.3-.3.2-5.7-25.6c-1.2-5.4-4.5-10.4-9-13.4l-4.2-2.9-7.2-4.3-1.1-6.9-44-43.9-.4-.4c-5.3-4.9-12.5-4.7-16.2.5-3.3 4.6-3.1 11.5.3 16.9-3.1.4-5.8 2.5-7.1 5.9-.2.5-.3 1-.5 1.5-1.6 7.2 2.2 15.5 8.8 19.1l36.3 19.8c3.7 23.6 5.5 35.4 5.5 35.4s-33.4 26.3-43.7 27.5c-6.8.8-12.3-1.5-16.3-6.7l11.5-47.2c0-.1.1-.3.1-.4 1.5-7.1-2.7-15.1-9.5-17.9-7-2.9-14 .7-15.8 8.1-10.6 43.8-15 69.9-13.1 78.4 3.1 13.9-10.7 46.8-10.7 46.8l58.3-36.9Z"/><path fill="#7181a1" d="M221.5 240.73h-9.2c1.8-3.2 5.3-5.3 9.2-5.3v5.3Zm0 15.9c-3.6 0-6.8-1.8-8.7-4.6h8.7v4.6Z"/><path fill="#2b2b2b" fill-rule="evenodd" d="m420.2 137.83-50.6-1.5c-5.4-.2-10.1 3.8-10.9 9.1l-16.2 112.4 63.2 7.9 9.9-6.9 14.8-109c.8-5.8-3.3-11.2-9.1-12h-1.1Z"/><path fill="#fff" d="M380.3 255.93c-4.4 0-8-3.6-8-8s3.6-8 8-8 8 3.6 8 8-3.6 8-8 8Zm0-3a4.9 4.9 0 1 0-.02-9.82 4.9 4.9 0 0 0 .02 9.82Zm21.2-110.4h.4c.1-.1.2-.2.3-.4.1-.3.2-.7.2-1.6v-.1l.9-3.7 2.2.5-.9 3.5c0 1.1-.1 1.6-.3 2.2-.2.6-.5 1.1-1 1.4-.5.4-1.1.6-2 .6l-15.1-.5c-.9 0-1.4-.2-1.9-.7-.4-.4-.7-.9-.9-1.5-.2-.6-.2-1.2-.2-2.3v-.1l.9-3.7 2.2.5-.9 3.5c0 .8 0 1.2.1 1.5.1.2.1.4.2.5h.4l15.4.4Z"/><path fill="#dfe9ff" d="M44.4 627.23 0 675.73h206.3l-21-35.7a76.23 76.23 0 0 0-65.7-37.6h-19.1c-21.3 0-41.7 9-56.1 24.8Z"/><path fill="#fff" d="m24.8 641.43 2.5-2.7c17.8 16.7 36.5 25 56.2 25 15.8 0 33.3-7.6 44.7-20.4 13.6-15.2 17.9-36.2 10.3-61.6l3.5-1c8 26.5 3.4 48.8-11.1 65-12.1 13.6-30.6 21.6-47.4 21.6-20.7 0-40.3-8.7-58.7-25.9Zm158.8-8.8 1.4 3.5c-22 8.6-31.1 22.5-27.7 42.4l-3.8.6c-3.8-21.7 6.4-37.4 30.1-46.5Z"/><path fill="#fff" d="M30.1 626.73c15.4 14.4 31.8 21.6 49 21.6 14.1 0 29.5-6.7 39.7-18 12.1-13.5 16-32.1 9.3-54.2l-3.5 1c6.3 20.9 2.7 38.2-8.5 50.7-9.5 10.5-23.9 16.8-37 16.8-16.3 0-31.8-6.8-46.5-20.6l-2.5 2.7Z"/><path fill="#cbdbfe" fill-rule="evenodd" d="M225.3 184.13c3.4 13.7 0 20.1-11.4 20.1-7.6 0-15.2-3.5-22.8-10.6 4.1 7.1 1.8 10.6-6.9 10.6-12.9 0-14.8-8-14.8-8.7s-.5-12.9 2.3-15.6c1.4-1.4 7.9-1.4 19.4 0 20.5-6.3 31.9-4.9 34.2 4.2Zm-91.6 37.3c3.4 13.7 0 20.1-11.4 20.1-7.6 0-15.2-3.5-22.8-10.6 4.1 7.1 1.8 10.6-6.9 10.6-12.9 0-14.8-8-14.8-8.7s-.5-12.9 2.3-15.6c1.4-1.4 7.9-1.4 19.4 0 20.5-6.3 31.9-4.9 34.2 4.2Z"/><path fill="#dfe9ff" fill-rule="evenodd" d="m391 125.23-8.8-20.5h-1.1c-17.7 0-32-14.3-32-31.9v-36.9c0-17.6 14.3-31.9 32-31.9h99c17.7 0 32 14.3 32 31.9v36.9c0 17.6-14.3 31.9-32 31.9h-73.9l-15.2 20.5Z"/><path fill="#b0bfdc" fill-rule="evenodd" d="M323.8 336.33s15.7-31.6 13.4-45.3c-1.4-8.3 4.5-33.7 17.7-76 2.2-7.1 9.4-10.4 16.3-7.3 7 3.1 11.3 11.2 10.1 18.9l-6.5 41.4c-.7 4.5 2.1 9.2 6.3 10.5.7.2 1.5.3 2.2.3"/><path fill="#cbdbfe" fill-rule="evenodd" d="m181 227.63-25.2 4.5c-.4.1-.8-.2-.9-.6v-.4l1.3-4.3c1.1-3.4 3.9-5.9 7.4-6.6l8.9-1.7 4.1 2-.1-2.8 2.1-.4c2.5-.5 4.9 1.1 5.3 3.6 0 .2.1.5.1.7l.1 2c.1 2-1.3 3.7-3.1 4Zm33.3-8.8c-1.6-.5-2.7-2-2.7-3.7l.1-3.4c0-.3.1-.7.2-1a3.2 3.2 0 0 1 4.1-2l-.1 2.8 2.3-2 2.9 1a9.4 9.4 0 0 1 6.3 7.3l.8 4.3v.4c-.1.4-.6.6-1 .5l-12.9-4.2Zm-14.3 85.6 12.9-6.8 1.6 12.4a8.37 8.37 0 0 1-13.9 7.2l-2.9-2.6-1.5 6.7c-.8 3.3-2.8 6.1-5.8 7.8a12.1 12.1 0 0 1-16.6-4.4l-6.2-10.7-8.2 16.9a12.4 12.4 0 0 1-8.2 6.6c-6.6 1.5-13.1-2.6-14.6-9.1l-3.6-15.6-6 9.2c-2 3.1-5.3 5.1-9 5.5-6.7.7-12.7-4.1-13.4-10.8l-1.5-14.4c12.4-1.1 21-1.1 26 0 1.3.3 2.4.7 3.3 1.2 2.9-1.3 6.9-1.7 12-1.2 4.6.5 10.9 1.8 18.8 3.9l-.8-1.3 39.1-6.2-1.5 5.7Z"/><path fill="#b0bfdc" d="M135.1 328.83c1.7 7.4 9 12 16.4 10.3 4.1-.9 7.5-3.6 9.3-7.4l6.9-14.3 4.8 8.2c3.8 6.5 12.2 8.8 18.7 5 3.3-1.9 5.6-5.1 6.5-8.8l1-4.2 1 .9c.6.6 1.6.5 2.2-.1.6-.6.5-1.6-.1-2.1l-2.9-2.6c-.9-.8-2.2-.3-2.5.8l-1.5 6.7a10.75 10.75 0 0 1-19.7 2.9l-6.2-10.7c-.6-1.1-2.2-1-2.7.1l-8.2 16.9c-1.4 2.9-4.1 5-7.2 5.7-5.7 1.3-11.5-2.3-12.8-8l-3.6-15.6c-.3-1.3-2-1.6-2.8-.5l-6 9.2c-1.8 2.7-4.6 4.5-7.8 4.8-5.9.6-11.1-3.6-11.7-9.5l-1.5-14.4c-.1-.8-.8-1.4-1.7-1.4-.8.1-1.4.8-1.4 1.7l1.5 14.4a13.74 13.74 0 0 0 25.2 6l4-6.2 2.8 12.2Z"/><path fill="#dfe9ff" fill-rule="evenodd" d="m106.5 168.33-35 5.1-15.1-38.2c-.5-1.2-1.8-1.7-3-1.3-.9.4-1.5 1.3-1.4 2.3l3.9 45.9c.4 4.6 4.4 8 9.1 7.6h.1l41.5-4.1c5.2-.5 9-5.1 8.6-10.2-.3-4.2-4-7.4-8.2-7.1-.1-.1-.3 0-.5 0Z"/><path fill="#cbdbfe" fill-rule="evenodd" d="m87.9 299.83 84.9 117.2 144-117.2c1.7-1.4 3.5-2.7 5.4-3.9l13.2-8.6c4.1-2.6 9.3-2.3 13.1.7 4.1 3.3 6.9 7.9 8 13l.6 2.7 10.2-5c5.1-2.5 11.3-.4 13.8 4.7 1.4 2.9 1.4 6.2 0 9l12.7-2.2c1.9-.3 3.9-.4 5.9-.3l30.9 1.8c5.5.3 9.6 5 9.3 10.4 0 .6-.1 1.2-.3 1.7l-3.9 16.2c-.4 1.5-1.1 2.9-2.2 4.1l-28.8 31c-1.8 1.9-3.7 3.8-5.8 5.5l-224 186.3c-6 5-14.8 4.9-20.7-.2l-69.4-60.3a41.78 41.78 0 0 1-14.4-31.5l-3.6 2.9a12.8 12.8 0 0 1-16.2-.2c-4.9-4.2-7-10.8-5.3-17l3-11.5-3.8 3.2c-4.4 3.7-10.9 3.1-14.6-1.3a19 19 0 0 1-3.5-17.9l3.7-11.4-4.8 3.2c-4.5 3-10.4 2.3-14.2-1.5-3.9-4-4.9-10-2.6-15.1l49.4-105.9a17.6 17.6 0 0 1 23.3-8.5c2.6 1.5 5 3.5 6.7 5.9Z"/><path fill="#b0bfdc" d="M137.6 366.43c-.5-.7-1.4-.9-2.1-.4-.7.5-.9 1.4-.4 2.1l33.1 49.8c.5.7 1.5.9 2.2.4l19-14.4c.7-.5.8-1.5.3-2.1s-1.5-.8-2.1-.3l-17.7 13.5-32.3-48.6Z"/><path fill="#cbdbfe" d="M394.7 553.73c-.1-.2-.6-2.1-.8-2.8-.5-1.8-1.1-3.6-1.6-5.7-1.6-5.8-3.1-12.2-4.6-19.1-5.8-27.7-8.5-56.5-6.4-84.9.1-.8-.6-1.6-1.4-1.6-.8-.1-1.6.6-1.6 1.4-2.1 28.7.6 57.8 6.5 85.8 1.5 7 3 13.4 4.6 19.3.6 2.1 1.1 4 1.6 5.8.2.7.8 2.6.8 2.8.2.8 1.1 1.3 1.9 1.1.8-.4 1.2-1.3 1-2.1Z"/><path fill="#7181a1" d="m145.1 54.43 12.3 35.6c.3.8 1.1 1.2 1.9.9.8-.3 1.2-1.1.9-1.9L148 53.43c-.3-.8-1.1-1.2-1.9-.9-.8.2-1.2 1.1-1 1.9Z"/><path fill="#b0bfdc" d="M116.7 261.93c-16.4-.7-24.6-7.4-24.6-20.2s8.7-20.1 26-20.7c-.4.8-.8 1.9-.9 3.4-.4 4.9 1.9 7.3 7 7.2-8.8 6.9-13.3 13.1-13.4 18.6-.1 4.8 2 9.1 5.9 11.7Z"/><path fill="#7181a1" d="M451.1 196.53c-.1-.8.4-1.6 1.2-1.8.8-.1 1.6.4 1.8 1.2l8.4 49.5c1.2 7.3-1.4 14.7-7 19.6l-19.5 17c-.6.6-1.6.5-2.1-.1-.6-.6-.5-1.6.1-2.1l19.5-17c4.8-4.2 7-10.5 6-16.8l-8.4-49.5Zm25.5 47.1c-.1-.8.4-1.6 1.3-1.7s1.6.4 1.7 1.3l2.2 14.1c.8 5.3-.3 10.6-3.3 15.1l-14.3 21.6c-.5.7-1.4.9-2.1.4s-.9-1.4-.4-2.1l14.4-21.7c2.5-3.8 3.5-8.4 2.8-12.9l-2.3-14.1Zm-48-30.7c.2.8-.3 1.6-1.1 1.9-.8.2-1.6-.3-1.9-1.1l-2.3-8.4c-.2-.8.3-1.6 1.1-1.9.8-.2 1.6.3 1.9 1.1l2.3 8.4Zm-62-4.2c0-.8.7-1.5 1.6-1.5.8 0 1.5.7 1.5 1.6-.5 14.4-6 22.9-16.5 25-.8.2-1.6-.4-1.8-1.2-.2-.8.4-1.6 1.2-1.8 8.9-1.7 13.5-8.9 14-22.1Z"/><path fill="#fff" d="M410.7 58.73v7.2h-6.6v5.4h-8.5v-5.4h-23.3v-7.2l23.3-20.4h8.5v20.4h6.6Zm-29.2 0h14.2v-12l-14.2 12Zm50.8 13c-13.1 0-19.4-6-19.4-17s6.2-16.9 19.4-16.9 19.4 6 19.4 16.9c0 10.9-6.3 17-19.4 17Zm0-7.1c7.5 0 10.9-3.7 10.9-9.9s-3.4-9.8-10.9-9.8-10.9 3.6-10.9 9.8 3.4 9.9 10.9 9.9Zm60.6-5.9v7.2h-6.6v5.4h-8.5v-5.4h-23.3v-7.2l23.3-20.4h8.5v20.4h6.6Zm-29.3 0h14.2v-12l-14.2 12Z"/></svg>