<svg xmlns="http://www.w3.org/2000/svg" width="88" height="88" fill="none"><path fill="#FFD600" d="M7.34 82.19c5.81 5.81 13.84 5.5 20.18-.81 7.26-7.25 14.44-21.76 24.55-31.87 7.85-7.85 16.76-.21 27.57-10.56 4.33-4.12 6.72-10.04 5.84-14.34l-13.52 3.7c-2.25.6-3.87-.84-4.58-3.27l-1.02-3.56c-.7-2.43.14-4.47 2.4-5.07l13.48-3.66c-.38-1.23-1.55-2.93-2.99-4.4C71.12 0 57.49.95 49.64 7.57 37.9 18.73 46.78 30.53 39.07 38.24c-9.19 9.2-23.73 16.52-30.95 23.77-6.34 6.3-6.62 14.33-.78 20.18m3.35-3.38c-3.8-3.88-3.52-9.33.7-13.53 7.3-7.25 22.72-15.35 31.06-23.7 9.09-9.08-.49-20.42 10.6-30.66 5.6-5.18 15.22-5.57 21.7-.6l-6.94 1.83c-5.14 1.34-7.4 5.28-5.85 10.63l.99 3.42 3.9 14.33c-6.05.88-12.32-.18-18.16 5.6-9.16 9.15-17.15 24.68-24.44 32-4.26 4.3-9.76 4.59-13.56.68m40.95-49.97 7.57-2c.67-.18 1.06-.85.88-1.6a1.24 1.24 0 0 0-1.51-.87l-7.6 2.04a1.24 1.24 0 0 0-.89 1.51c.21.74.81 1.13 1.55.92Zm.95 3.87 7.54-2a1.24 1.24 0 0 0 .88-1.59 1.27 1.27 0 0 0-1.51-.88l-7.61 2.08a1.2 1.2 0 0 0-.88 1.48c.21.73.84 1.12 1.58.91Zm20.25-.17 7.3-1.98a17 17 0 0 1-3.67 5.46 15.01 15.01 0 0 1-6.45 3.8l-1.97-7.18c1.41.42 3.03.39 4.8-.1Zm-19.33 4.05 7.64-2.05c.64-.17 1.02-.88.88-1.55a1.23 1.23 0 0 0-1.55-.84l-7.57 2.04a1.28 1.28 0 0 0-.91 1.52c.14.73.84 1.05 1.51.88ZM13.19 76.4c2.22 2.15 6.02 2.19 8.13-.03 2.22-2.32 2.33-6.02.04-8.24-2.29-2.18-6.02-2.29-8.24.03a5.9 5.9 0 0 0 .07 8.24Z"/></svg>