<svg xmlns="http://www.w3.org/2000/svg" width="80" height="80" viewBox="0 0 80 80"><path d="m7.34,73.35c5.12,5.12,12.19,4.84,17.78-.71,6.39-6.39,12.72-19.17,21.63-28.08,6.92-6.92,14.77-.19,24.29-9.31,3.82-3.63,5.93-8.84,5.15-12.63l-11.91,3.26c-1.99.53-3.41-.74-4.03-2.89l-.9-3.13c-.62-2.14.12-3.94,2.11-4.47l11.88-3.23c-.34-1.09-1.37-2.58-2.64-3.88-7.17-7.35-19.17-6.52-26.09-.68-10.33,9.84-2.51,20.23-9.31,27.02-8.1,8.1-20.91,14.55-27.27,20.94-5.58,5.55-5.83,12.63-.68,17.78m2.95-2.98c-3.35-3.41-3.1-8.22.62-11.91,6.42-6.39,20.01-13.53,27.36-20.88,8-8-.43-17.99,9.34-27.02,4.93-4.56,13.4-4.9,19.11-.53l-6.11,1.61c-4.53,1.18-6.52,4.65-5.15,9.37l.87,3.01,3.44,12.63c-5.34.78-10.86-.15-16.01,4.93-8.07,8.07-15.11,21.75-21.53,28.2-3.75,3.78-8.59,4.03-11.95.59M46.37,26.34l6.67-1.77c.59-.16.93-.74.78-1.4-.08-.28-.26-.52-.51-.66s-.55-.19-.83-.11l-6.7,1.8c-.28.08-.52.26-.66.51-.15.25-.19.55-.11.83.19.65.71.99,1.36.81Zm.84,3.41l6.64-1.77c.15-.04.28-.1.4-.19.12-.09.22-.21.29-.34.07-.13.12-.28.13-.42.01-.15,0-.3-.05-.44-.15-.59-.78-.9-1.33-.78l-6.7,1.83c-.59.12-.93.74-.78,1.3.19.65.74.99,1.4.81Zm17.84-.16l6.42-1.74c-.71,1.68-1.74,3.35-3.23,4.81-1.83,1.77-3.72,2.79-5.68,3.35l-1.74-6.33c1.24.37,2.67.34,4.22-.09Zm-17.03,3.57l6.73-1.8c.56-.16.9-.78.78-1.37-.04-.14-.11-.27-.2-.38-.09-.11-.2-.21-.33-.28-.13-.07-.27-.11-.41-.13-.14-.01-.29,0-.43.04l-6.67,1.8c-.28.08-.52.26-.67.5-.15.25-.2.55-.13.83.12.65.74.93,1.33.78ZM12.49,68.26c1.95,1.89,5.31,1.92,7.17-.03,1.95-2.05,2.05-5.31.03-7.26-2.02-1.92-5.31-2.02-7.26.03-1.92,1.99-1.95,5.31.06,7.26Z" fill="#ffd600"/></svg>